<?xml version="1.0" encoding="utf-8" standalone="no"?>
<!DOCTYPE svg PUBLIC "-//W3C//DTD SVG 1.1//EN"
  "http://www.w3.org/Graphics/SVG/1.1/DTD/svg11.dtd">
<svg xmlns:xlink="http://www.w3.org/1999/xlink" width="460.8pt" height="345.6pt" viewBox="0 0 460.8 345.6" xmlns="http://www.w3.org/2000/svg" version="1.1">
 <metadata>
  <rdf:RDF xmlns:dc="http://purl.org/dc/elements/1.1/" xmlns:cc="http://creativecommons.org/ns#" xmlns:rdf="http://www.w3.org/1999/02/22-rdf-syntax-ns#">
   <cc:Work>
    <dc:type rdf:resource="http://purl.org/dc/dcmitype/StillImage"/>
    <dc:date>2022-09-05T20:27:30.155065</dc:date>
    <dc:format>image/svg+xml</dc:format>
    <dc:creator>
     <cc:Agent>
      <dc:title>Matplotlib v3.5.3, https://matplotlib.org/</dc:title>
     </cc:Agent>
    </dc:creator>
   </cc:Work>
  </rdf:RDF>
 </metadata>
 <defs>
  <style type="text/css">*{stroke-linejoin: round; stroke-linecap: butt}</style>
 </defs>
 <g id="figure_1">
  <g id="patch_1">
   <path d="M 0 345.6 
L 460.8 345.6 
L 460.8 0 
L 0 0 
z
" style="fill: #ffffff"/>
  </g>
  <g id="axes_1">
   <g id="patch_2">
    <path d="M 57.6 307.584 
L 414.72 307.584 
L 414.72 41.472 
L 57.6 41.472 
z
" style="fill: #ffffff"/>
   </g>
   <g id="matplotlib.axis_1">
    <g id="xtick_1">
     <g id="line2d_1">
      <defs>
       <path id="mfe156b52b9" d="M 0 0 
L 0 3.5 
" style="stroke: #000000; stroke-width: 0.8"/>
      </defs>
      <g>
       <use xlink:href="#mfe156b52b9" x="63.791865" y="307.584" style="stroke: #000000; stroke-width: 0.8"/>
      </g>
     </g>
     <g id="text_1">
      <!-- 0 -->
      <g transform="translate(60.610615 322.182437)scale(0.1 -0.1)">
       <defs>
        <path id="DejaVuSans-30" d="M 2034 4250 
Q 1547 4250 1301 3770 
Q 1056 3291 1056 2328 
Q 1056 1369 1301 889 
Q 1547 409 2034 409 
Q 2525 409 2770 889 
Q 3016 1369 3016 2328 
Q 3016 3291 2770 3770 
Q 2525 4250 2034 4250 
z
M 2034 4750 
Q 2819 4750 3233 4129 
Q 3647 3509 3647 2328 
Q 3647 1150 3233 529 
Q 2819 -91 2034 -91 
Q 1250 -91 836 529 
Q 422 1150 422 2328 
Q 422 3509 836 4129 
Q 1250 4750 2034 4750 
z
" transform="scale(0.015625)"/>
       </defs>
       <use xlink:href="#DejaVuSans-30"/>
      </g>
     </g>
    </g>
    <g id="xtick_2">
     <g id="line2d_2">
      <g>
       <use xlink:href="#mfe156b52b9" x="105.628791" y="307.584" style="stroke: #000000; stroke-width: 0.8"/>
      </g>
     </g>
     <g id="text_2">
      <!-- 25 -->
      <g transform="translate(99.266291 322.182437)scale(0.1 -0.1)">
       <defs>
        <path id="DejaVuSans-32" d="M 1228 531 
L 3431 531 
L 3431 0 
L 469 0 
L 469 531 
Q 828 903 1448 1529 
Q 2069 2156 2228 2338 
Q 2531 2678 2651 2914 
Q 2772 3150 2772 3378 
Q 2772 3750 2511 3984 
Q 2250 4219 1831 4219 
Q 1534 4219 1204 4116 
Q 875 4013 500 3803 
L 500 4441 
Q 881 4594 1212 4672 
Q 1544 4750 1819 4750 
Q 2544 4750 2975 4387 
Q 3406 4025 3406 3419 
Q 3406 3131 3298 2873 
Q 3191 2616 2906 2266 
Q 2828 2175 2409 1742 
Q 1991 1309 1228 531 
z
" transform="scale(0.015625)"/>
        <path id="DejaVuSans-35" d="M 691 4666 
L 3169 4666 
L 3169 4134 
L 1269 4134 
L 1269 2991 
Q 1406 3038 1543 3061 
Q 1681 3084 1819 3084 
Q 2600 3084 3056 2656 
Q 3513 2228 3513 1497 
Q 3513 744 3044 326 
Q 2575 -91 1722 -91 
Q 1428 -91 1123 -41 
Q 819 9 494 109 
L 494 744 
Q 775 591 1075 516 
Q 1375 441 1709 441 
Q 2250 441 2565 725 
Q 2881 1009 2881 1497 
Q 2881 1984 2565 2268 
Q 2250 2553 1709 2553 
Q 1456 2553 1204 2497 
Q 953 2441 691 2322 
L 691 4666 
z
" transform="scale(0.015625)"/>
       </defs>
       <use xlink:href="#DejaVuSans-32"/>
       <use xlink:href="#DejaVuSans-35" x="63.623047"/>
      </g>
     </g>
    </g>
    <g id="xtick_3">
     <g id="line2d_3">
      <g>
       <use xlink:href="#mfe156b52b9" x="147.465717" y="307.584" style="stroke: #000000; stroke-width: 0.8"/>
      </g>
     </g>
     <g id="text_3">
      <!-- 50 -->
      <g transform="translate(141.103217 322.182437)scale(0.1 -0.1)">
       <use xlink:href="#DejaVuSans-35"/>
       <use xlink:href="#DejaVuSans-30" x="63.623047"/>
      </g>
     </g>
    </g>
    <g id="xtick_4">
     <g id="line2d_4">
      <g>
       <use xlink:href="#mfe156b52b9" x="189.302643" y="307.584" style="stroke: #000000; stroke-width: 0.8"/>
      </g>
     </g>
     <g id="text_4">
      <!-- 75 -->
      <g transform="translate(182.940143 322.182437)scale(0.1 -0.1)">
       <defs>
        <path id="DejaVuSans-37" d="M 525 4666 
L 3525 4666 
L 3525 4397 
L 1831 0 
L 1172 0 
L 2766 4134 
L 525 4134 
L 525 4666 
z
" transform="scale(0.015625)"/>
       </defs>
       <use xlink:href="#DejaVuSans-37"/>
       <use xlink:href="#DejaVuSans-35" x="63.623047"/>
      </g>
     </g>
    </g>
    <g id="xtick_5">
     <g id="line2d_5">
      <g>
       <use xlink:href="#mfe156b52b9" x="231.139569" y="307.584" style="stroke: #000000; stroke-width: 0.8"/>
      </g>
     </g>
     <g id="text_5">
      <!-- 100 -->
      <g transform="translate(221.595819 322.182437)scale(0.1 -0.1)">
       <defs>
        <path id="DejaVuSans-31" d="M 794 531 
L 1825 531 
L 1825 4091 
L 703 3866 
L 703 4441 
L 1819 4666 
L 2450 4666 
L 2450 531 
L 3481 531 
L 3481 0 
L 794 0 
L 794 531 
z
" transform="scale(0.015625)"/>
       </defs>
       <use xlink:href="#DejaVuSans-31"/>
       <use xlink:href="#DejaVuSans-30" x="63.623047"/>
       <use xlink:href="#DejaVuSans-30" x="127.246094"/>
      </g>
     </g>
    </g>
    <g id="xtick_6">
     <g id="line2d_6">
      <g>
       <use xlink:href="#mfe156b52b9" x="272.976495" y="307.584" style="stroke: #000000; stroke-width: 0.8"/>
      </g>
     </g>
     <g id="text_6">
      <!-- 125 -->
      <g transform="translate(263.432745 322.182437)scale(0.1 -0.1)">
       <use xlink:href="#DejaVuSans-31"/>
       <use xlink:href="#DejaVuSans-32" x="63.623047"/>
       <use xlink:href="#DejaVuSans-35" x="127.246094"/>
      </g>
     </g>
    </g>
    <g id="xtick_7">
     <g id="line2d_7">
      <g>
       <use xlink:href="#mfe156b52b9" x="314.813421" y="307.584" style="stroke: #000000; stroke-width: 0.8"/>
      </g>
     </g>
     <g id="text_7">
      <!-- 150 -->
      <g transform="translate(305.269671 322.182437)scale(0.1 -0.1)">
       <use xlink:href="#DejaVuSans-31"/>
       <use xlink:href="#DejaVuSans-35" x="63.623047"/>
       <use xlink:href="#DejaVuSans-30" x="127.246094"/>
      </g>
     </g>
    </g>
    <g id="xtick_8">
     <g id="line2d_8">
      <g>
       <use xlink:href="#mfe156b52b9" x="356.650347" y="307.584" style="stroke: #000000; stroke-width: 0.8"/>
      </g>
     </g>
     <g id="text_8">
      <!-- 175 -->
      <g transform="translate(347.106597 322.182437)scale(0.1 -0.1)">
       <use xlink:href="#DejaVuSans-31"/>
       <use xlink:href="#DejaVuSans-37" x="63.623047"/>
       <use xlink:href="#DejaVuSans-35" x="127.246094"/>
      </g>
     </g>
    </g>
    <g id="xtick_9">
     <g id="line2d_9">
      <g>
       <use xlink:href="#mfe156b52b9" x="398.487273" y="307.584" style="stroke: #000000; stroke-width: 0.8"/>
      </g>
     </g>
     <g id="text_9">
      <!-- 200 -->
      <g transform="translate(388.943523 322.182437)scale(0.1 -0.1)">
       <use xlink:href="#DejaVuSans-32"/>
       <use xlink:href="#DejaVuSans-30" x="63.623047"/>
       <use xlink:href="#DejaVuSans-30" x="127.246094"/>
      </g>
     </g>
    </g>
    <g id="text_10">
     <!-- Lambda Rate (pkt/s) -->
     <g transform="translate(185.16625 335.860562)scale(0.1 -0.1)">
      <defs>
       <path id="DejaVuSans-4c" d="M 628 4666 
L 1259 4666 
L 1259 531 
L 3531 531 
L 3531 0 
L 628 0 
L 628 4666 
z
" transform="scale(0.015625)"/>
       <path id="DejaVuSans-61" d="M 2194 1759 
Q 1497 1759 1228 1600 
Q 959 1441 959 1056 
Q 959 750 1161 570 
Q 1363 391 1709 391 
Q 2188 391 2477 730 
Q 2766 1069 2766 1631 
L 2766 1759 
L 2194 1759 
z
M 3341 1997 
L 3341 0 
L 2766 0 
L 2766 531 
Q 2569 213 2275 61 
Q 1981 -91 1556 -91 
Q 1019 -91 701 211 
Q 384 513 384 1019 
Q 384 1609 779 1909 
Q 1175 2209 1959 2209 
L 2766 2209 
L 2766 2266 
Q 2766 2663 2505 2880 
Q 2244 3097 1772 3097 
Q 1472 3097 1187 3025 
Q 903 2953 641 2809 
L 641 3341 
Q 956 3463 1253 3523 
Q 1550 3584 1831 3584 
Q 2591 3584 2966 3190 
Q 3341 2797 3341 1997 
z
" transform="scale(0.015625)"/>
       <path id="DejaVuSans-6d" d="M 3328 2828 
Q 3544 3216 3844 3400 
Q 4144 3584 4550 3584 
Q 5097 3584 5394 3201 
Q 5691 2819 5691 2113 
L 5691 0 
L 5113 0 
L 5113 2094 
Q 5113 2597 4934 2840 
Q 4756 3084 4391 3084 
Q 3944 3084 3684 2787 
Q 3425 2491 3425 1978 
L 3425 0 
L 2847 0 
L 2847 2094 
Q 2847 2600 2669 2842 
Q 2491 3084 2119 3084 
Q 1678 3084 1418 2786 
Q 1159 2488 1159 1978 
L 1159 0 
L 581 0 
L 581 3500 
L 1159 3500 
L 1159 2956 
Q 1356 3278 1631 3431 
Q 1906 3584 2284 3584 
Q 2666 3584 2933 3390 
Q 3200 3197 3328 2828 
z
" transform="scale(0.015625)"/>
       <path id="DejaVuSans-62" d="M 3116 1747 
Q 3116 2381 2855 2742 
Q 2594 3103 2138 3103 
Q 1681 3103 1420 2742 
Q 1159 2381 1159 1747 
Q 1159 1113 1420 752 
Q 1681 391 2138 391 
Q 2594 391 2855 752 
Q 3116 1113 3116 1747 
z
M 1159 2969 
Q 1341 3281 1617 3432 
Q 1894 3584 2278 3584 
Q 2916 3584 3314 3078 
Q 3713 2572 3713 1747 
Q 3713 922 3314 415 
Q 2916 -91 2278 -91 
Q 1894 -91 1617 61 
Q 1341 213 1159 525 
L 1159 0 
L 581 0 
L 581 4863 
L 1159 4863 
L 1159 2969 
z
" transform="scale(0.015625)"/>
       <path id="DejaVuSans-64" d="M 2906 2969 
L 2906 4863 
L 3481 4863 
L 3481 0 
L 2906 0 
L 2906 525 
Q 2725 213 2448 61 
Q 2172 -91 1784 -91 
Q 1150 -91 751 415 
Q 353 922 353 1747 
Q 353 2572 751 3078 
Q 1150 3584 1784 3584 
Q 2172 3584 2448 3432 
Q 2725 3281 2906 2969 
z
M 947 1747 
Q 947 1113 1208 752 
Q 1469 391 1925 391 
Q 2381 391 2643 752 
Q 2906 1113 2906 1747 
Q 2906 2381 2643 2742 
Q 2381 3103 1925 3103 
Q 1469 3103 1208 2742 
Q 947 2381 947 1747 
z
" transform="scale(0.015625)"/>
       <path id="DejaVuSans-20" transform="scale(0.015625)"/>
       <path id="DejaVuSans-52" d="M 2841 2188 
Q 3044 2119 3236 1894 
Q 3428 1669 3622 1275 
L 4263 0 
L 3584 0 
L 2988 1197 
Q 2756 1666 2539 1819 
Q 2322 1972 1947 1972 
L 1259 1972 
L 1259 0 
L 628 0 
L 628 4666 
L 2053 4666 
Q 2853 4666 3247 4331 
Q 3641 3997 3641 3322 
Q 3641 2881 3436 2590 
Q 3231 2300 2841 2188 
z
M 1259 4147 
L 1259 2491 
L 2053 2491 
Q 2509 2491 2742 2702 
Q 2975 2913 2975 3322 
Q 2975 3731 2742 3939 
Q 2509 4147 2053 4147 
L 1259 4147 
z
" transform="scale(0.015625)"/>
       <path id="DejaVuSans-74" d="M 1172 4494 
L 1172 3500 
L 2356 3500 
L 2356 3053 
L 1172 3053 
L 1172 1153 
Q 1172 725 1289 603 
Q 1406 481 1766 481 
L 2356 481 
L 2356 0 
L 1766 0 
Q 1100 0 847 248 
Q 594 497 594 1153 
L 594 3053 
L 172 3053 
L 172 3500 
L 594 3500 
L 594 4494 
L 1172 4494 
z
" transform="scale(0.015625)"/>
       <path id="DejaVuSans-65" d="M 3597 1894 
L 3597 1613 
L 953 1613 
Q 991 1019 1311 708 
Q 1631 397 2203 397 
Q 2534 397 2845 478 
Q 3156 559 3463 722 
L 3463 178 
Q 3153 47 2828 -22 
Q 2503 -91 2169 -91 
Q 1331 -91 842 396 
Q 353 884 353 1716 
Q 353 2575 817 3079 
Q 1281 3584 2069 3584 
Q 2775 3584 3186 3129 
Q 3597 2675 3597 1894 
z
M 3022 2063 
Q 3016 2534 2758 2815 
Q 2500 3097 2075 3097 
Q 1594 3097 1305 2825 
Q 1016 2553 972 2059 
L 3022 2063 
z
" transform="scale(0.015625)"/>
       <path id="DejaVuSans-28" d="M 1984 4856 
Q 1566 4138 1362 3434 
Q 1159 2731 1159 2009 
Q 1159 1288 1364 580 
Q 1569 -128 1984 -844 
L 1484 -844 
Q 1016 -109 783 600 
Q 550 1309 550 2009 
Q 550 2706 781 3412 
Q 1013 4119 1484 4856 
L 1984 4856 
z
" transform="scale(0.015625)"/>
       <path id="DejaVuSans-70" d="M 1159 525 
L 1159 -1331 
L 581 -1331 
L 581 3500 
L 1159 3500 
L 1159 2969 
Q 1341 3281 1617 3432 
Q 1894 3584 2278 3584 
Q 2916 3584 3314 3078 
Q 3713 2572 3713 1747 
Q 3713 922 3314 415 
Q 2916 -91 2278 -91 
Q 1894 -91 1617 61 
Q 1341 213 1159 525 
z
M 3116 1747 
Q 3116 2381 2855 2742 
Q 2594 3103 2138 3103 
Q 1681 3103 1420 2742 
Q 1159 2381 1159 1747 
Q 1159 1113 1420 752 
Q 1681 391 2138 391 
Q 2594 391 2855 752 
Q 3116 1113 3116 1747 
z
" transform="scale(0.015625)"/>
       <path id="DejaVuSans-6b" d="M 581 4863 
L 1159 4863 
L 1159 1991 
L 2875 3500 
L 3609 3500 
L 1753 1863 
L 3688 0 
L 2938 0 
L 1159 1709 
L 1159 0 
L 581 0 
L 581 4863 
z
" transform="scale(0.015625)"/>
       <path id="DejaVuSans-2f" d="M 1625 4666 
L 2156 4666 
L 531 -594 
L 0 -594 
L 1625 4666 
z
" transform="scale(0.015625)"/>
       <path id="DejaVuSans-73" d="M 2834 3397 
L 2834 2853 
Q 2591 2978 2328 3040 
Q 2066 3103 1784 3103 
Q 1356 3103 1142 2972 
Q 928 2841 928 2578 
Q 928 2378 1081 2264 
Q 1234 2150 1697 2047 
L 1894 2003 
Q 2506 1872 2764 1633 
Q 3022 1394 3022 966 
Q 3022 478 2636 193 
Q 2250 -91 1575 -91 
Q 1294 -91 989 -36 
Q 684 19 347 128 
L 347 722 
Q 666 556 975 473 
Q 1284 391 1588 391 
Q 1994 391 2212 530 
Q 2431 669 2431 922 
Q 2431 1156 2273 1281 
Q 2116 1406 1581 1522 
L 1381 1569 
Q 847 1681 609 1914 
Q 372 2147 372 2553 
Q 372 3047 722 3315 
Q 1072 3584 1716 3584 
Q 2034 3584 2315 3537 
Q 2597 3491 2834 3397 
z
" transform="scale(0.015625)"/>
       <path id="DejaVuSans-29" d="M 513 4856 
L 1013 4856 
Q 1481 4119 1714 3412 
Q 1947 2706 1947 2009 
Q 1947 1309 1714 600 
Q 1481 -109 1013 -844 
L 513 -844 
Q 928 -128 1133 580 
Q 1338 1288 1338 2009 
Q 1338 2731 1133 3434 
Q 928 4138 513 4856 
z
" transform="scale(0.015625)"/>
      </defs>
      <use xlink:href="#DejaVuSans-4c"/>
      <use xlink:href="#DejaVuSans-61" x="55.712891"/>
      <use xlink:href="#DejaVuSans-6d" x="116.992188"/>
      <use xlink:href="#DejaVuSans-62" x="214.404297"/>
      <use xlink:href="#DejaVuSans-64" x="277.880859"/>
      <use xlink:href="#DejaVuSans-61" x="341.357422"/>
      <use xlink:href="#DejaVuSans-20" x="402.636719"/>
      <use xlink:href="#DejaVuSans-52" x="434.423828"/>
      <use xlink:href="#DejaVuSans-61" x="501.65625"/>
      <use xlink:href="#DejaVuSans-74" x="562.935547"/>
      <use xlink:href="#DejaVuSans-65" x="602.144531"/>
      <use xlink:href="#DejaVuSans-20" x="663.667969"/>
      <use xlink:href="#DejaVuSans-28" x="695.455078"/>
      <use xlink:href="#DejaVuSans-70" x="734.46875"/>
      <use xlink:href="#DejaVuSans-6b" x="797.945312"/>
      <use xlink:href="#DejaVuSans-74" x="855.855469"/>
      <use xlink:href="#DejaVuSans-2f" x="895.064453"/>
      <use xlink:href="#DejaVuSans-73" x="928.755859"/>
      <use xlink:href="#DejaVuSans-29" x="980.855469"/>
     </g>
    </g>
   </g>
   <g id="matplotlib.axis_2">
    <g id="ytick_1">
     <g id="line2d_10">
      <defs>
       <path id="m5183beea82" d="M 0 0 
L -3.5 0 
" style="stroke: #000000; stroke-width: 0.8"/>
      </defs>
      <g>
       <use xlink:href="#m5183beea82" x="57.6" y="297.321707" style="stroke: #000000; stroke-width: 0.8"/>
      </g>
     </g>
     <g id="text_11">
      <!-- 0.060 -->
      <g transform="translate(21.971875 301.120926)scale(0.1 -0.1)">
       <defs>
        <path id="DejaVuSans-2e" d="M 684 794 
L 1344 794 
L 1344 0 
L 684 0 
L 684 794 
z
" transform="scale(0.015625)"/>
        <path id="DejaVuSans-36" d="M 2113 2584 
Q 1688 2584 1439 2293 
Q 1191 2003 1191 1497 
Q 1191 994 1439 701 
Q 1688 409 2113 409 
Q 2538 409 2786 701 
Q 3034 994 3034 1497 
Q 3034 2003 2786 2293 
Q 2538 2584 2113 2584 
z
M 3366 4563 
L 3366 3988 
Q 3128 4100 2886 4159 
Q 2644 4219 2406 4219 
Q 1781 4219 1451 3797 
Q 1122 3375 1075 2522 
Q 1259 2794 1537 2939 
Q 1816 3084 2150 3084 
Q 2853 3084 3261 2657 
Q 3669 2231 3669 1497 
Q 3669 778 3244 343 
Q 2819 -91 2113 -91 
Q 1303 -91 875 529 
Q 447 1150 447 2328 
Q 447 3434 972 4092 
Q 1497 4750 2381 4750 
Q 2619 4750 2861 4703 
Q 3103 4656 3366 4563 
z
" transform="scale(0.015625)"/>
       </defs>
       <use xlink:href="#DejaVuSans-30"/>
       <use xlink:href="#DejaVuSans-2e" x="63.623047"/>
       <use xlink:href="#DejaVuSans-30" x="95.410156"/>
       <use xlink:href="#DejaVuSans-36" x="159.033203"/>
       <use xlink:href="#DejaVuSans-30" x="222.65625"/>
      </g>
     </g>
    </g>
    <g id="ytick_2">
     <g id="line2d_11">
      <g>
       <use xlink:href="#m5183beea82" x="57.6" y="238.549052" style="stroke: #000000; stroke-width: 0.8"/>
      </g>
     </g>
     <g id="text_12">
      <!-- 0.065 -->
      <g transform="translate(21.971875 242.348271)scale(0.1 -0.1)">
       <use xlink:href="#DejaVuSans-30"/>
       <use xlink:href="#DejaVuSans-2e" x="63.623047"/>
       <use xlink:href="#DejaVuSans-30" x="95.410156"/>
       <use xlink:href="#DejaVuSans-36" x="159.033203"/>
       <use xlink:href="#DejaVuSans-35" x="222.65625"/>
      </g>
     </g>
    </g>
    <g id="ytick_3">
     <g id="line2d_12">
      <g>
       <use xlink:href="#m5183beea82" x="57.6" y="179.776398" style="stroke: #000000; stroke-width: 0.8"/>
      </g>
     </g>
     <g id="text_13">
      <!-- 0.070 -->
      <g transform="translate(21.971875 183.575617)scale(0.1 -0.1)">
       <use xlink:href="#DejaVuSans-30"/>
       <use xlink:href="#DejaVuSans-2e" x="63.623047"/>
       <use xlink:href="#DejaVuSans-30" x="95.410156"/>
       <use xlink:href="#DejaVuSans-37" x="159.033203"/>
       <use xlink:href="#DejaVuSans-30" x="222.65625"/>
      </g>
     </g>
    </g>
    <g id="ytick_4">
     <g id="line2d_13">
      <g>
       <use xlink:href="#m5183beea82" x="57.6" y="121.003744" style="stroke: #000000; stroke-width: 0.8"/>
      </g>
     </g>
     <g id="text_14">
      <!-- 0.075 -->
      <g transform="translate(21.971875 124.802962)scale(0.1 -0.1)">
       <use xlink:href="#DejaVuSans-30"/>
       <use xlink:href="#DejaVuSans-2e" x="63.623047"/>
       <use xlink:href="#DejaVuSans-30" x="95.410156"/>
       <use xlink:href="#DejaVuSans-37" x="159.033203"/>
       <use xlink:href="#DejaVuSans-35" x="222.65625"/>
      </g>
     </g>
    </g>
    <g id="ytick_5">
     <g id="line2d_14">
      <g>
       <use xlink:href="#m5183beea82" x="57.6" y="62.231089" style="stroke: #000000; stroke-width: 0.8"/>
      </g>
     </g>
     <g id="text_15">
      <!-- 0.080 -->
      <g transform="translate(21.971875 66.030308)scale(0.1 -0.1)">
       <defs>
        <path id="DejaVuSans-38" d="M 2034 2216 
Q 1584 2216 1326 1975 
Q 1069 1734 1069 1313 
Q 1069 891 1326 650 
Q 1584 409 2034 409 
Q 2484 409 2743 651 
Q 3003 894 3003 1313 
Q 3003 1734 2745 1975 
Q 2488 2216 2034 2216 
z
M 1403 2484 
Q 997 2584 770 2862 
Q 544 3141 544 3541 
Q 544 4100 942 4425 
Q 1341 4750 2034 4750 
Q 2731 4750 3128 4425 
Q 3525 4100 3525 3541 
Q 3525 3141 3298 2862 
Q 3072 2584 2669 2484 
Q 3125 2378 3379 2068 
Q 3634 1759 3634 1313 
Q 3634 634 3220 271 
Q 2806 -91 2034 -91 
Q 1263 -91 848 271 
Q 434 634 434 1313 
Q 434 1759 690 2068 
Q 947 2378 1403 2484 
z
M 1172 3481 
Q 1172 3119 1398 2916 
Q 1625 2713 2034 2713 
Q 2441 2713 2670 2916 
Q 2900 3119 2900 3481 
Q 2900 3844 2670 4047 
Q 2441 4250 2034 4250 
Q 1625 4250 1398 4047 
Q 1172 3844 1172 3481 
z
" transform="scale(0.015625)"/>
       </defs>
       <use xlink:href="#DejaVuSans-30"/>
       <use xlink:href="#DejaVuSans-2e" x="63.623047"/>
       <use xlink:href="#DejaVuSans-30" x="95.410156"/>
       <use xlink:href="#DejaVuSans-38" x="159.033203"/>
       <use xlink:href="#DejaVuSans-30" x="222.65625"/>
      </g>
     </g>
    </g>
    <g id="text_16">
     <!-- end-to-end delay (s) -->
     <g transform="translate(15.892187 225.435812)rotate(-90)scale(0.1 -0.1)">
      <defs>
       <path id="DejaVuSans-6e" d="M 3513 2113 
L 3513 0 
L 2938 0 
L 2938 2094 
Q 2938 2591 2744 2837 
Q 2550 3084 2163 3084 
Q 1697 3084 1428 2787 
Q 1159 2491 1159 1978 
L 1159 0 
L 581 0 
L 581 3500 
L 1159 3500 
L 1159 2956 
Q 1366 3272 1645 3428 
Q 1925 3584 2291 3584 
Q 2894 3584 3203 3211 
Q 3513 2838 3513 2113 
z
" transform="scale(0.015625)"/>
       <path id="DejaVuSans-2d" d="M 313 2009 
L 1997 2009 
L 1997 1497 
L 313 1497 
L 313 2009 
z
" transform="scale(0.015625)"/>
       <path id="DejaVuSans-6f" d="M 1959 3097 
Q 1497 3097 1228 2736 
Q 959 2375 959 1747 
Q 959 1119 1226 758 
Q 1494 397 1959 397 
Q 2419 397 2687 759 
Q 2956 1122 2956 1747 
Q 2956 2369 2687 2733 
Q 2419 3097 1959 3097 
z
M 1959 3584 
Q 2709 3584 3137 3096 
Q 3566 2609 3566 1747 
Q 3566 888 3137 398 
Q 2709 -91 1959 -91 
Q 1206 -91 779 398 
Q 353 888 353 1747 
Q 353 2609 779 3096 
Q 1206 3584 1959 3584 
z
" transform="scale(0.015625)"/>
       <path id="DejaVuSans-6c" d="M 603 4863 
L 1178 4863 
L 1178 0 
L 603 0 
L 603 4863 
z
" transform="scale(0.015625)"/>
       <path id="DejaVuSans-79" d="M 2059 -325 
Q 1816 -950 1584 -1140 
Q 1353 -1331 966 -1331 
L 506 -1331 
L 506 -850 
L 844 -850 
Q 1081 -850 1212 -737 
Q 1344 -625 1503 -206 
L 1606 56 
L 191 3500 
L 800 3500 
L 1894 763 
L 2988 3500 
L 3597 3500 
L 2059 -325 
z
" transform="scale(0.015625)"/>
      </defs>
      <use xlink:href="#DejaVuSans-65"/>
      <use xlink:href="#DejaVuSans-6e" x="61.523438"/>
      <use xlink:href="#DejaVuSans-64" x="124.902344"/>
      <use xlink:href="#DejaVuSans-2d" x="188.378906"/>
      <use xlink:href="#DejaVuSans-74" x="224.462891"/>
      <use xlink:href="#DejaVuSans-6f" x="263.671875"/>
      <use xlink:href="#DejaVuSans-2d" x="326.728516"/>
      <use xlink:href="#DejaVuSans-65" x="362.8125"/>
      <use xlink:href="#DejaVuSans-6e" x="424.335938"/>
      <use xlink:href="#DejaVuSans-64" x="487.714844"/>
      <use xlink:href="#DejaVuSans-20" x="551.191406"/>
      <use xlink:href="#DejaVuSans-64" x="582.978516"/>
      <use xlink:href="#DejaVuSans-65" x="646.455078"/>
      <use xlink:href="#DejaVuSans-6c" x="707.978516"/>
      <use xlink:href="#DejaVuSans-61" x="735.761719"/>
      <use xlink:href="#DejaVuSans-79" x="797.041016"/>
      <use xlink:href="#DejaVuSans-20" x="856.220703"/>
      <use xlink:href="#DejaVuSans-28" x="888.007812"/>
      <use xlink:href="#DejaVuSans-73" x="927.021484"/>
      <use xlink:href="#DejaVuSans-29" x="979.121094"/>
     </g>
    </g>
   </g>
   <g id="line2d_15">
    <path d="M 73.832727 54.696435 
L 77.179681 54.94328 
L 80.526635 54.261517 
L 83.87359 54.026427 
L 87.220544 55.683816 
L 90.567498 53.568 
L 93.914452 56.471369 
L 97.261406 53.767827 
L 100.60836 54.026427 
L 103.955314 54.531872 
L 107.302268 54.625908 
L 110.649222 54.155727 
L 113.996176 54.355554 
L 117.34313 54.379063 
L 120.690084 54.484853 
L 124.037038 54.32029 
L 127.383993 54.567135 
L 130.730947 54.567135 
L 134.077901 54.81398 
L 137.424855 56.871023 
L 140.771809 54.390817 
L 144.118763 54.567135 
L 147.465717 54.637662 
L 150.812671 54.731699 
L 154.159625 56.694705 
L 157.506579 54.849244 
L 160.853533 58.516657 
L 164.200487 54.837489 
L 167.547441 54.790471 
L 170.894396 55.025562 
L 174.24135 54.555381 
L 177.588304 54.708189 
L 180.935258 54.778717 
L 184.282212 54.919771 
L 187.629166 54.790471 
L 190.97612 55.178371 
L 194.323074 55.225389 
L 197.670028 55.519252 
L 201.016982 54.614153 
L 204.363936 54.508362 
L 207.71089 54.649417 
L 211.057844 54.81398 
L 214.404799 55.119598 
L 217.751753 56.036451 
L 221.098707 55.95417 
L 224.445661 55.777852 
L 227.792615 56.201015 
L 231.139569 56.306806 
L 234.486523 56.483124 
L 237.833477 56.483124 
L 241.180431 56.330315 
L 244.527385 56.283297 
L 247.874339 56.071715 
L 251.221293 56.18926 
L 254.568247 56.31856 
L 257.915201 56.177506 
L 261.262156 56.436106 
L 264.60911 55.801361 
L 267.956064 55.660306 
L 271.303018 56.106979 
L 274.649972 55.801361 
L 277.996926 55.813115 
L 281.34388 55.965924 
L 284.690834 55.918906 
L 288.037788 55.989433 
L 291.384742 59.997728 
L 294.731696 56.729969 
L 298.07865 56.001188 
L 301.425604 55.95417 
L 304.772559 56.130488 
L 308.119513 56.118733 
L 311.466467 56.436106 
L 314.813421 56.506633 
L 318.160375 56.494878 
L 321.507329 56.70646 
L 324.854283 56.682951 
L 328.201237 56.788741 
L 331.548191 56.588914 
L 334.895145 56.635933 
L 338.242099 56.57716 
L 341.589053 56.541896 
L 344.936007 56.400842 
L 348.282962 56.565405 
L 351.629916 56.494878 
L 354.97687 56.565405 
L 358.323824 56.530142 
L 361.670778 56.788741 
L 365.017732 58.058231 
L 368.364686 57.082605 
L 371.71164 57.411732 
L 375.058594 57.094359 
L 378.405548 57.294186 
L 381.752502 57.082605 
L 385.099456 57.176641 
L 388.44641 57.341204 
L 391.793365 57.188396 
L 395.140319 57.529277 
L 398.487273 57.341204 
" clip-path="url(#p12114a806d)" style="fill: none; stroke: #1f77b4; stroke-width: 1.5; stroke-linecap: square"/>
   </g>
   <g id="line2d_16">
    <path d="M 73.832727 54.108708 
L 77.179681 54.931526 
L 80.526635 54.755208 
L 83.87359 54.202745 
L 87.220544 55.389952 
L 90.567498 53.603264 
L 93.914452 56.588914 
L 97.261406 53.920636 
L 100.60836 53.803091 
L 103.955314 54.531872 
L 107.302268 54.825735 
L 110.649222 54.202745 
L 113.996176 54.437835 
L 117.34313 54.379063 
L 120.690084 54.602399 
L 124.037038 54.543626 
L 127.383993 54.614153 
L 130.730947 54.567135 
L 134.077901 54.790471 
L 137.424855 56.882778 
L 140.771809 54.567135 
L 144.118763 54.273272 
L 147.465717 54.531872 
L 150.812671 54.860998 
L 154.159625 56.624178 
L 157.506579 54.978544 
L 160.853533 58.493148 
L 164.200487 54.602399 
L 167.547441 54.990298 
L 170.894396 54.990298 
L 174.24135 54.57889 
L 177.588304 54.567135 
L 180.935258 54.766962 
L 184.282212 54.849244 
L 187.629166 54.81398 
L 190.97612 54.990298 
L 194.323074 55.248898 
L 197.670028 55.472234 
L 201.016982 54.696435 
L 204.363936 54.672926 
L 207.71089 54.81398 
L 211.057844 54.908017 
L 214.404799 55.119598 
L 217.751753 56.153997 
L 221.098707 55.82487 
L 224.445661 55.777852 
L 227.792615 56.036451 
L 231.139569 56.177506 
L 234.486523 56.518387 
L 237.833477 56.201015 
L 241.180431 56.248033 
L 244.527385 56.142242 
L 247.874339 56.118733 
L 251.221293 56.012942 
L 254.568247 56.177506 
L 257.915201 56.106979 
L 261.262156 56.353824 
L 264.60911 55.625043 
L 267.956064 55.625043 
L 271.303018 55.942415 
L 274.649972 55.907152 
L 277.996926 55.848379 
L 281.34388 55.813115 
L 284.690834 55.895397 
L 288.037788 56.224524 
L 291.384742 60.009483 
L 294.731696 56.659442 
L 298.07865 56.012942 
L 301.425604 56.059961 
L 304.772559 56.106979 
L 308.119513 56.142242 
L 311.466467 56.377333 
L 314.813421 56.389087 
L 318.160375 56.682951 
L 321.507329 56.600669 
L 324.854283 56.635933 
L 328.201237 56.647687 
L 331.548191 56.553651 
L 334.895145 56.530142 
L 338.242099 56.57716 
L 341.589053 56.57716 
L 344.936007 56.31856 
L 348.282962 56.471369 
L 351.629916 56.541896 
L 354.97687 56.518387 
L 358.323824 56.506633 
L 361.670778 56.753478 
L 365.017732 57.975949 
L 368.364686 57.129623 
L 371.71164 57.435241 
L 375.058594 57.035587 
L 378.405548 57.223659 
L 381.752502 57.129623 
L 385.099456 57.270677 
L 388.44641 57.399977 
L 391.793365 57.20015 
L 395.140319 57.552786 
L 398.487273 57.282432 
" clip-path="url(#p12114a806d)" style="fill: none; stroke: #ff7f0e; stroke-width: 1.5; stroke-linecap: square"/>
   </g>
   <g id="line2d_17">
    <path d="M 73.832727 291.550232 
L 77.179681 291.72655 
L 80.526635 291.36216 
L 83.87359 290.809697 
L 87.220544 291.36216 
L 90.567498 290.468815 
L 93.914452 292.784458 
L 97.261406 290.527588 
L 100.60836 290.598115 
L 103.955314 291.23286 
L 107.302268 291.138824 
L 110.649222 291.138824 
L 113.996176 290.927242 
L 117.34313 290.986015 
L 120.690084 291.056542 
L 124.037038 291.197596 
L 127.383993 291.209351 
L 130.730947 291.291632 
L 134.077901 291.420932 
L 137.424855 292.902003 
L 140.771809 290.997769 
L 144.118763 291.138824 
L 147.465717 291.127069 
L 150.812671 291.221105 
L 154.159625 292.807967 
L 157.506579 291.561987 
L 160.853533 294.453601 
L 164.200487 291.244614 
L 167.547441 291.385669 
L 170.894396 291.49146 
L 174.24135 291.23286 
L 177.588304 291.10356 
L 180.935258 291.338651 
L 184.282212 291.409178 
L 187.629166 291.46795 
L 190.97612 291.561987 
L 194.323074 291.59725 
L 197.670028 291.808832 
L 201.016982 291.127069 
L 204.363936 291.056542 
L 207.71089 291.221105 
L 211.057844 291.36216 
L 214.404799 291.514969 
L 217.751753 292.255504 
L 221.098707 292.126204 
L 224.445661 292.11445 
L 227.792615 292.34954 
L 231.139569 292.302522 
L 234.486523 292.420067 
L 237.833477 292.596385 
L 241.180431 292.47884 
L 244.527385 292.420067 
L 247.874339 292.373049 
L 251.221293 292.396558 
L 254.568247 292.514104 
L 257.915201 292.337786 
L 261.262156 292.619894 
L 264.60911 292.196731 
L 267.956064 291.926377 
L 271.303018 292.184977 
L 274.649972 292.090941 
L 277.996926 292.079186 
L 281.34388 292.184977 
L 284.690834 292.243749 
L 288.037788 292.361295 
L 291.384742 295.440982 
L 294.731696 292.913758 
L 298.07865 292.326031 
L 301.425604 292.34954 
L 304.772559 292.408313 
L 308.119513 292.549367 
L 311.466467 292.690422 
L 314.813421 292.619894 
L 318.160375 292.643404 
L 321.507329 292.819721 
L 324.854283 292.60814 
L 328.201237 292.760949 
L 331.548191 292.796212 
L 334.895145 292.678667 
L 338.242099 292.819721 
L 341.589053 292.713931 
L 344.936007 292.678667 
L 348.282962 292.702176 
L 351.629916 292.760949 
L 354.97687 292.772703 
L 358.323824 292.725685 
L 361.670778 292.913758 
L 365.017732 293.85412 
L 368.364686 293.125339 
L 371.71164 293.442712 
L 375.058594 293.125339 
L 378.405548 293.242885 
L 381.752502 293.090076 
L 385.099456 293.23113 
L 388.44641 293.313412 
L 391.793365 293.266394 
L 395.140319 293.430957 
L 398.487273 293.207621 
" clip-path="url(#p12114a806d)" style="fill: none; stroke: #2ca02c; stroke-width: 1.5; stroke-linecap: square"/>
   </g>
   <g id="line2d_18">
    <path d="M 73.832727 291.338651 
L 77.179681 291.656023 
L 80.526635 291.420932 
L 83.87359 290.856715 
L 87.220544 292.020413 
L 90.567498 290.539343 
L 93.914452 292.572876 
L 97.261406 290.551097 
L 100.60836 290.73917 
L 103.955314 291.115315 
L 107.302268 291.150578 
L 110.649222 290.962506 
L 113.996176 290.986015 
L 117.34313 290.903733 
L 120.690084 291.009524 
L 124.037038 291.056542 
L 127.383993 291.221105 
L 130.730947 291.162333 
L 134.077901 291.373914 
L 137.424855 292.690422 
L 140.771809 290.821451 
L 144.118763 291.209351 
L 147.465717 291.044787 
L 150.812671 291.244614 
L 154.159625 292.760949 
L 157.506579 291.49146 
L 160.853533 294.359565 
L 164.200487 291.268123 
L 167.547441 291.315142 
L 170.894396 291.385669 
L 174.24135 290.997769 
L 177.588304 291.150578 
L 180.935258 291.174087 
L 184.282212 291.326896 
L 187.629166 291.256369 
L 190.97612 291.46795 
L 194.323074 291.632514 
L 197.670028 291.926377 
L 201.016982 291.115315 
L 204.363936 291.115315 
L 207.71089 291.244614 
L 211.057844 291.397423 
L 214.404799 291.503214 
L 217.751753 292.326031 
L 221.098707 292.173222 
L 224.445661 291.949886 
L 227.792615 292.290768 
L 231.139569 292.302522 
L 234.486523 292.455331 
L 237.833477 292.502349 
L 241.180431 292.584631 
L 244.527385 292.396558 
L 247.874339 292.408313 
L 251.221293 292.302522 
L 254.568247 292.455331 
L 257.915201 292.443577 
L 261.262156 292.631649 
L 264.60911 292.020413 
L 267.956064 292.102695 
L 271.303018 292.326031 
L 274.649972 292.102695 
L 277.996926 292.126204 
L 281.34388 292.149713 
L 284.690834 292.243749 
L 288.037788 292.443577 
L 291.384742 295.488 
L 294.731696 292.913758 
L 298.07865 292.267259 
L 301.425604 292.290768 
L 304.772559 292.420067 
L 308.119513 292.47884 
L 311.466467 292.584631 
L 314.813421 292.584631 
L 318.160375 292.690422 
L 321.507329 292.760949 
L 324.854283 292.902003 
L 328.201237 292.725685 
L 331.548191 292.819721 
L 334.895145 292.619894 
L 338.242099 292.73744 
L 341.589053 292.784458 
L 344.936007 292.666913 
L 348.282962 292.690422 
L 351.629916 292.713931 
L 354.97687 292.749194 
L 358.323824 292.784458 
L 361.670778 292.902003 
L 365.017732 293.889384 
L 368.364686 293.195866 
L 371.71164 293.325166 
L 375.058594 293.148848 
L 378.405548 293.301657 
L 381.752502 293.172357 
L 385.099456 293.23113 
L 388.44641 293.36043 
L 391.793365 293.289903 
L 395.140319 293.466221 
L 398.487273 293.301657 
" clip-path="url(#p12114a806d)" style="fill: none; stroke: #d62728; stroke-width: 1.5; stroke-linecap: square"/>
   </g>
   <g id="line2d_19">
    <path d="M 73.832727 180.234825 
L 77.179681 176.884783 
L 80.526635 175.96793 
L 83.87359 174.780722 
L 87.220544 171.430681 
L 90.567498 172.488589 
L 93.914452 175.027568 
L 97.261406 172.488589 
L 100.60836 171.136818 
L 103.955314 173.182106 
L 107.302268 175.250904 
L 110.649222 172.888243 
L 113.996176 173.511233 
L 117.34313 170.619618 
L 120.690084 173.170352 
L 124.037038 173.487724 
L 127.383993 174.075451 
L 130.730947 173.558251 
L 134.077901 173.58176 
L 137.424855 175.321431 
L 140.771809 172.559116 
L 144.118763 172.194726 
L 147.465717 173.664042 
L 150.812671 174.09896 
L 154.159625 176.050212 
L 157.506579 174.110714 
L 160.853533 176.59092 
L 164.200487 173.793342 
L 167.547441 173.805096 
L 170.894396 173.252633 
L 174.24135 173.464215 
L 177.588304 173.652287 
L 180.935258 173.146843 
L 184.282212 173.511233 
L 187.629166 173.041052 
L 190.97612 174.698441 
L 194.323074 173.816851 
L 197.670028 173.664042 
L 201.016982 172.794207 
L 204.363936 173.005788 
L 207.71089 173.605269 
L 211.057844 173.734569 
L 214.404799 173.45246 
L 217.751753 173.805096 
L 221.098707 173.84036 
L 224.445661 174.533877 
L 227.792615 174.404577 
L 231.139569 174.240014 
L 234.486523 174.569141 
L 237.833477 174.898268 
L 241.180431 175.250904 
L 244.527385 175.415467 
L 247.874339 174.275278 
L 251.221293 174.122469 
L 254.568247 175.297922 
L 257.915201 173.96966 
L 261.262156 174.651423 
L 264.60911 174.345805 
L 267.956064 174.016678 
L 271.303018 175.168622 
L 274.649972 174.228259 
L 277.996926 172.770698 
L 281.34388 175.027568 
L 284.690834 174.698441 
L 288.037788 175.60354 
L 291.384742 177.496019 
L 294.731696 174.604404 
L 298.07865 172.182971 
L 301.425604 174.357559 
L 304.772559 175.121604 
L 308.119513 174.545632 
L 311.466467 174.874759 
L 314.813421 175.615294 
L 318.160375 173.193861 
L 321.507329 173.08807 
L 324.854283 173.534742 
L 328.201237 175.697576 
L 331.548191 173.617024 
L 334.895145 173.640533 
L 338.242099 176.931802 
L 341.589053 175.756348 
L 344.936007 174.651423 
L 348.282962 176.191266 
L 351.629916 173.781587 
L 354.97687 173.252633 
L 358.323824 175.321431 
L 361.670778 171.654017 
L 365.017732 173.076315 
L 368.364686 172.95877 
L 371.71164 176.743729 
L 375.058594 171.242609 
L 378.405548 179.623589 
L 381.752502 174.46335 
L 385.099456 179.364989 
L 388.44641 175.721085 
L 391.793365 179.270953 
L 395.140319 176.391093 
L 398.487273 175.732839 
" clip-path="url(#p12114a806d)" style="fill: none; stroke: #9467bd; stroke-width: 1.5; stroke-linecap: square"/>
   </g>
   <g id="line2d_20">
    <path d="M 73.832727 170.349264 
L 77.179681 166.18816 
L 80.526635 174.663177 
L 83.87359 171.94788 
L 87.220544 174.169487 
L 90.567498 173.017543 
L 93.914452 175.768103 
L 97.261406 174.604404 
L 100.60836 172.864734 
L 103.955314 172.817716 
L 107.302268 174.827741 
L 110.649222 173.758078 
L 113.996176 174.216505 
L 117.34313 170.584355 
L 120.690084 173.793342 
L 124.037038 173.899133 
L 127.383993 173.934396 
L 130.730947 172.241744 
L 134.077901 173.240879 
L 137.424855 174.933531 
L 140.771809 173.111579 
L 144.118763 174.063696 
L 147.465717 174.451596 
L 150.812671 173.805096 
L 154.159625 175.168622 
L 157.506579 173.240879 
L 160.853533 176.967065 
L 164.200487 174.122469 
L 167.547441 173.052806 
L 170.894396 173.58176 
L 174.24135 173.45246 
L 177.588304 173.229124 
L 180.935258 172.876488 
L 184.282212 173.34667 
L 187.629166 172.864734 
L 190.97612 173.734569 
L 194.323074 174.016678 
L 197.670028 173.45246 
L 201.016982 173.287897 
L 204.363936 173.863869 
L 207.71089 173.758078 
L 211.057844 173.440706 
L 214.404799 172.688416 
L 217.751753 174.992304 
L 221.098707 174.20475 
L 224.445661 173.734569 
L 227.792615 173.910887 
L 231.139569 175.309676 
L 234.486523 174.921777 
L 237.833477 174.839495 
L 241.180431 174.604404 
L 244.527385 174.263523 
L 247.874339 174.980549 
L 251.221293 174.968795 
L 254.568247 173.511233 
L 257.915201 174.040187 
L 261.262156 175.297922 
L 264.60911 175.438976 
L 267.956064 173.805096 
L 271.303018 175.203886 
L 274.649972 172.641398 
L 277.996926 173.934396 
L 281.34388 174.533877 
L 284.690834 173.45246 
L 288.037788 174.839495 
L 291.384742 178.894808 
L 294.731696 175.615294 
L 298.07865 175.627049 
L 301.425604 176.508638 
L 304.772559 174.945286 
L 308.119513 172.923507 
L 311.466467 174.898268 
L 314.813421 175.015813 
L 318.160375 174.839495 
L 321.507329 172.852979 
L 324.854283 173.393688 
L 328.201237 175.109849 
L 331.548191 173.146843 
L 334.895145 174.028432 
L 338.242099 174.228259 
L 341.589053 170.537337 
L 344.936007 173.370179 
L 348.282962 174.475105 
L 351.629916 174.145978 
L 354.97687 173.758078 
L 358.323824 173.323161 
L 361.670778 172.711925 
L 365.017732 174.428086 
L 368.364686 175.109849 
L 371.71164 171.853844 
L 375.058594 172.418062 
L 378.405548 173.34667 
L 381.752502 171.630508 
L 385.099456 175.826876 
L 388.44641 173.417197 
L 391.793365 178.342345 
L 395.140319 177.002329 
L 398.487273 176.156003 
" clip-path="url(#p12114a806d)" style="fill: none; stroke: #8c564b; stroke-width: 1.5; stroke-linecap: square"/>
   </g>
   <g id="patch_3">
    <path d="M 57.6 307.584 
L 57.6 41.472 
" style="fill: none; stroke: #000000; stroke-width: 0.8; stroke-linejoin: miter; stroke-linecap: square"/>
   </g>
   <g id="patch_4">
    <path d="M 414.72 307.584 
L 414.72 41.472 
" style="fill: none; stroke: #000000; stroke-width: 0.8; stroke-linejoin: miter; stroke-linecap: square"/>
   </g>
   <g id="patch_5">
    <path d="M 57.6 307.584 
L 414.72 307.584 
" style="fill: none; stroke: #000000; stroke-width: 0.8; stroke-linejoin: miter; stroke-linecap: square"/>
   </g>
   <g id="patch_6">
    <path d="M 57.6 41.472 
L 414.72 41.472 
" style="fill: none; stroke: #000000; stroke-width: 0.8; stroke-linejoin: miter; stroke-linecap: square"/>
   </g>
   <g id="legend_1">
    <g id="patch_7">
     <path d="M 350.32 138.097 
L 407.72 138.097 
Q 409.72 138.097 409.72 136.097 
L 409.72 48.472 
Q 409.72 46.472 407.72 46.472 
L 350.32 46.472 
Q 348.32 46.472 348.32 48.472 
L 348.32 136.097 
Q 348.32 138.097 350.32 138.097 
z
" style="fill: #ffffff; opacity: 0.8; stroke: #cccccc; stroke-linejoin: miter"/>
    </g>
    <g id="line2d_21">
     <path d="M 352.32 54.570438 
L 362.32 54.570438 
L 372.32 54.570438 
" style="fill: none; stroke: #1f77b4; stroke-width: 1.5; stroke-linecap: square"/>
    </g>
    <g id="text_17">
     <!-- h1h3 -->
     <g transform="translate(380.32 58.070438)scale(0.1 -0.1)">
      <defs>
       <path id="DejaVuSans-68" d="M 3513 2113 
L 3513 0 
L 2938 0 
L 2938 2094 
Q 2938 2591 2744 2837 
Q 2550 3084 2163 3084 
Q 1697 3084 1428 2787 
Q 1159 2491 1159 1978 
L 1159 0 
L 581 0 
L 581 4863 
L 1159 4863 
L 1159 2956 
Q 1366 3272 1645 3428 
Q 1925 3584 2291 3584 
Q 2894 3584 3203 3211 
Q 3513 2838 3513 2113 
z
" transform="scale(0.015625)"/>
       <path id="DejaVuSans-33" d="M 2597 2516 
Q 3050 2419 3304 2112 
Q 3559 1806 3559 1356 
Q 3559 666 3084 287 
Q 2609 -91 1734 -91 
Q 1441 -91 1130 -33 
Q 819 25 488 141 
L 488 750 
Q 750 597 1062 519 
Q 1375 441 1716 441 
Q 2309 441 2620 675 
Q 2931 909 2931 1356 
Q 2931 1769 2642 2001 
Q 2353 2234 1838 2234 
L 1294 2234 
L 1294 2753 
L 1863 2753 
Q 2328 2753 2575 2939 
Q 2822 3125 2822 3475 
Q 2822 3834 2567 4026 
Q 2313 4219 1838 4219 
Q 1578 4219 1281 4162 
Q 984 4106 628 3988 
L 628 4550 
Q 988 4650 1302 4700 
Q 1616 4750 1894 4750 
Q 2613 4750 3031 4423 
Q 3450 4097 3450 3541 
Q 3450 3153 3228 2886 
Q 3006 2619 2597 2516 
z
" transform="scale(0.015625)"/>
      </defs>
      <use xlink:href="#DejaVuSans-68"/>
      <use xlink:href="#DejaVuSans-31" x="63.378906"/>
      <use xlink:href="#DejaVuSans-68" x="127.001953"/>
      <use xlink:href="#DejaVuSans-33" x="190.380859"/>
     </g>
    </g>
    <g id="line2d_22">
     <path d="M 352.32 69.248563 
L 362.32 69.248563 
L 372.32 69.248563 
" style="fill: none; stroke: #ff7f0e; stroke-width: 1.5; stroke-linecap: square"/>
    </g>
    <g id="text_18">
     <!-- h1h4 -->
     <g transform="translate(380.32 72.748563)scale(0.1 -0.1)">
      <defs>
       <path id="DejaVuSans-34" d="M 2419 4116 
L 825 1625 
L 2419 1625 
L 2419 4116 
z
M 2253 4666 
L 3047 4666 
L 3047 1625 
L 3713 1625 
L 3713 1100 
L 3047 1100 
L 3047 0 
L 2419 0 
L 2419 1100 
L 313 1100 
L 313 1709 
L 2253 4666 
z
" transform="scale(0.015625)"/>
      </defs>
      <use xlink:href="#DejaVuSans-68"/>
      <use xlink:href="#DejaVuSans-31" x="63.378906"/>
      <use xlink:href="#DejaVuSans-68" x="127.001953"/>
      <use xlink:href="#DejaVuSans-34" x="190.380859"/>
     </g>
    </g>
    <g id="line2d_23">
     <path d="M 352.32 83.926688 
L 362.32 83.926688 
L 372.32 83.926688 
" style="fill: none; stroke: #2ca02c; stroke-width: 1.5; stroke-linecap: square"/>
    </g>
    <g id="text_19">
     <!-- h2h3 -->
     <g transform="translate(380.32 87.426688)scale(0.1 -0.1)">
      <use xlink:href="#DejaVuSans-68"/>
      <use xlink:href="#DejaVuSans-32" x="63.378906"/>
      <use xlink:href="#DejaVuSans-68" x="127.001953"/>
      <use xlink:href="#DejaVuSans-33" x="190.380859"/>
     </g>
    </g>
    <g id="line2d_24">
     <path d="M 352.32 98.604813 
L 362.32 98.604813 
L 372.32 98.604813 
" style="fill: none; stroke: #d62728; stroke-width: 1.5; stroke-linecap: square"/>
    </g>
    <g id="text_20">
     <!-- h2h4 -->
     <g transform="translate(380.32 102.104813)scale(0.1 -0.1)">
      <use xlink:href="#DejaVuSans-68"/>
      <use xlink:href="#DejaVuSans-32" x="63.378906"/>
      <use xlink:href="#DejaVuSans-68" x="127.001953"/>
      <use xlink:href="#DejaVuSans-34" x="190.380859"/>
     </g>
    </g>
    <g id="line2d_25">
     <path d="M 352.32 113.282938 
L 362.32 113.282938 
L 372.32 113.282938 
" style="fill: none; stroke: #9467bd; stroke-width: 1.5; stroke-linecap: square"/>
    </g>
    <g id="text_21">
     <!-- h_h3 -->
     <g transform="translate(380.32 116.782938)scale(0.1 -0.1)">
      <defs>
       <path id="DejaVuSans-5f" d="M 3263 -1063 
L 3263 -1509 
L -63 -1509 
L -63 -1063 
L 3263 -1063 
z
" transform="scale(0.015625)"/>
      </defs>
      <use xlink:href="#DejaVuSans-68"/>
      <use xlink:href="#DejaVuSans-5f" x="63.378906"/>
      <use xlink:href="#DejaVuSans-68" x="113.378906"/>
      <use xlink:href="#DejaVuSans-33" x="176.757812"/>
     </g>
    </g>
    <g id="line2d_26">
     <path d="M 352.32 128.239188 
L 362.32 128.239188 
L 372.32 128.239188 
" style="fill: none; stroke: #8c564b; stroke-width: 1.5; stroke-linecap: square"/>
    </g>
    <g id="text_22">
     <!-- h_h4 -->
     <g transform="translate(380.32 131.739188)scale(0.1 -0.1)">
      <use xlink:href="#DejaVuSans-68"/>
      <use xlink:href="#DejaVuSans-5f" x="63.378906"/>
      <use xlink:href="#DejaVuSans-68" x="113.378906"/>
      <use xlink:href="#DejaVuSans-34" x="176.757812"/>
     </g>
    </g>
   </g>
  </g>
 </g>
 <defs>
  <clipPath id="p12114a806d">
   <rect x="57.6" y="41.472" width="357.12" height="266.112"/>
  </clipPath>
 </defs>
</svg>
