<?xml version="1.0" encoding="utf-8" standalone="no"?>
<!DOCTYPE svg PUBLIC "-//W3C//DTD SVG 1.1//EN"
  "http://www.w3.org/Graphics/SVG/1.1/DTD/svg11.dtd">
<svg xmlns:xlink="http://www.w3.org/1999/xlink" width="460.8pt" height="345.6pt" viewBox="0 0 460.8 345.6" xmlns="http://www.w3.org/2000/svg" version="1.1">
 <metadata>
  <rdf:RDF xmlns:dc="http://purl.org/dc/elements/1.1/" xmlns:cc="http://creativecommons.org/ns#" xmlns:rdf="http://www.w3.org/1999/02/22-rdf-syntax-ns#">
   <cc:Work>
    <dc:type rdf:resource="http://purl.org/dc/dcmitype/StillImage"/>
    <dc:date>2022-09-05T20:27:26.335539</dc:date>
    <dc:format>image/svg+xml</dc:format>
    <dc:creator>
     <cc:Agent>
      <dc:title>Matplotlib v3.5.3, https://matplotlib.org/</dc:title>
     </cc:Agent>
    </dc:creator>
   </cc:Work>
  </rdf:RDF>
 </metadata>
 <defs>
  <style type="text/css">*{stroke-linejoin: round; stroke-linecap: butt}</style>
 </defs>
 <g id="figure_1">
  <g id="patch_1">
   <path d="M 0 345.6 
L 460.8 345.6 
L 460.8 0 
L 0 0 
z
" style="fill: #ffffff"/>
  </g>
  <g id="axes_1">
   <g id="patch_2">
    <path d="M 57.6 307.584 
L 414.72 307.584 
L 414.72 41.472 
L 57.6 41.472 
z
" style="fill: #ffffff"/>
   </g>
   <g id="matplotlib.axis_1">
    <g id="xtick_1">
     <g id="line2d_1">
      <defs>
       <path id="mb2eb811c07" d="M 0 0 
L 0 3.5 
" style="stroke: #000000; stroke-width: 0.8"/>
      </defs>
      <g>
       <use xlink:href="#mb2eb811c07" x="67.207124" y="307.584" style="stroke: #000000; stroke-width: 0.8"/>
      </g>
     </g>
     <g id="text_1">
      <!-- 0 -->
      <g transform="translate(64.025874 322.182437)scale(0.1 -0.1)">
       <defs>
        <path id="DejaVuSans-30" d="M 2034 4250 
Q 1547 4250 1301 3770 
Q 1056 3291 1056 2328 
Q 1056 1369 1301 889 
Q 1547 409 2034 409 
Q 2525 409 2770 889 
Q 3016 1369 3016 2328 
Q 3016 3291 2770 3770 
Q 2525 4250 2034 4250 
z
M 2034 4750 
Q 2819 4750 3233 4129 
Q 3647 3509 3647 2328 
Q 3647 1150 3233 529 
Q 2819 -91 2034 -91 
Q 1250 -91 836 529 
Q 422 1150 422 2328 
Q 422 3509 836 4129 
Q 1250 4750 2034 4750 
z
" transform="scale(0.015625)"/>
       </defs>
       <use xlink:href="#DejaVuSans-30"/>
      </g>
     </g>
    </g>
    <g id="xtick_2">
     <g id="line2d_2">
      <g>
       <use xlink:href="#mb2eb811c07" x="108.617143" y="307.584" style="stroke: #000000; stroke-width: 0.8"/>
      </g>
     </g>
     <g id="text_2">
      <!-- 25 -->
      <g transform="translate(102.254643 322.182437)scale(0.1 -0.1)">
       <defs>
        <path id="DejaVuSans-32" d="M 1228 531 
L 3431 531 
L 3431 0 
L 469 0 
L 469 531 
Q 828 903 1448 1529 
Q 2069 2156 2228 2338 
Q 2531 2678 2651 2914 
Q 2772 3150 2772 3378 
Q 2772 3750 2511 3984 
Q 2250 4219 1831 4219 
Q 1534 4219 1204 4116 
Q 875 4013 500 3803 
L 500 4441 
Q 881 4594 1212 4672 
Q 1544 4750 1819 4750 
Q 2544 4750 2975 4387 
Q 3406 4025 3406 3419 
Q 3406 3131 3298 2873 
Q 3191 2616 2906 2266 
Q 2828 2175 2409 1742 
Q 1991 1309 1228 531 
z
" transform="scale(0.015625)"/>
        <path id="DejaVuSans-35" d="M 691 4666 
L 3169 4666 
L 3169 4134 
L 1269 4134 
L 1269 2991 
Q 1406 3038 1543 3061 
Q 1681 3084 1819 3084 
Q 2600 3084 3056 2656 
Q 3513 2228 3513 1497 
Q 3513 744 3044 326 
Q 2575 -91 1722 -91 
Q 1428 -91 1123 -41 
Q 819 9 494 109 
L 494 744 
Q 775 591 1075 516 
Q 1375 441 1709 441 
Q 2250 441 2565 725 
Q 2881 1009 2881 1497 
Q 2881 1984 2565 2268 
Q 2250 2553 1709 2553 
Q 1456 2553 1204 2497 
Q 953 2441 691 2322 
L 691 4666 
z
" transform="scale(0.015625)"/>
       </defs>
       <use xlink:href="#DejaVuSans-32"/>
       <use xlink:href="#DejaVuSans-35" x="63.623047"/>
      </g>
     </g>
    </g>
    <g id="xtick_3">
     <g id="line2d_3">
      <g>
       <use xlink:href="#mb2eb811c07" x="150.027161" y="307.584" style="stroke: #000000; stroke-width: 0.8"/>
      </g>
     </g>
     <g id="text_3">
      <!-- 50 -->
      <g transform="translate(143.664661 322.182437)scale(0.1 -0.1)">
       <use xlink:href="#DejaVuSans-35"/>
       <use xlink:href="#DejaVuSans-30" x="63.623047"/>
      </g>
     </g>
    </g>
    <g id="xtick_4">
     <g id="line2d_4">
      <g>
       <use xlink:href="#mb2eb811c07" x="191.43718" y="307.584" style="stroke: #000000; stroke-width: 0.8"/>
      </g>
     </g>
     <g id="text_4">
      <!-- 75 -->
      <g transform="translate(185.07468 322.182437)scale(0.1 -0.1)">
       <defs>
        <path id="DejaVuSans-37" d="M 525 4666 
L 3525 4666 
L 3525 4397 
L 1831 0 
L 1172 0 
L 2766 4134 
L 525 4134 
L 525 4666 
z
" transform="scale(0.015625)"/>
       </defs>
       <use xlink:href="#DejaVuSans-37"/>
       <use xlink:href="#DejaVuSans-35" x="63.623047"/>
      </g>
     </g>
    </g>
    <g id="xtick_5">
     <g id="line2d_5">
      <g>
       <use xlink:href="#mb2eb811c07" x="232.847199" y="307.584" style="stroke: #000000; stroke-width: 0.8"/>
      </g>
     </g>
     <g id="text_5">
      <!-- 100 -->
      <g transform="translate(223.303449 322.182437)scale(0.1 -0.1)">
       <defs>
        <path id="DejaVuSans-31" d="M 794 531 
L 1825 531 
L 1825 4091 
L 703 3866 
L 703 4441 
L 1819 4666 
L 2450 4666 
L 2450 531 
L 3481 531 
L 3481 0 
L 794 0 
L 794 531 
z
" transform="scale(0.015625)"/>
       </defs>
       <use xlink:href="#DejaVuSans-31"/>
       <use xlink:href="#DejaVuSans-30" x="63.623047"/>
       <use xlink:href="#DejaVuSans-30" x="127.246094"/>
      </g>
     </g>
    </g>
    <g id="xtick_6">
     <g id="line2d_6">
      <g>
       <use xlink:href="#mb2eb811c07" x="274.257217" y="307.584" style="stroke: #000000; stroke-width: 0.8"/>
      </g>
     </g>
     <g id="text_6">
      <!-- 125 -->
      <g transform="translate(264.713467 322.182437)scale(0.1 -0.1)">
       <use xlink:href="#DejaVuSans-31"/>
       <use xlink:href="#DejaVuSans-32" x="63.623047"/>
       <use xlink:href="#DejaVuSans-35" x="127.246094"/>
      </g>
     </g>
    </g>
    <g id="xtick_7">
     <g id="line2d_7">
      <g>
       <use xlink:href="#mb2eb811c07" x="315.667236" y="307.584" style="stroke: #000000; stroke-width: 0.8"/>
      </g>
     </g>
     <g id="text_7">
      <!-- 150 -->
      <g transform="translate(306.123486 322.182437)scale(0.1 -0.1)">
       <use xlink:href="#DejaVuSans-31"/>
       <use xlink:href="#DejaVuSans-35" x="63.623047"/>
       <use xlink:href="#DejaVuSans-30" x="127.246094"/>
      </g>
     </g>
    </g>
    <g id="xtick_8">
     <g id="line2d_8">
      <g>
       <use xlink:href="#mb2eb811c07" x="357.077254" y="307.584" style="stroke: #000000; stroke-width: 0.8"/>
      </g>
     </g>
     <g id="text_8">
      <!-- 175 -->
      <g transform="translate(347.533504 322.182437)scale(0.1 -0.1)">
       <use xlink:href="#DejaVuSans-31"/>
       <use xlink:href="#DejaVuSans-37" x="63.623047"/>
       <use xlink:href="#DejaVuSans-35" x="127.246094"/>
      </g>
     </g>
    </g>
    <g id="xtick_9">
     <g id="line2d_9">
      <g>
       <use xlink:href="#mb2eb811c07" x="398.487273" y="307.584" style="stroke: #000000; stroke-width: 0.8"/>
      </g>
     </g>
     <g id="text_9">
      <!-- 200 -->
      <g transform="translate(388.943523 322.182437)scale(0.1 -0.1)">
       <use xlink:href="#DejaVuSans-32"/>
       <use xlink:href="#DejaVuSans-30" x="63.623047"/>
       <use xlink:href="#DejaVuSans-30" x="127.246094"/>
      </g>
     </g>
    </g>
    <g id="text_10">
     <!-- Lambda Rate (pkt/s) -->
     <g transform="translate(185.16625 335.860562)scale(0.1 -0.1)">
      <defs>
       <path id="DejaVuSans-4c" d="M 628 4666 
L 1259 4666 
L 1259 531 
L 3531 531 
L 3531 0 
L 628 0 
L 628 4666 
z
" transform="scale(0.015625)"/>
       <path id="DejaVuSans-61" d="M 2194 1759 
Q 1497 1759 1228 1600 
Q 959 1441 959 1056 
Q 959 750 1161 570 
Q 1363 391 1709 391 
Q 2188 391 2477 730 
Q 2766 1069 2766 1631 
L 2766 1759 
L 2194 1759 
z
M 3341 1997 
L 3341 0 
L 2766 0 
L 2766 531 
Q 2569 213 2275 61 
Q 1981 -91 1556 -91 
Q 1019 -91 701 211 
Q 384 513 384 1019 
Q 384 1609 779 1909 
Q 1175 2209 1959 2209 
L 2766 2209 
L 2766 2266 
Q 2766 2663 2505 2880 
Q 2244 3097 1772 3097 
Q 1472 3097 1187 3025 
Q 903 2953 641 2809 
L 641 3341 
Q 956 3463 1253 3523 
Q 1550 3584 1831 3584 
Q 2591 3584 2966 3190 
Q 3341 2797 3341 1997 
z
" transform="scale(0.015625)"/>
       <path id="DejaVuSans-6d" d="M 3328 2828 
Q 3544 3216 3844 3400 
Q 4144 3584 4550 3584 
Q 5097 3584 5394 3201 
Q 5691 2819 5691 2113 
L 5691 0 
L 5113 0 
L 5113 2094 
Q 5113 2597 4934 2840 
Q 4756 3084 4391 3084 
Q 3944 3084 3684 2787 
Q 3425 2491 3425 1978 
L 3425 0 
L 2847 0 
L 2847 2094 
Q 2847 2600 2669 2842 
Q 2491 3084 2119 3084 
Q 1678 3084 1418 2786 
Q 1159 2488 1159 1978 
L 1159 0 
L 581 0 
L 581 3500 
L 1159 3500 
L 1159 2956 
Q 1356 3278 1631 3431 
Q 1906 3584 2284 3584 
Q 2666 3584 2933 3390 
Q 3200 3197 3328 2828 
z
" transform="scale(0.015625)"/>
       <path id="DejaVuSans-62" d="M 3116 1747 
Q 3116 2381 2855 2742 
Q 2594 3103 2138 3103 
Q 1681 3103 1420 2742 
Q 1159 2381 1159 1747 
Q 1159 1113 1420 752 
Q 1681 391 2138 391 
Q 2594 391 2855 752 
Q 3116 1113 3116 1747 
z
M 1159 2969 
Q 1341 3281 1617 3432 
Q 1894 3584 2278 3584 
Q 2916 3584 3314 3078 
Q 3713 2572 3713 1747 
Q 3713 922 3314 415 
Q 2916 -91 2278 -91 
Q 1894 -91 1617 61 
Q 1341 213 1159 525 
L 1159 0 
L 581 0 
L 581 4863 
L 1159 4863 
L 1159 2969 
z
" transform="scale(0.015625)"/>
       <path id="DejaVuSans-64" d="M 2906 2969 
L 2906 4863 
L 3481 4863 
L 3481 0 
L 2906 0 
L 2906 525 
Q 2725 213 2448 61 
Q 2172 -91 1784 -91 
Q 1150 -91 751 415 
Q 353 922 353 1747 
Q 353 2572 751 3078 
Q 1150 3584 1784 3584 
Q 2172 3584 2448 3432 
Q 2725 3281 2906 2969 
z
M 947 1747 
Q 947 1113 1208 752 
Q 1469 391 1925 391 
Q 2381 391 2643 752 
Q 2906 1113 2906 1747 
Q 2906 2381 2643 2742 
Q 2381 3103 1925 3103 
Q 1469 3103 1208 2742 
Q 947 2381 947 1747 
z
" transform="scale(0.015625)"/>
       <path id="DejaVuSans-20" transform="scale(0.015625)"/>
       <path id="DejaVuSans-52" d="M 2841 2188 
Q 3044 2119 3236 1894 
Q 3428 1669 3622 1275 
L 4263 0 
L 3584 0 
L 2988 1197 
Q 2756 1666 2539 1819 
Q 2322 1972 1947 1972 
L 1259 1972 
L 1259 0 
L 628 0 
L 628 4666 
L 2053 4666 
Q 2853 4666 3247 4331 
Q 3641 3997 3641 3322 
Q 3641 2881 3436 2590 
Q 3231 2300 2841 2188 
z
M 1259 4147 
L 1259 2491 
L 2053 2491 
Q 2509 2491 2742 2702 
Q 2975 2913 2975 3322 
Q 2975 3731 2742 3939 
Q 2509 4147 2053 4147 
L 1259 4147 
z
" transform="scale(0.015625)"/>
       <path id="DejaVuSans-74" d="M 1172 4494 
L 1172 3500 
L 2356 3500 
L 2356 3053 
L 1172 3053 
L 1172 1153 
Q 1172 725 1289 603 
Q 1406 481 1766 481 
L 2356 481 
L 2356 0 
L 1766 0 
Q 1100 0 847 248 
Q 594 497 594 1153 
L 594 3053 
L 172 3053 
L 172 3500 
L 594 3500 
L 594 4494 
L 1172 4494 
z
" transform="scale(0.015625)"/>
       <path id="DejaVuSans-65" d="M 3597 1894 
L 3597 1613 
L 953 1613 
Q 991 1019 1311 708 
Q 1631 397 2203 397 
Q 2534 397 2845 478 
Q 3156 559 3463 722 
L 3463 178 
Q 3153 47 2828 -22 
Q 2503 -91 2169 -91 
Q 1331 -91 842 396 
Q 353 884 353 1716 
Q 353 2575 817 3079 
Q 1281 3584 2069 3584 
Q 2775 3584 3186 3129 
Q 3597 2675 3597 1894 
z
M 3022 2063 
Q 3016 2534 2758 2815 
Q 2500 3097 2075 3097 
Q 1594 3097 1305 2825 
Q 1016 2553 972 2059 
L 3022 2063 
z
" transform="scale(0.015625)"/>
       <path id="DejaVuSans-28" d="M 1984 4856 
Q 1566 4138 1362 3434 
Q 1159 2731 1159 2009 
Q 1159 1288 1364 580 
Q 1569 -128 1984 -844 
L 1484 -844 
Q 1016 -109 783 600 
Q 550 1309 550 2009 
Q 550 2706 781 3412 
Q 1013 4119 1484 4856 
L 1984 4856 
z
" transform="scale(0.015625)"/>
       <path id="DejaVuSans-70" d="M 1159 525 
L 1159 -1331 
L 581 -1331 
L 581 3500 
L 1159 3500 
L 1159 2969 
Q 1341 3281 1617 3432 
Q 1894 3584 2278 3584 
Q 2916 3584 3314 3078 
Q 3713 2572 3713 1747 
Q 3713 922 3314 415 
Q 2916 -91 2278 -91 
Q 1894 -91 1617 61 
Q 1341 213 1159 525 
z
M 3116 1747 
Q 3116 2381 2855 2742 
Q 2594 3103 2138 3103 
Q 1681 3103 1420 2742 
Q 1159 2381 1159 1747 
Q 1159 1113 1420 752 
Q 1681 391 2138 391 
Q 2594 391 2855 752 
Q 3116 1113 3116 1747 
z
" transform="scale(0.015625)"/>
       <path id="DejaVuSans-6b" d="M 581 4863 
L 1159 4863 
L 1159 1991 
L 2875 3500 
L 3609 3500 
L 1753 1863 
L 3688 0 
L 2938 0 
L 1159 1709 
L 1159 0 
L 581 0 
L 581 4863 
z
" transform="scale(0.015625)"/>
       <path id="DejaVuSans-2f" d="M 1625 4666 
L 2156 4666 
L 531 -594 
L 0 -594 
L 1625 4666 
z
" transform="scale(0.015625)"/>
       <path id="DejaVuSans-73" d="M 2834 3397 
L 2834 2853 
Q 2591 2978 2328 3040 
Q 2066 3103 1784 3103 
Q 1356 3103 1142 2972 
Q 928 2841 928 2578 
Q 928 2378 1081 2264 
Q 1234 2150 1697 2047 
L 1894 2003 
Q 2506 1872 2764 1633 
Q 3022 1394 3022 966 
Q 3022 478 2636 193 
Q 2250 -91 1575 -91 
Q 1294 -91 989 -36 
Q 684 19 347 128 
L 347 722 
Q 666 556 975 473 
Q 1284 391 1588 391 
Q 1994 391 2212 530 
Q 2431 669 2431 922 
Q 2431 1156 2273 1281 
Q 2116 1406 1581 1522 
L 1381 1569 
Q 847 1681 609 1914 
Q 372 2147 372 2553 
Q 372 3047 722 3315 
Q 1072 3584 1716 3584 
Q 2034 3584 2315 3537 
Q 2597 3491 2834 3397 
z
" transform="scale(0.015625)"/>
       <path id="DejaVuSans-29" d="M 513 4856 
L 1013 4856 
Q 1481 4119 1714 3412 
Q 1947 2706 1947 2009 
Q 1947 1309 1714 600 
Q 1481 -109 1013 -844 
L 513 -844 
Q 928 -128 1133 580 
Q 1338 1288 1338 2009 
Q 1338 2731 1133 3434 
Q 928 4138 513 4856 
z
" transform="scale(0.015625)"/>
      </defs>
      <use xlink:href="#DejaVuSans-4c"/>
      <use xlink:href="#DejaVuSans-61" x="55.712891"/>
      <use xlink:href="#DejaVuSans-6d" x="116.992188"/>
      <use xlink:href="#DejaVuSans-62" x="214.404297"/>
      <use xlink:href="#DejaVuSans-64" x="277.880859"/>
      <use xlink:href="#DejaVuSans-61" x="341.357422"/>
      <use xlink:href="#DejaVuSans-20" x="402.636719"/>
      <use xlink:href="#DejaVuSans-52" x="434.423828"/>
      <use xlink:href="#DejaVuSans-61" x="501.65625"/>
      <use xlink:href="#DejaVuSans-74" x="562.935547"/>
      <use xlink:href="#DejaVuSans-65" x="602.144531"/>
      <use xlink:href="#DejaVuSans-20" x="663.667969"/>
      <use xlink:href="#DejaVuSans-28" x="695.455078"/>
      <use xlink:href="#DejaVuSans-70" x="734.46875"/>
      <use xlink:href="#DejaVuSans-6b" x="797.945312"/>
      <use xlink:href="#DejaVuSans-74" x="855.855469"/>
      <use xlink:href="#DejaVuSans-2f" x="895.064453"/>
      <use xlink:href="#DejaVuSans-73" x="928.755859"/>
      <use xlink:href="#DejaVuSans-29" x="980.855469"/>
     </g>
    </g>
   </g>
   <g id="matplotlib.axis_2">
    <g id="ytick_1">
     <g id="line2d_10">
      <defs>
       <path id="m0b0e3f4e15" d="M 0 0 
L -3.5 0 
" style="stroke: #000000; stroke-width: 0.8"/>
      </defs>
      <g>
       <use xlink:href="#m0b0e3f4e15" x="57.6" y="297.056363" style="stroke: #000000; stroke-width: 0.8"/>
      </g>
     </g>
     <g id="text_11">
      <!-- 0.0602 -->
      <g transform="translate(15.609375 300.855582)scale(0.1 -0.1)">
       <defs>
        <path id="DejaVuSans-2e" d="M 684 794 
L 1344 794 
L 1344 0 
L 684 0 
L 684 794 
z
" transform="scale(0.015625)"/>
        <path id="DejaVuSans-36" d="M 2113 2584 
Q 1688 2584 1439 2293 
Q 1191 2003 1191 1497 
Q 1191 994 1439 701 
Q 1688 409 2113 409 
Q 2538 409 2786 701 
Q 3034 994 3034 1497 
Q 3034 2003 2786 2293 
Q 2538 2584 2113 2584 
z
M 3366 4563 
L 3366 3988 
Q 3128 4100 2886 4159 
Q 2644 4219 2406 4219 
Q 1781 4219 1451 3797 
Q 1122 3375 1075 2522 
Q 1259 2794 1537 2939 
Q 1816 3084 2150 3084 
Q 2853 3084 3261 2657 
Q 3669 2231 3669 1497 
Q 3669 778 3244 343 
Q 2819 -91 2113 -91 
Q 1303 -91 875 529 
Q 447 1150 447 2328 
Q 447 3434 972 4092 
Q 1497 4750 2381 4750 
Q 2619 4750 2861 4703 
Q 3103 4656 3366 4563 
z
" transform="scale(0.015625)"/>
       </defs>
       <use xlink:href="#DejaVuSans-30"/>
       <use xlink:href="#DejaVuSans-2e" x="63.623047"/>
       <use xlink:href="#DejaVuSans-30" x="95.410156"/>
       <use xlink:href="#DejaVuSans-36" x="159.033203"/>
       <use xlink:href="#DejaVuSans-30" x="222.65625"/>
       <use xlink:href="#DejaVuSans-32" x="286.279297"/>
      </g>
     </g>
    </g>
    <g id="ytick_2">
     <g id="line2d_11">
      <g>
       <use xlink:href="#m0b0e3f4e15" x="57.6" y="257.847287" style="stroke: #000000; stroke-width: 0.8"/>
      </g>
     </g>
     <g id="text_12">
      <!-- 0.0603 -->
      <g transform="translate(15.609375 261.646506)scale(0.1 -0.1)">
       <defs>
        <path id="DejaVuSans-33" d="M 2597 2516 
Q 3050 2419 3304 2112 
Q 3559 1806 3559 1356 
Q 3559 666 3084 287 
Q 2609 -91 1734 -91 
Q 1441 -91 1130 -33 
Q 819 25 488 141 
L 488 750 
Q 750 597 1062 519 
Q 1375 441 1716 441 
Q 2309 441 2620 675 
Q 2931 909 2931 1356 
Q 2931 1769 2642 2001 
Q 2353 2234 1838 2234 
L 1294 2234 
L 1294 2753 
L 1863 2753 
Q 2328 2753 2575 2939 
Q 2822 3125 2822 3475 
Q 2822 3834 2567 4026 
Q 2313 4219 1838 4219 
Q 1578 4219 1281 4162 
Q 984 4106 628 3988 
L 628 4550 
Q 988 4650 1302 4700 
Q 1616 4750 1894 4750 
Q 2613 4750 3031 4423 
Q 3450 4097 3450 3541 
Q 3450 3153 3228 2886 
Q 3006 2619 2597 2516 
z
" transform="scale(0.015625)"/>
       </defs>
       <use xlink:href="#DejaVuSans-30"/>
       <use xlink:href="#DejaVuSans-2e" x="63.623047"/>
       <use xlink:href="#DejaVuSans-30" x="95.410156"/>
       <use xlink:href="#DejaVuSans-36" x="159.033203"/>
       <use xlink:href="#DejaVuSans-30" x="222.65625"/>
       <use xlink:href="#DejaVuSans-33" x="286.279297"/>
      </g>
     </g>
    </g>
    <g id="ytick_3">
     <g id="line2d_12">
      <g>
       <use xlink:href="#m0b0e3f4e15" x="57.6" y="218.638211" style="stroke: #000000; stroke-width: 0.8"/>
      </g>
     </g>
     <g id="text_13">
      <!-- 0.0604 -->
      <g transform="translate(15.609375 222.437429)scale(0.1 -0.1)">
       <defs>
        <path id="DejaVuSans-34" d="M 2419 4116 
L 825 1625 
L 2419 1625 
L 2419 4116 
z
M 2253 4666 
L 3047 4666 
L 3047 1625 
L 3713 1625 
L 3713 1100 
L 3047 1100 
L 3047 0 
L 2419 0 
L 2419 1100 
L 313 1100 
L 313 1709 
L 2253 4666 
z
" transform="scale(0.015625)"/>
       </defs>
       <use xlink:href="#DejaVuSans-30"/>
       <use xlink:href="#DejaVuSans-2e" x="63.623047"/>
       <use xlink:href="#DejaVuSans-30" x="95.410156"/>
       <use xlink:href="#DejaVuSans-36" x="159.033203"/>
       <use xlink:href="#DejaVuSans-30" x="222.65625"/>
       <use xlink:href="#DejaVuSans-34" x="286.279297"/>
      </g>
     </g>
    </g>
    <g id="ytick_4">
     <g id="line2d_13">
      <g>
       <use xlink:href="#m0b0e3f4e15" x="57.6" y="179.429135" style="stroke: #000000; stroke-width: 0.8"/>
      </g>
     </g>
     <g id="text_14">
      <!-- 0.0605 -->
      <g transform="translate(15.609375 183.228353)scale(0.1 -0.1)">
       <use xlink:href="#DejaVuSans-30"/>
       <use xlink:href="#DejaVuSans-2e" x="63.623047"/>
       <use xlink:href="#DejaVuSans-30" x="95.410156"/>
       <use xlink:href="#DejaVuSans-36" x="159.033203"/>
       <use xlink:href="#DejaVuSans-30" x="222.65625"/>
       <use xlink:href="#DejaVuSans-35" x="286.279297"/>
      </g>
     </g>
    </g>
    <g id="ytick_5">
     <g id="line2d_14">
      <g>
       <use xlink:href="#m0b0e3f4e15" x="57.6" y="140.220058" style="stroke: #000000; stroke-width: 0.8"/>
      </g>
     </g>
     <g id="text_15">
      <!-- 0.0606 -->
      <g transform="translate(15.609375 144.019277)scale(0.1 -0.1)">
       <use xlink:href="#DejaVuSans-30"/>
       <use xlink:href="#DejaVuSans-2e" x="63.623047"/>
       <use xlink:href="#DejaVuSans-30" x="95.410156"/>
       <use xlink:href="#DejaVuSans-36" x="159.033203"/>
       <use xlink:href="#DejaVuSans-30" x="222.65625"/>
       <use xlink:href="#DejaVuSans-36" x="286.279297"/>
      </g>
     </g>
    </g>
    <g id="ytick_6">
     <g id="line2d_15">
      <g>
       <use xlink:href="#m0b0e3f4e15" x="57.6" y="101.010982" style="stroke: #000000; stroke-width: 0.8"/>
      </g>
     </g>
     <g id="text_16">
      <!-- 0.0607 -->
      <g transform="translate(15.609375 104.810201)scale(0.1 -0.1)">
       <use xlink:href="#DejaVuSans-30"/>
       <use xlink:href="#DejaVuSans-2e" x="63.623047"/>
       <use xlink:href="#DejaVuSans-30" x="95.410156"/>
       <use xlink:href="#DejaVuSans-36" x="159.033203"/>
       <use xlink:href="#DejaVuSans-30" x="222.65625"/>
       <use xlink:href="#DejaVuSans-37" x="286.279297"/>
      </g>
     </g>
    </g>
    <g id="ytick_7">
     <g id="line2d_16">
      <g>
       <use xlink:href="#m0b0e3f4e15" x="57.6" y="61.801906" style="stroke: #000000; stroke-width: 0.8"/>
      </g>
     </g>
     <g id="text_17">
      <!-- 0.0608 -->
      <g transform="translate(15.609375 65.601125)scale(0.1 -0.1)">
       <defs>
        <path id="DejaVuSans-38" d="M 2034 2216 
Q 1584 2216 1326 1975 
Q 1069 1734 1069 1313 
Q 1069 891 1326 650 
Q 1584 409 2034 409 
Q 2484 409 2743 651 
Q 3003 894 3003 1313 
Q 3003 1734 2745 1975 
Q 2488 2216 2034 2216 
z
M 1403 2484 
Q 997 2584 770 2862 
Q 544 3141 544 3541 
Q 544 4100 942 4425 
Q 1341 4750 2034 4750 
Q 2731 4750 3128 4425 
Q 3525 4100 3525 3541 
Q 3525 3141 3298 2862 
Q 3072 2584 2669 2484 
Q 3125 2378 3379 2068 
Q 3634 1759 3634 1313 
Q 3634 634 3220 271 
Q 2806 -91 2034 -91 
Q 1263 -91 848 271 
Q 434 634 434 1313 
Q 434 1759 690 2068 
Q 947 2378 1403 2484 
z
M 1172 3481 
Q 1172 3119 1398 2916 
Q 1625 2713 2034 2713 
Q 2441 2713 2670 2916 
Q 2900 3119 2900 3481 
Q 2900 3844 2670 4047 
Q 2441 4250 2034 4250 
Q 1625 4250 1398 4047 
Q 1172 3844 1172 3481 
z
" transform="scale(0.015625)"/>
       </defs>
       <use xlink:href="#DejaVuSans-30"/>
       <use xlink:href="#DejaVuSans-2e" x="63.623047"/>
       <use xlink:href="#DejaVuSans-30" x="95.410156"/>
       <use xlink:href="#DejaVuSans-36" x="159.033203"/>
       <use xlink:href="#DejaVuSans-30" x="222.65625"/>
       <use xlink:href="#DejaVuSans-38" x="286.279297"/>
      </g>
     </g>
    </g>
    <g id="text_18">
     <!-- end-to-end delay (s) -->
     <g transform="translate(9.529687 225.435812)rotate(-90)scale(0.1 -0.1)">
      <defs>
       <path id="DejaVuSans-6e" d="M 3513 2113 
L 3513 0 
L 2938 0 
L 2938 2094 
Q 2938 2591 2744 2837 
Q 2550 3084 2163 3084 
Q 1697 3084 1428 2787 
Q 1159 2491 1159 1978 
L 1159 0 
L 581 0 
L 581 3500 
L 1159 3500 
L 1159 2956 
Q 1366 3272 1645 3428 
Q 1925 3584 2291 3584 
Q 2894 3584 3203 3211 
Q 3513 2838 3513 2113 
z
" transform="scale(0.015625)"/>
       <path id="DejaVuSans-2d" d="M 313 2009 
L 1997 2009 
L 1997 1497 
L 313 1497 
L 313 2009 
z
" transform="scale(0.015625)"/>
       <path id="DejaVuSans-6f" d="M 1959 3097 
Q 1497 3097 1228 2736 
Q 959 2375 959 1747 
Q 959 1119 1226 758 
Q 1494 397 1959 397 
Q 2419 397 2687 759 
Q 2956 1122 2956 1747 
Q 2956 2369 2687 2733 
Q 2419 3097 1959 3097 
z
M 1959 3584 
Q 2709 3584 3137 3096 
Q 3566 2609 3566 1747 
Q 3566 888 3137 398 
Q 2709 -91 1959 -91 
Q 1206 -91 779 398 
Q 353 888 353 1747 
Q 353 2609 779 3096 
Q 1206 3584 1959 3584 
z
" transform="scale(0.015625)"/>
       <path id="DejaVuSans-6c" d="M 603 4863 
L 1178 4863 
L 1178 0 
L 603 0 
L 603 4863 
z
" transform="scale(0.015625)"/>
       <path id="DejaVuSans-79" d="M 2059 -325 
Q 1816 -950 1584 -1140 
Q 1353 -1331 966 -1331 
L 506 -1331 
L 506 -850 
L 844 -850 
Q 1081 -850 1212 -737 
Q 1344 -625 1503 -206 
L 1606 56 
L 191 3500 
L 800 3500 
L 1894 763 
L 2988 3500 
L 3597 3500 
L 2059 -325 
z
" transform="scale(0.015625)"/>
      </defs>
      <use xlink:href="#DejaVuSans-65"/>
      <use xlink:href="#DejaVuSans-6e" x="61.523438"/>
      <use xlink:href="#DejaVuSans-64" x="124.902344"/>
      <use xlink:href="#DejaVuSans-2d" x="188.378906"/>
      <use xlink:href="#DejaVuSans-74" x="224.462891"/>
      <use xlink:href="#DejaVuSans-6f" x="263.671875"/>
      <use xlink:href="#DejaVuSans-2d" x="326.728516"/>
      <use xlink:href="#DejaVuSans-65" x="362.8125"/>
      <use xlink:href="#DejaVuSans-6e" x="424.335938"/>
      <use xlink:href="#DejaVuSans-64" x="487.714844"/>
      <use xlink:href="#DejaVuSans-20" x="551.191406"/>
      <use xlink:href="#DejaVuSans-64" x="582.978516"/>
      <use xlink:href="#DejaVuSans-65" x="646.455078"/>
      <use xlink:href="#DejaVuSans-6c" x="707.978516"/>
      <use xlink:href="#DejaVuSans-61" x="735.761719"/>
      <use xlink:href="#DejaVuSans-79" x="797.041016"/>
      <use xlink:href="#DejaVuSans-20" x="856.220703"/>
      <use xlink:href="#DejaVuSans-28" x="888.007812"/>
      <use xlink:href="#DejaVuSans-73" x="927.021484"/>
      <use xlink:href="#DejaVuSans-29" x="979.121094"/>
     </g>
    </g>
   </g>
   <g id="line2d_17">
    <path d="M 73.832727 295.488 
L 77.145529 82.582716 
L 80.45833 148.846055 
L 83.771132 107.284434 
L 87.083933 77.093446 
L 90.396735 262.944467 
L 93.709536 224.519572 
L 97.022338 118.655066 
L 100.335139 156.68787 
L 103.647941 205.307125 
L 106.960742 226.480026 
L 110.273544 245.300382 
L 113.586345 197.46531 
L 116.899147 202.562489 
L 120.211948 166.490139 
L 123.52475 173.939864 
L 126.837551 170.018956 
L 130.150353 175.900318 
L 133.463154 181.389588 
L 136.775955 173.939864 
L 140.088757 187.27095 
L 143.401558 193.936493 
L 146.71436 179.429135 
L 150.027161 185.310496 
L 153.339963 188.839313 
L 156.652764 175.508227 
L 159.965566 166.88223 
L 163.278367 168.058502 
L 166.591169 169.234775 
L 169.90397 167.666412 
L 173.216772 174.331955 
L 176.529573 174.331955 
L 179.842375 183.350042 
L 183.155176 181.781679 
L 186.467978 180.213316 
L 189.780779 182.17377 
L 193.093581 184.918405 
L 196.406382 195.504856 
L 199.719184 183.350042 
L 203.031985 184.918405 
L 206.344787 189.231404 
L 209.657588 198.249491 
L 212.97039 194.720674 
L 216.283191 191.583948 
L 219.595993 203.346671 
L 222.908794 277.843916 
L 226.221596 216.677757 
L 229.534397 206.483397 
L 232.847199 240.595293 
L 236.16 228.048389 
L 239.472801 259.41565 
L 242.785603 220.598665 
L 246.098404 240.203203 
L 249.411206 231.185115 
L 252.724007 233.53766 
L 256.036809 239.419021 
L 259.34961 255.886833 
L 262.662412 230.793024 
L 265.975213 249.613381 
L 269.288015 255.102652 
L 272.600816 226.872117 
L 275.913618 246.476655 
L 279.226419 251.573835 
L 282.539221 261.376104 
L 285.852022 244.516201 
L 289.164824 247.260836 
L 292.477625 231.969297 
L 295.790427 237.850658 
L 299.103228 245.692473 
L 302.41603 242.555747 
L 305.728831 260.199831 
L 309.041633 259.023559 
L 312.354434 253.926379 
L 315.667236 250.397562 
L 318.980037 281.764823 
L 322.292839 273.530917 
L 325.60564 269.217919 
L 328.918442 257.455196 
L 332.231243 268.433737 
L 335.544045 262.160285 
L 338.856846 250.005472 
L 342.169647 252.358016 
L 345.482449 238.242749 
L 348.79525 250.789653 
L 352.108052 281.764823 
L 355.420853 270.0021 
L 358.733655 252.358016 
L 362.046456 268.825828 
L 365.359258 273.138827 
L 368.672059 237.850658 
L 371.984861 264.904921 
L 375.297662 248.045018 
L 378.610464 250.005472 
L 381.923265 255.494742 
L 385.236067 252.750107 
L 388.548868 251.181744 
L 391.86167 255.494742 
L 395.174471 259.41565 
L 398.487273 250.397562 
" clip-path="url(#p6882ee2880)" style="fill: none; stroke: #1f77b4; stroke-width: 1.5; stroke-linecap: square"/>
   </g>
   <g id="line2d_18">
    <path d="M 77.145529 53.568 
L 80.45833 141.788421 
L 83.771132 99.050528 
L 87.083933 58.66518 
L 90.396735 263.728648 
L 93.709536 213.541031 
L 97.022338 126.496882 
L 100.335139 151.1986 
L 103.647941 199.817854 
L 106.960742 228.832571 
L 110.273544 246.084564 
L 113.586345 206.483397 
L 116.899147 193.152311 
L 120.211948 159.824596 
L 123.52475 167.274321 
L 126.837551 159.040415 
L 130.150353 173.155682 
L 133.463154 183.350042 
L 136.775955 171.97941 
L 140.088757 184.918405 
L 143.401558 197.073219 
L 146.71436 178.252862 
L 150.027161 188.447222 
L 153.339963 188.055131 
L 156.652764 179.037044 
L 159.965566 168.842684 
L 163.278367 166.490139 
L 166.591169 166.098049 
L 169.90397 170.411047 
L 173.216772 179.429135 
L 176.529573 178.252862 
L 179.842375 181.781679 
L 183.155176 177.468681 
L 186.467978 175.116136 
L 189.780779 180.213316 
L 193.093581 185.702587 
L 196.406382 185.702587 
L 199.719184 188.447222 
L 203.031985 183.350042 
L 206.344787 182.17377 
L 209.657588 195.896947 
L 212.97039 195.112765 
L 216.283191 190.407676 
L 219.595993 204.522943 
L 222.908794 278.628097 
L 226.221596 216.285666 
L 229.534397 210.404305 
L 232.847199 239.419021 
L 236.16 225.695844 
L 239.472801 255.494742 
L 242.785603 216.285666 
L 246.098404 239.811112 
L 249.411206 235.106023 
L 252.724007 232.753478 
L 256.036809 238.242749 
L 259.34961 252.750107 
L 262.662412 227.656298 
L 265.975213 245.692473 
L 269.288015 251.181744 
L 272.600816 222.951209 
L 275.913618 244.908292 
L 279.226419 253.926379 
L 282.539221 260.984013 
L 285.852022 246.476655 
L 289.164824 246.476655 
L 292.477625 234.713932 
L 295.790427 235.106023 
L 299.103228 245.692473 
L 302.41603 244.12411 
L 305.728831 257.847287 
L 309.041633 262.552376 
L 312.354434 252.358016 
L 315.667236 250.397562 
L 318.980037 280.980642 
L 322.292839 274.315099 
L 325.60564 270.394191 
L 328.918442 259.41565 
L 332.231243 269.217919 
L 335.544045 263.336558 
L 338.856846 248.829199 
L 342.169647 251.573835 
L 345.482449 238.242749 
L 348.79525 250.005472 
L 352.108052 283.333186 
L 355.420853 272.746736 
L 358.733655 250.005472 
L 362.046456 270.394191 
L 365.359258 271.962554 
L 368.672059 238.63484 
L 371.984861 264.120739 
L 375.297662 247.652927 
L 378.610464 250.005472 
L 381.923265 255.494742 
L 385.236067 251.181744 
L 388.548868 249.613381 
L 391.86167 253.926379 
L 395.174471 257.455196 
L 398.487273 250.397562 
" clip-path="url(#p6882ee2880)" style="fill: none; stroke: #ff7f0e; stroke-width: 1.5; stroke-linecap: square"/>
   </g>
   <g id="line2d_19">
    <path d="M 73.832727 287.646185 
L 77.145529 98.266347 
L 80.45833 145.709329 
L 83.771132 113.949977 
L 87.083933 67.291177 
L 90.396735 263.336558 
L 93.709536 214.325212 
L 97.022338 131.201971 
L 100.335139 162.177141 
L 103.647941 190.407676 
L 106.960742 228.44048 
L 110.273544 240.987384 
L 113.586345 198.641582 
L 116.899147 199.817854 
L 120.211948 168.842684 
L 123.52475 169.234775 
L 126.837551 165.313867 
L 130.150353 175.116136 
L 133.463154 179.429135 
L 136.775955 179.037044 
L 140.088757 187.27095 
L 143.401558 189.623494 
L 146.71436 171.195229 
L 150.027161 188.447222 
L 153.339963 180.213316 
L 156.652764 182.957951 
L 159.965566 169.234775 
L 163.278367 168.842684 
L 166.591169 163.353413 
L 169.90397 170.411047 
L 173.216772 175.508227 
L 176.529573 174.331955 
L 179.842375 180.213316 
L 183.155176 178.644953 
L 186.467978 178.644953 
L 189.780779 178.644953 
L 193.093581 184.918405 
L 196.406382 191.583948 
L 199.719184 181.389588 
L 203.031985 184.918405 
L 206.344787 185.702587 
L 209.657588 195.896947 
L 212.97039 197.073219 
L 216.283191 191.191857 
L 219.595993 206.875488 
L 222.908794 283.725277 
L 226.221596 215.109394 
L 229.534397 209.620123 
L 232.847199 240.203203 
L 236.16 224.519572 
L 239.472801 256.278924 
L 242.785603 217.069848 
L 246.098404 241.379475 
L 249.411206 233.145569 
L 252.724007 234.321841 
L 256.036809 238.242749 
L 259.34961 255.494742 
L 262.662412 228.048389 
L 265.975213 243.339929 
L 269.288015 253.534288 
L 272.600816 223.735391 
L 275.913618 242.947838 
L 279.226419 250.005472 
L 282.539221 259.023559 
L 285.852022 248.829199 
L 289.164824 244.908292 
L 292.477625 233.53766 
L 295.790427 236.674386 
L 299.103228 246.084564 
L 302.41603 247.260836 
L 305.728831 258.239378 
L 309.041633 259.807741 
L 312.354434 250.789653 
L 315.667236 250.789653 
L 318.980037 279.020188 
L 322.292839 274.315099 
L 325.60564 270.0021 
L 328.918442 256.278924 
L 332.231243 267.649556 
L 335.544045 261.768194 
L 338.856846 250.789653 
L 342.169647 252.358016 
L 345.482449 237.458567 
L 348.79525 250.005472 
L 352.108052 283.725277 
L 355.420853 273.138827 
L 358.733655 251.965925 
L 362.046456 268.825828 
L 365.359258 272.354645 
L 368.672059 242.163656 
L 371.984861 265.689102 
L 375.297662 248.045018 
L 378.610464 250.789653 
L 381.923265 255.494742 
L 385.236067 251.181744 
L 388.548868 253.142198 
L 391.86167 255.102652 
L 395.174471 259.41565 
L 398.487273 246.868746 
" clip-path="url(#p6882ee2880)" style="fill: none; stroke: #2ca02c; stroke-width: 1.5; stroke-linecap: square"/>
   </g>
   <g id="line2d_20">
    <path d="M 77.145529 79.44599 
L 80.45833 125.320609 
L 83.771132 123.360156 
L 87.083933 79.0539 
L 90.396735 260.199831 
L 93.709536 221.774937 
L 97.022338 128.065245 
L 100.335139 150.414418 
L 103.647941 196.681128 
L 106.960742 230.008843 
L 110.273544 237.850658 
L 113.586345 202.170399 
L 116.899147 201.778308 
L 120.211948 167.666412 
L 123.52475 169.626865 
L 126.837551 164.137595 
L 130.150353 170.411047 
L 133.463154 177.860771 
L 136.775955 183.350042 
L 140.088757 184.134224 
L 143.401558 195.112765 
L 146.71436 170.018956 
L 150.027161 185.702587 
L 153.339963 189.231404 
L 156.652764 182.17377 
L 159.965566 170.803138 
L 163.278367 163.745504 
L 166.591169 165.313867 
L 169.90397 166.490139 
L 173.216772 178.252862 
L 176.529573 175.900318 
L 179.842375 182.957951 
L 183.155176 181.781679 
L 186.467978 175.900318 
L 189.780779 182.957951 
L 193.093581 183.350042 
L 196.406382 189.231404 
L 199.719184 189.623494 
L 203.031985 184.918405 
L 206.344787 179.037044 
L 209.657588 197.8574 
L 212.97039 195.504856 
L 216.283191 195.112765 
L 219.595993 204.915034 
L 222.908794 281.764823 
L 226.221596 215.501485 
L 229.534397 210.404305 
L 232.847199 238.63484 
L 236.16 226.480026 
L 239.472801 254.710561 
L 242.785603 221.382846 
L 246.098404 242.555747 
L 249.411206 233.145569 
L 252.724007 233.145569 
L 256.036809 240.203203 
L 259.34961 253.926379 
L 262.662412 229.616752 
L 265.975213 247.260836 
L 269.288015 249.22129 
L 272.600816 226.087935 
L 275.913618 246.084564 
L 279.226419 247.260836 
L 282.539221 261.376104 
L 285.852022 246.868746 
L 289.164824 247.260836 
L 292.477625 234.321841 
L 295.790427 233.53766 
L 299.103228 248.829199 
L 302.41603 247.260836 
L 305.728831 257.063105 
L 309.041633 262.944467 
L 312.354434 253.142198 
L 315.667236 251.965925 
L 318.980037 279.80437 
L 322.292839 274.315099 
L 325.60564 272.354645 
L 328.918442 257.847287 
L 332.231243 268.433737 
L 335.544045 259.807741 
L 338.856846 250.005472 
L 342.169647 250.005472 
L 345.482449 236.674386 
L 348.79525 250.005472 
L 352.108052 283.725277 
L 355.420853 273.923008 
L 358.733655 251.573835 
L 362.046456 270.394191 
L 365.359258 270.786282 
L 368.672059 244.12411 
L 371.984861 264.51283 
L 375.297662 246.868746 
L 378.610464 248.437109 
L 381.923265 255.102652 
L 385.236067 253.142198 
L 388.548868 253.926379 
L 391.86167 255.494742 
L 395.174471 259.807741 
L 398.487273 249.22129 
" clip-path="url(#p6882ee2880)" style="fill: none; stroke: #d62728; stroke-width: 1.5; stroke-linecap: square"/>
   </g>
   <g id="line2d_21">
    <path d="M 73.832727 291.959183 
L 77.145529 90.424532 
L 80.45833 147.277692 
L 83.771132 110.42116 
L 87.083933 71.996266 
L 90.396735 262.944467 
L 93.709536 219.422392 
L 97.022338 124.928519 
L 100.335139 159.432506 
L 103.647941 197.8574 
L 106.960742 227.264207 
L 110.273544 242.947838 
L 113.586345 197.8574 
L 116.899147 201.386217 
L 120.211948 167.666412 
L 123.52475 171.587319 
L 126.837551 167.666412 
L 130.150353 175.508227 
L 133.463154 180.605407 
L 136.775955 176.292408 
L 140.088757 187.27095 
L 143.401558 191.976039 
L 146.71436 175.508227 
L 150.027161 186.878859 
L 153.339963 184.526314 
L 156.652764 179.429135 
L 159.965566 168.058502 
L 163.278367 168.450593 
L 166.591169 166.490139 
L 169.90397 168.842684 
L 173.216772 174.724045 
L 176.529573 174.331955 
L 179.842375 181.781679 
L 183.155176 180.213316 
L 186.467978 179.429135 
L 189.780779 180.605407 
L 193.093581 184.918405 
L 196.406382 193.544402 
L 199.719184 182.565861 
L 203.031985 184.918405 
L 206.344787 187.27095 
L 209.657588 197.073219 
L 212.97039 195.896947 
L 216.283191 191.583948 
L 219.595993 205.307125 
L 222.908794 280.980642 
L 226.221596 215.893575 
L 229.534397 208.05176 
L 232.847199 240.203203 
L 236.16 226.480026 
L 239.472801 257.847287 
L 242.785603 219.030301 
L 246.098404 240.595293 
L 249.411206 231.969297 
L 252.724007 233.92975 
L 256.036809 238.63484 
L 259.34961 255.886833 
L 262.662412 229.224661 
L 265.975213 246.476655 
L 269.288015 254.31847 
L 272.600816 225.303754 
L 275.913618 244.908292 
L 279.226419 250.789653 
L 282.539221 260.199831 
L 285.852022 246.868746 
L 289.164824 246.084564 
L 292.477625 232.753478 
L 295.790427 237.458567 
L 299.103228 245.692473 
L 302.41603 244.908292 
L 305.728831 259.41565 
L 309.041633 259.41565 
L 312.354434 252.358016 
L 315.667236 250.789653 
L 318.980037 280.588551 
L 322.292839 273.923008 
L 325.60564 269.61001 
L 328.918442 257.063105 
L 332.231243 268.041647 
L 335.544045 261.768194 
L 338.856846 250.397562 
L 342.169647 252.358016 
L 345.482449 237.850658 
L 348.79525 250.397562 
L 352.108052 282.941096 
L 355.420853 271.570464 
L 358.733655 251.965925 
L 362.046456 268.825828 
L 365.359258 272.746736 
L 368.672059 239.811112 
L 371.984861 265.297011 
L 375.297662 248.045018 
L 378.610464 250.397562 
L 381.923265 255.494742 
L 385.236067 251.965925 
L 388.548868 251.965925 
L 391.86167 255.102652 
L 395.174471 259.41565 
L 398.487273 248.829199 
" clip-path="url(#p6882ee2880)" style="fill: none; stroke: #9467bd; stroke-width: 1.5; stroke-linecap: square"/>
   </g>
   <g id="line2d_22">
    <path d="M 77.145529 66.899086 
L 80.45833 133.946606 
L 83.771132 110.813251 
L 87.083933 68.85954 
L 90.396735 262.160285 
L 93.709536 217.461938 
L 97.022338 127.281063 
L 100.335139 150.806509 
L 103.647941 198.249491 
L 106.960742 229.616752 
L 110.273544 241.771566 
L 113.586345 204.130853 
L 116.899147 197.46531 
L 120.211948 163.745504 
L 123.52475 168.450593 
L 126.837551 161.78505 
L 130.150353 171.97941 
L 133.463154 180.605407 
L 136.775955 177.468681 
L 140.088757 184.526314 
L 143.401558 196.289037 
L 146.71436 173.939864 
L 150.027161 186.878859 
L 153.339963 188.839313 
L 156.652764 180.605407 
L 159.965566 169.626865 
L 163.278367 165.313867 
L 166.591169 165.705958 
L 169.90397 168.450593 
L 173.216772 178.644953 
L 176.529573 177.07659 
L 179.842375 182.17377 
L 183.155176 179.429135 
L 186.467978 175.508227 
L 189.780779 181.389588 
L 193.093581 184.526314 
L 196.406382 187.663041 
L 199.719184 188.839313 
L 203.031985 184.134224 
L 206.344787 180.605407 
L 209.657588 196.681128 
L 212.97039 195.112765 
L 216.283191 192.76022 
L 219.595993 204.915034 
L 222.908794 280.19646 
L 226.221596 215.893575 
L 229.534397 210.404305 
L 232.847199 239.02693 
L 236.16 226.087935 
L 239.472801 255.102652 
L 242.785603 218.638211 
L 246.098404 241.379475 
L 249.411206 234.321841 
L 252.724007 233.145569 
L 256.036809 239.419021 
L 259.34961 253.142198 
L 262.662412 228.44048 
L 265.975213 246.476655 
L 269.288015 250.397562 
L 272.600816 224.519572 
L 275.913618 245.692473 
L 279.226419 250.397562 
L 282.539221 261.376104 
L 285.852022 246.868746 
L 289.164824 246.868746 
L 292.477625 234.321841 
L 295.790427 234.321841 
L 299.103228 247.260836 
L 302.41603 245.692473 
L 305.728831 257.455196 
L 309.041633 262.552376 
L 312.354434 252.750107 
L 315.667236 251.181744 
L 318.980037 280.19646 
L 322.292839 274.315099 
L 325.60564 271.570464 
L 328.918442 258.631468 
L 332.231243 268.825828 
L 335.544045 261.768194 
L 338.856846 249.22129 
L 342.169647 250.789653 
L 345.482449 237.458567 
L 348.79525 250.005472 
L 352.108052 283.725277 
L 355.420853 273.138827 
L 358.733655 250.789653 
L 362.046456 270.394191 
L 365.359258 271.178373 
L 368.672059 241.379475 
L 371.984861 264.120739 
L 375.297662 247.260836 
L 378.610464 249.22129 
L 381.923265 255.494742 
L 385.236067 252.358016 
L 388.548868 251.965925 
L 391.86167 254.710561 
L 395.174471 258.631468 
L 398.487273 249.613381 
" clip-path="url(#p6882ee2880)" style="fill: none; stroke: #8c564b; stroke-width: 1.5; stroke-linecap: square"/>
   </g>
   <g id="patch_3">
    <path d="M 57.6 307.584 
L 57.6 41.472 
" style="fill: none; stroke: #000000; stroke-width: 0.8; stroke-linejoin: miter; stroke-linecap: square"/>
   </g>
   <g id="patch_4">
    <path d="M 414.72 307.584 
L 414.72 41.472 
" style="fill: none; stroke: #000000; stroke-width: 0.8; stroke-linejoin: miter; stroke-linecap: square"/>
   </g>
   <g id="patch_5">
    <path d="M 57.6 307.584 
L 414.72 307.584 
" style="fill: none; stroke: #000000; stroke-width: 0.8; stroke-linejoin: miter; stroke-linecap: square"/>
   </g>
   <g id="patch_6">
    <path d="M 57.6 41.472 
L 414.72 41.472 
" style="fill: none; stroke: #000000; stroke-width: 0.8; stroke-linejoin: miter; stroke-linecap: square"/>
   </g>
   <g id="legend_1">
    <g id="patch_7">
     <path d="M 350.32 138.097 
L 407.72 138.097 
Q 409.72 138.097 409.72 136.097 
L 409.72 48.472 
Q 409.72 46.472 407.72 46.472 
L 350.32 46.472 
Q 348.32 46.472 348.32 48.472 
L 348.32 136.097 
Q 348.32 138.097 350.32 138.097 
z
" style="fill: #ffffff; opacity: 0.8; stroke: #cccccc; stroke-linejoin: miter"/>
    </g>
    <g id="line2d_23">
     <path d="M 352.32 54.570438 
L 362.32 54.570438 
L 372.32 54.570438 
" style="fill: none; stroke: #1f77b4; stroke-width: 1.5; stroke-linecap: square"/>
    </g>
    <g id="text_19">
     <!-- h1h3 -->
     <g transform="translate(380.32 58.070438)scale(0.1 -0.1)">
      <defs>
       <path id="DejaVuSans-68" d="M 3513 2113 
L 3513 0 
L 2938 0 
L 2938 2094 
Q 2938 2591 2744 2837 
Q 2550 3084 2163 3084 
Q 1697 3084 1428 2787 
Q 1159 2491 1159 1978 
L 1159 0 
L 581 0 
L 581 4863 
L 1159 4863 
L 1159 2956 
Q 1366 3272 1645 3428 
Q 1925 3584 2291 3584 
Q 2894 3584 3203 3211 
Q 3513 2838 3513 2113 
z
" transform="scale(0.015625)"/>
      </defs>
      <use xlink:href="#DejaVuSans-68"/>
      <use xlink:href="#DejaVuSans-31" x="63.378906"/>
      <use xlink:href="#DejaVuSans-68" x="127.001953"/>
      <use xlink:href="#DejaVuSans-33" x="190.380859"/>
     </g>
    </g>
    <g id="line2d_24">
     <path d="M 352.32 69.248563 
L 362.32 69.248563 
L 372.32 69.248563 
" style="fill: none; stroke: #ff7f0e; stroke-width: 1.5; stroke-linecap: square"/>
    </g>
    <g id="text_20">
     <!-- h1h4 -->
     <g transform="translate(380.32 72.748563)scale(0.1 -0.1)">
      <use xlink:href="#DejaVuSans-68"/>
      <use xlink:href="#DejaVuSans-31" x="63.378906"/>
      <use xlink:href="#DejaVuSans-68" x="127.001953"/>
      <use xlink:href="#DejaVuSans-34" x="190.380859"/>
     </g>
    </g>
    <g id="line2d_25">
     <path d="M 352.32 83.926688 
L 362.32 83.926688 
L 372.32 83.926688 
" style="fill: none; stroke: #2ca02c; stroke-width: 1.5; stroke-linecap: square"/>
    </g>
    <g id="text_21">
     <!-- h2h3 -->
     <g transform="translate(380.32 87.426688)scale(0.1 -0.1)">
      <use xlink:href="#DejaVuSans-68"/>
      <use xlink:href="#DejaVuSans-32" x="63.378906"/>
      <use xlink:href="#DejaVuSans-68" x="127.001953"/>
      <use xlink:href="#DejaVuSans-33" x="190.380859"/>
     </g>
    </g>
    <g id="line2d_26">
     <path d="M 352.32 98.604813 
L 362.32 98.604813 
L 372.32 98.604813 
" style="fill: none; stroke: #d62728; stroke-width: 1.5; stroke-linecap: square"/>
    </g>
    <g id="text_22">
     <!-- h2h4 -->
     <g transform="translate(380.32 102.104813)scale(0.1 -0.1)">
      <use xlink:href="#DejaVuSans-68"/>
      <use xlink:href="#DejaVuSans-32" x="63.378906"/>
      <use xlink:href="#DejaVuSans-68" x="127.001953"/>
      <use xlink:href="#DejaVuSans-34" x="190.380859"/>
     </g>
    </g>
    <g id="line2d_27">
     <path d="M 352.32 113.282938 
L 362.32 113.282938 
L 372.32 113.282938 
" style="fill: none; stroke: #9467bd; stroke-width: 1.5; stroke-linecap: square"/>
    </g>
    <g id="text_23">
     <!-- h_h3 -->
     <g transform="translate(380.32 116.782938)scale(0.1 -0.1)">
      <defs>
       <path id="DejaVuSans-5f" d="M 3263 -1063 
L 3263 -1509 
L -63 -1509 
L -63 -1063 
L 3263 -1063 
z
" transform="scale(0.015625)"/>
      </defs>
      <use xlink:href="#DejaVuSans-68"/>
      <use xlink:href="#DejaVuSans-5f" x="63.378906"/>
      <use xlink:href="#DejaVuSans-68" x="113.378906"/>
      <use xlink:href="#DejaVuSans-33" x="176.757812"/>
     </g>
    </g>
    <g id="line2d_28">
     <path d="M 352.32 128.239188 
L 362.32 128.239188 
L 372.32 128.239188 
" style="fill: none; stroke: #8c564b; stroke-width: 1.5; stroke-linecap: square"/>
    </g>
    <g id="text_24">
     <!-- h_h4 -->
     <g transform="translate(380.32 131.739188)scale(0.1 -0.1)">
      <use xlink:href="#DejaVuSans-68"/>
      <use xlink:href="#DejaVuSans-5f" x="63.378906"/>
      <use xlink:href="#DejaVuSans-68" x="113.378906"/>
      <use xlink:href="#DejaVuSans-34" x="176.757812"/>
     </g>
    </g>
   </g>
  </g>
 </g>
 <defs>
  <clipPath id="p6882ee2880">
   <rect x="57.6" y="41.472" width="357.12" height="266.112"/>
  </clipPath>
 </defs>
</svg>
