<?xml version="1.0" encoding="utf-8" standalone="no"?>
<!DOCTYPE svg PUBLIC "-//W3C//DTD SVG 1.1//EN"
  "http://www.w3.org/Graphics/SVG/1.1/DTD/svg11.dtd">
<svg xmlns:xlink="http://www.w3.org/1999/xlink" width="460.8pt" height="345.6pt" viewBox="0 0 460.8 345.6" xmlns="http://www.w3.org/2000/svg" version="1.1">
 <metadata>
  <rdf:RDF xmlns:dc="http://purl.org/dc/elements/1.1/" xmlns:cc="http://creativecommons.org/ns#" xmlns:rdf="http://www.w3.org/1999/02/22-rdf-syntax-ns#">
   <cc:Work>
    <dc:type rdf:resource="http://purl.org/dc/dcmitype/StillImage"/>
    <dc:date>2022-09-06T00:24:45.058661</dc:date>
    <dc:format>image/svg+xml</dc:format>
    <dc:creator>
     <cc:Agent>
      <dc:title>Matplotlib v3.5.3, https://matplotlib.org/</dc:title>
     </cc:Agent>
    </dc:creator>
   </cc:Work>
  </rdf:RDF>
 </metadata>
 <defs>
  <style type="text/css">*{stroke-linejoin: round; stroke-linecap: butt}</style>
 </defs>
 <g id="figure_1">
  <g id="patch_1">
   <path d="M 0 345.6 
L 460.8 345.6 
L 460.8 0 
L 0 0 
z
" style="fill: #ffffff"/>
  </g>
  <g id="axes_1">
   <g id="patch_2">
    <path d="M 57.6 307.584 
L 414.72 307.584 
L 414.72 41.472 
L 57.6 41.472 
z
" style="fill: #ffffff"/>
   </g>
   <g id="matplotlib.axis_1">
    <g id="xtick_1">
     <g id="line2d_1">
      <defs>
       <path id="m4c7935ba13" d="M 0 0 
L 0 3.5 
" style="stroke: #000000; stroke-width: 0.8"/>
      </defs>
      <g>
       <use xlink:href="#m4c7935ba13" x="70.553388" y="307.584" style="stroke: #000000; stroke-width: 0.8"/>
      </g>
     </g>
     <g id="text_1">
      <!-- 0 -->
      <g transform="translate(67.372138 322.182437)scale(0.1 -0.1)">
       <defs>
        <path id="DejaVuSans-30" d="M 2034 4250 
Q 1547 4250 1301 3770 
Q 1056 3291 1056 2328 
Q 1056 1369 1301 889 
Q 1547 409 2034 409 
Q 2525 409 2770 889 
Q 3016 1369 3016 2328 
Q 3016 3291 2770 3770 
Q 2525 4250 2034 4250 
z
M 2034 4750 
Q 2819 4750 3233 4129 
Q 3647 3509 3647 2328 
Q 3647 1150 3233 529 
Q 2819 -91 2034 -91 
Q 1250 -91 836 529 
Q 422 1150 422 2328 
Q 422 3509 836 4129 
Q 1250 4750 2034 4750 
z
" transform="scale(0.015625)"/>
       </defs>
       <use xlink:href="#DejaVuSans-30"/>
      </g>
     </g>
    </g>
    <g id="xtick_2">
     <g id="line2d_2">
      <g>
       <use xlink:href="#m4c7935ba13" x="111.545124" y="307.584" style="stroke: #000000; stroke-width: 0.8"/>
      </g>
     </g>
     <g id="text_2">
      <!-- 50 -->
      <g transform="translate(105.182624 322.182437)scale(0.1 -0.1)">
       <defs>
        <path id="DejaVuSans-35" d="M 691 4666 
L 3169 4666 
L 3169 4134 
L 1269 4134 
L 1269 2991 
Q 1406 3038 1543 3061 
Q 1681 3084 1819 3084 
Q 2600 3084 3056 2656 
Q 3513 2228 3513 1497 
Q 3513 744 3044 326 
Q 2575 -91 1722 -91 
Q 1428 -91 1123 -41 
Q 819 9 494 109 
L 494 744 
Q 775 591 1075 516 
Q 1375 441 1709 441 
Q 2250 441 2565 725 
Q 2881 1009 2881 1497 
Q 2881 1984 2565 2268 
Q 2250 2553 1709 2553 
Q 1456 2553 1204 2497 
Q 953 2441 691 2322 
L 691 4666 
z
" transform="scale(0.015625)"/>
       </defs>
       <use xlink:href="#DejaVuSans-35"/>
       <use xlink:href="#DejaVuSans-30" x="63.623047"/>
      </g>
     </g>
    </g>
    <g id="xtick_3">
     <g id="line2d_3">
      <g>
       <use xlink:href="#m4c7935ba13" x="152.53686" y="307.584" style="stroke: #000000; stroke-width: 0.8"/>
      </g>
     </g>
     <g id="text_3">
      <!-- 100 -->
      <g transform="translate(142.99311 322.182437)scale(0.1 -0.1)">
       <defs>
        <path id="DejaVuSans-31" d="M 794 531 
L 1825 531 
L 1825 4091 
L 703 3866 
L 703 4441 
L 1819 4666 
L 2450 4666 
L 2450 531 
L 3481 531 
L 3481 0 
L 794 0 
L 794 531 
z
" transform="scale(0.015625)"/>
       </defs>
       <use xlink:href="#DejaVuSans-31"/>
       <use xlink:href="#DejaVuSans-30" x="63.623047"/>
       <use xlink:href="#DejaVuSans-30" x="127.246094"/>
      </g>
     </g>
    </g>
    <g id="xtick_4">
     <g id="line2d_4">
      <g>
       <use xlink:href="#m4c7935ba13" x="193.528595" y="307.584" style="stroke: #000000; stroke-width: 0.8"/>
      </g>
     </g>
     <g id="text_4">
      <!-- 150 -->
      <g transform="translate(183.984845 322.182437)scale(0.1 -0.1)">
       <use xlink:href="#DejaVuSans-31"/>
       <use xlink:href="#DejaVuSans-35" x="63.623047"/>
       <use xlink:href="#DejaVuSans-30" x="127.246094"/>
      </g>
     </g>
    </g>
    <g id="xtick_5">
     <g id="line2d_5">
      <g>
       <use xlink:href="#m4c7935ba13" x="234.520331" y="307.584" style="stroke: #000000; stroke-width: 0.8"/>
      </g>
     </g>
     <g id="text_5">
      <!-- 200 -->
      <g transform="translate(224.976581 322.182437)scale(0.1 -0.1)">
       <defs>
        <path id="DejaVuSans-32" d="M 1228 531 
L 3431 531 
L 3431 0 
L 469 0 
L 469 531 
Q 828 903 1448 1529 
Q 2069 2156 2228 2338 
Q 2531 2678 2651 2914 
Q 2772 3150 2772 3378 
Q 2772 3750 2511 3984 
Q 2250 4219 1831 4219 
Q 1534 4219 1204 4116 
Q 875 4013 500 3803 
L 500 4441 
Q 881 4594 1212 4672 
Q 1544 4750 1819 4750 
Q 2544 4750 2975 4387 
Q 3406 4025 3406 3419 
Q 3406 3131 3298 2873 
Q 3191 2616 2906 2266 
Q 2828 2175 2409 1742 
Q 1991 1309 1228 531 
z
" transform="scale(0.015625)"/>
       </defs>
       <use xlink:href="#DejaVuSans-32"/>
       <use xlink:href="#DejaVuSans-30" x="63.623047"/>
       <use xlink:href="#DejaVuSans-30" x="127.246094"/>
      </g>
     </g>
    </g>
    <g id="xtick_6">
     <g id="line2d_6">
      <g>
       <use xlink:href="#m4c7935ba13" x="275.512066" y="307.584" style="stroke: #000000; stroke-width: 0.8"/>
      </g>
     </g>
     <g id="text_6">
      <!-- 250 -->
      <g transform="translate(265.968316 322.182437)scale(0.1 -0.1)">
       <use xlink:href="#DejaVuSans-32"/>
       <use xlink:href="#DejaVuSans-35" x="63.623047"/>
       <use xlink:href="#DejaVuSans-30" x="127.246094"/>
      </g>
     </g>
    </g>
    <g id="xtick_7">
     <g id="line2d_7">
      <g>
       <use xlink:href="#m4c7935ba13" x="316.503802" y="307.584" style="stroke: #000000; stroke-width: 0.8"/>
      </g>
     </g>
     <g id="text_7">
      <!-- 300 -->
      <g transform="translate(306.960052 322.182437)scale(0.1 -0.1)">
       <defs>
        <path id="DejaVuSans-33" d="M 2597 2516 
Q 3050 2419 3304 2112 
Q 3559 1806 3559 1356 
Q 3559 666 3084 287 
Q 2609 -91 1734 -91 
Q 1441 -91 1130 -33 
Q 819 25 488 141 
L 488 750 
Q 750 597 1062 519 
Q 1375 441 1716 441 
Q 2309 441 2620 675 
Q 2931 909 2931 1356 
Q 2931 1769 2642 2001 
Q 2353 2234 1838 2234 
L 1294 2234 
L 1294 2753 
L 1863 2753 
Q 2328 2753 2575 2939 
Q 2822 3125 2822 3475 
Q 2822 3834 2567 4026 
Q 2313 4219 1838 4219 
Q 1578 4219 1281 4162 
Q 984 4106 628 3988 
L 628 4550 
Q 988 4650 1302 4700 
Q 1616 4750 1894 4750 
Q 2613 4750 3031 4423 
Q 3450 4097 3450 3541 
Q 3450 3153 3228 2886 
Q 3006 2619 2597 2516 
z
" transform="scale(0.015625)"/>
       </defs>
       <use xlink:href="#DejaVuSans-33"/>
       <use xlink:href="#DejaVuSans-30" x="63.623047"/>
       <use xlink:href="#DejaVuSans-30" x="127.246094"/>
      </g>
     </g>
    </g>
    <g id="xtick_8">
     <g id="line2d_8">
      <g>
       <use xlink:href="#m4c7935ba13" x="357.495537" y="307.584" style="stroke: #000000; stroke-width: 0.8"/>
      </g>
     </g>
     <g id="text_8">
      <!-- 350 -->
      <g transform="translate(347.951787 322.182437)scale(0.1 -0.1)">
       <use xlink:href="#DejaVuSans-33"/>
       <use xlink:href="#DejaVuSans-35" x="63.623047"/>
       <use xlink:href="#DejaVuSans-30" x="127.246094"/>
      </g>
     </g>
    </g>
    <g id="xtick_9">
     <g id="line2d_9">
      <g>
       <use xlink:href="#m4c7935ba13" x="398.487273" y="307.584" style="stroke: #000000; stroke-width: 0.8"/>
      </g>
     </g>
     <g id="text_9">
      <!-- 400 -->
      <g transform="translate(388.943523 322.182437)scale(0.1 -0.1)">
       <defs>
        <path id="DejaVuSans-34" d="M 2419 4116 
L 825 1625 
L 2419 1625 
L 2419 4116 
z
M 2253 4666 
L 3047 4666 
L 3047 1625 
L 3713 1625 
L 3713 1100 
L 3047 1100 
L 3047 0 
L 2419 0 
L 2419 1100 
L 313 1100 
L 313 1709 
L 2253 4666 
z
" transform="scale(0.015625)"/>
       </defs>
       <use xlink:href="#DejaVuSans-34"/>
       <use xlink:href="#DejaVuSans-30" x="63.623047"/>
       <use xlink:href="#DejaVuSans-30" x="127.246094"/>
      </g>
     </g>
    </g>
    <g id="text_10">
     <!-- Lambda Rate (pkt/s) -->
     <g transform="translate(185.16625 335.860562)scale(0.1 -0.1)">
      <defs>
       <path id="DejaVuSans-4c" d="M 628 4666 
L 1259 4666 
L 1259 531 
L 3531 531 
L 3531 0 
L 628 0 
L 628 4666 
z
" transform="scale(0.015625)"/>
       <path id="DejaVuSans-61" d="M 2194 1759 
Q 1497 1759 1228 1600 
Q 959 1441 959 1056 
Q 959 750 1161 570 
Q 1363 391 1709 391 
Q 2188 391 2477 730 
Q 2766 1069 2766 1631 
L 2766 1759 
L 2194 1759 
z
M 3341 1997 
L 3341 0 
L 2766 0 
L 2766 531 
Q 2569 213 2275 61 
Q 1981 -91 1556 -91 
Q 1019 -91 701 211 
Q 384 513 384 1019 
Q 384 1609 779 1909 
Q 1175 2209 1959 2209 
L 2766 2209 
L 2766 2266 
Q 2766 2663 2505 2880 
Q 2244 3097 1772 3097 
Q 1472 3097 1187 3025 
Q 903 2953 641 2809 
L 641 3341 
Q 956 3463 1253 3523 
Q 1550 3584 1831 3584 
Q 2591 3584 2966 3190 
Q 3341 2797 3341 1997 
z
" transform="scale(0.015625)"/>
       <path id="DejaVuSans-6d" d="M 3328 2828 
Q 3544 3216 3844 3400 
Q 4144 3584 4550 3584 
Q 5097 3584 5394 3201 
Q 5691 2819 5691 2113 
L 5691 0 
L 5113 0 
L 5113 2094 
Q 5113 2597 4934 2840 
Q 4756 3084 4391 3084 
Q 3944 3084 3684 2787 
Q 3425 2491 3425 1978 
L 3425 0 
L 2847 0 
L 2847 2094 
Q 2847 2600 2669 2842 
Q 2491 3084 2119 3084 
Q 1678 3084 1418 2786 
Q 1159 2488 1159 1978 
L 1159 0 
L 581 0 
L 581 3500 
L 1159 3500 
L 1159 2956 
Q 1356 3278 1631 3431 
Q 1906 3584 2284 3584 
Q 2666 3584 2933 3390 
Q 3200 3197 3328 2828 
z
" transform="scale(0.015625)"/>
       <path id="DejaVuSans-62" d="M 3116 1747 
Q 3116 2381 2855 2742 
Q 2594 3103 2138 3103 
Q 1681 3103 1420 2742 
Q 1159 2381 1159 1747 
Q 1159 1113 1420 752 
Q 1681 391 2138 391 
Q 2594 391 2855 752 
Q 3116 1113 3116 1747 
z
M 1159 2969 
Q 1341 3281 1617 3432 
Q 1894 3584 2278 3584 
Q 2916 3584 3314 3078 
Q 3713 2572 3713 1747 
Q 3713 922 3314 415 
Q 2916 -91 2278 -91 
Q 1894 -91 1617 61 
Q 1341 213 1159 525 
L 1159 0 
L 581 0 
L 581 4863 
L 1159 4863 
L 1159 2969 
z
" transform="scale(0.015625)"/>
       <path id="DejaVuSans-64" d="M 2906 2969 
L 2906 4863 
L 3481 4863 
L 3481 0 
L 2906 0 
L 2906 525 
Q 2725 213 2448 61 
Q 2172 -91 1784 -91 
Q 1150 -91 751 415 
Q 353 922 353 1747 
Q 353 2572 751 3078 
Q 1150 3584 1784 3584 
Q 2172 3584 2448 3432 
Q 2725 3281 2906 2969 
z
M 947 1747 
Q 947 1113 1208 752 
Q 1469 391 1925 391 
Q 2381 391 2643 752 
Q 2906 1113 2906 1747 
Q 2906 2381 2643 2742 
Q 2381 3103 1925 3103 
Q 1469 3103 1208 2742 
Q 947 2381 947 1747 
z
" transform="scale(0.015625)"/>
       <path id="DejaVuSans-20" transform="scale(0.015625)"/>
       <path id="DejaVuSans-52" d="M 2841 2188 
Q 3044 2119 3236 1894 
Q 3428 1669 3622 1275 
L 4263 0 
L 3584 0 
L 2988 1197 
Q 2756 1666 2539 1819 
Q 2322 1972 1947 1972 
L 1259 1972 
L 1259 0 
L 628 0 
L 628 4666 
L 2053 4666 
Q 2853 4666 3247 4331 
Q 3641 3997 3641 3322 
Q 3641 2881 3436 2590 
Q 3231 2300 2841 2188 
z
M 1259 4147 
L 1259 2491 
L 2053 2491 
Q 2509 2491 2742 2702 
Q 2975 2913 2975 3322 
Q 2975 3731 2742 3939 
Q 2509 4147 2053 4147 
L 1259 4147 
z
" transform="scale(0.015625)"/>
       <path id="DejaVuSans-74" d="M 1172 4494 
L 1172 3500 
L 2356 3500 
L 2356 3053 
L 1172 3053 
L 1172 1153 
Q 1172 725 1289 603 
Q 1406 481 1766 481 
L 2356 481 
L 2356 0 
L 1766 0 
Q 1100 0 847 248 
Q 594 497 594 1153 
L 594 3053 
L 172 3053 
L 172 3500 
L 594 3500 
L 594 4494 
L 1172 4494 
z
" transform="scale(0.015625)"/>
       <path id="DejaVuSans-65" d="M 3597 1894 
L 3597 1613 
L 953 1613 
Q 991 1019 1311 708 
Q 1631 397 2203 397 
Q 2534 397 2845 478 
Q 3156 559 3463 722 
L 3463 178 
Q 3153 47 2828 -22 
Q 2503 -91 2169 -91 
Q 1331 -91 842 396 
Q 353 884 353 1716 
Q 353 2575 817 3079 
Q 1281 3584 2069 3584 
Q 2775 3584 3186 3129 
Q 3597 2675 3597 1894 
z
M 3022 2063 
Q 3016 2534 2758 2815 
Q 2500 3097 2075 3097 
Q 1594 3097 1305 2825 
Q 1016 2553 972 2059 
L 3022 2063 
z
" transform="scale(0.015625)"/>
       <path id="DejaVuSans-28" d="M 1984 4856 
Q 1566 4138 1362 3434 
Q 1159 2731 1159 2009 
Q 1159 1288 1364 580 
Q 1569 -128 1984 -844 
L 1484 -844 
Q 1016 -109 783 600 
Q 550 1309 550 2009 
Q 550 2706 781 3412 
Q 1013 4119 1484 4856 
L 1984 4856 
z
" transform="scale(0.015625)"/>
       <path id="DejaVuSans-70" d="M 1159 525 
L 1159 -1331 
L 581 -1331 
L 581 3500 
L 1159 3500 
L 1159 2969 
Q 1341 3281 1617 3432 
Q 1894 3584 2278 3584 
Q 2916 3584 3314 3078 
Q 3713 2572 3713 1747 
Q 3713 922 3314 415 
Q 2916 -91 2278 -91 
Q 1894 -91 1617 61 
Q 1341 213 1159 525 
z
M 3116 1747 
Q 3116 2381 2855 2742 
Q 2594 3103 2138 3103 
Q 1681 3103 1420 2742 
Q 1159 2381 1159 1747 
Q 1159 1113 1420 752 
Q 1681 391 2138 391 
Q 2594 391 2855 752 
Q 3116 1113 3116 1747 
z
" transform="scale(0.015625)"/>
       <path id="DejaVuSans-6b" d="M 581 4863 
L 1159 4863 
L 1159 1991 
L 2875 3500 
L 3609 3500 
L 1753 1863 
L 3688 0 
L 2938 0 
L 1159 1709 
L 1159 0 
L 581 0 
L 581 4863 
z
" transform="scale(0.015625)"/>
       <path id="DejaVuSans-2f" d="M 1625 4666 
L 2156 4666 
L 531 -594 
L 0 -594 
L 1625 4666 
z
" transform="scale(0.015625)"/>
       <path id="DejaVuSans-73" d="M 2834 3397 
L 2834 2853 
Q 2591 2978 2328 3040 
Q 2066 3103 1784 3103 
Q 1356 3103 1142 2972 
Q 928 2841 928 2578 
Q 928 2378 1081 2264 
Q 1234 2150 1697 2047 
L 1894 2003 
Q 2506 1872 2764 1633 
Q 3022 1394 3022 966 
Q 3022 478 2636 193 
Q 2250 -91 1575 -91 
Q 1294 -91 989 -36 
Q 684 19 347 128 
L 347 722 
Q 666 556 975 473 
Q 1284 391 1588 391 
Q 1994 391 2212 530 
Q 2431 669 2431 922 
Q 2431 1156 2273 1281 
Q 2116 1406 1581 1522 
L 1381 1569 
Q 847 1681 609 1914 
Q 372 2147 372 2553 
Q 372 3047 722 3315 
Q 1072 3584 1716 3584 
Q 2034 3584 2315 3537 
Q 2597 3491 2834 3397 
z
" transform="scale(0.015625)"/>
       <path id="DejaVuSans-29" d="M 513 4856 
L 1013 4856 
Q 1481 4119 1714 3412 
Q 1947 2706 1947 2009 
Q 1947 1309 1714 600 
Q 1481 -109 1013 -844 
L 513 -844 
Q 928 -128 1133 580 
Q 1338 1288 1338 2009 
Q 1338 2731 1133 3434 
Q 928 4138 513 4856 
z
" transform="scale(0.015625)"/>
      </defs>
      <use xlink:href="#DejaVuSans-4c"/>
      <use xlink:href="#DejaVuSans-61" x="55.712891"/>
      <use xlink:href="#DejaVuSans-6d" x="116.992188"/>
      <use xlink:href="#DejaVuSans-62" x="214.404297"/>
      <use xlink:href="#DejaVuSans-64" x="277.880859"/>
      <use xlink:href="#DejaVuSans-61" x="341.357422"/>
      <use xlink:href="#DejaVuSans-20" x="402.636719"/>
      <use xlink:href="#DejaVuSans-52" x="434.423828"/>
      <use xlink:href="#DejaVuSans-61" x="501.65625"/>
      <use xlink:href="#DejaVuSans-74" x="562.935547"/>
      <use xlink:href="#DejaVuSans-65" x="602.144531"/>
      <use xlink:href="#DejaVuSans-20" x="663.667969"/>
      <use xlink:href="#DejaVuSans-28" x="695.455078"/>
      <use xlink:href="#DejaVuSans-70" x="734.46875"/>
      <use xlink:href="#DejaVuSans-6b" x="797.945312"/>
      <use xlink:href="#DejaVuSans-74" x="855.855469"/>
      <use xlink:href="#DejaVuSans-2f" x="895.064453"/>
      <use xlink:href="#DejaVuSans-73" x="928.755859"/>
      <use xlink:href="#DejaVuSans-29" x="980.855469"/>
     </g>
    </g>
   </g>
   <g id="matplotlib.axis_2">
    <g id="ytick_1">
     <g id="line2d_10">
      <defs>
       <path id="m28134a7875" d="M 0 0 
L -3.5 0 
" style="stroke: #000000; stroke-width: 0.8"/>
      </defs>
      <g>
       <use xlink:href="#m28134a7875" x="57.6" y="301.329818" style="stroke: #000000; stroke-width: 0.8"/>
      </g>
     </g>
     <g id="text_11">
      <!-- 0.0601 -->
      <g transform="translate(15.609375 305.129037)scale(0.1 -0.1)">
       <defs>
        <path id="DejaVuSans-2e" d="M 684 794 
L 1344 794 
L 1344 0 
L 684 0 
L 684 794 
z
" transform="scale(0.015625)"/>
        <path id="DejaVuSans-36" d="M 2113 2584 
Q 1688 2584 1439 2293 
Q 1191 2003 1191 1497 
Q 1191 994 1439 701 
Q 1688 409 2113 409 
Q 2538 409 2786 701 
Q 3034 994 3034 1497 
Q 3034 2003 2786 2293 
Q 2538 2584 2113 2584 
z
M 3366 4563 
L 3366 3988 
Q 3128 4100 2886 4159 
Q 2644 4219 2406 4219 
Q 1781 4219 1451 3797 
Q 1122 3375 1075 2522 
Q 1259 2794 1537 2939 
Q 1816 3084 2150 3084 
Q 2853 3084 3261 2657 
Q 3669 2231 3669 1497 
Q 3669 778 3244 343 
Q 2819 -91 2113 -91 
Q 1303 -91 875 529 
Q 447 1150 447 2328 
Q 447 3434 972 4092 
Q 1497 4750 2381 4750 
Q 2619 4750 2861 4703 
Q 3103 4656 3366 4563 
z
" transform="scale(0.015625)"/>
       </defs>
       <use xlink:href="#DejaVuSans-30"/>
       <use xlink:href="#DejaVuSans-2e" x="63.623047"/>
       <use xlink:href="#DejaVuSans-30" x="95.410156"/>
       <use xlink:href="#DejaVuSans-36" x="159.033203"/>
       <use xlink:href="#DejaVuSans-30" x="222.65625"/>
       <use xlink:href="#DejaVuSans-31" x="286.279297"/>
      </g>
     </g>
    </g>
    <g id="ytick_2">
     <g id="line2d_11">
      <g>
       <use xlink:href="#m28134a7875" x="57.6" y="266.966182" style="stroke: #000000; stroke-width: 0.8"/>
      </g>
     </g>
     <g id="text_12">
      <!-- 0.0602 -->
      <g transform="translate(15.609375 270.765401)scale(0.1 -0.1)">
       <use xlink:href="#DejaVuSans-30"/>
       <use xlink:href="#DejaVuSans-2e" x="63.623047"/>
       <use xlink:href="#DejaVuSans-30" x="95.410156"/>
       <use xlink:href="#DejaVuSans-36" x="159.033203"/>
       <use xlink:href="#DejaVuSans-30" x="222.65625"/>
       <use xlink:href="#DejaVuSans-32" x="286.279297"/>
      </g>
     </g>
    </g>
    <g id="ytick_3">
     <g id="line2d_12">
      <g>
       <use xlink:href="#m28134a7875" x="57.6" y="232.602545" style="stroke: #000000; stroke-width: 0.8"/>
      </g>
     </g>
     <g id="text_13">
      <!-- 0.0603 -->
      <g transform="translate(15.609375 236.401764)scale(0.1 -0.1)">
       <use xlink:href="#DejaVuSans-30"/>
       <use xlink:href="#DejaVuSans-2e" x="63.623047"/>
       <use xlink:href="#DejaVuSans-30" x="95.410156"/>
       <use xlink:href="#DejaVuSans-36" x="159.033203"/>
       <use xlink:href="#DejaVuSans-30" x="222.65625"/>
       <use xlink:href="#DejaVuSans-33" x="286.279297"/>
      </g>
     </g>
    </g>
    <g id="ytick_4">
     <g id="line2d_13">
      <g>
       <use xlink:href="#m28134a7875" x="57.6" y="198.238909" style="stroke: #000000; stroke-width: 0.8"/>
      </g>
     </g>
     <g id="text_14">
      <!-- 0.0604 -->
      <g transform="translate(15.609375 202.038128)scale(0.1 -0.1)">
       <use xlink:href="#DejaVuSans-30"/>
       <use xlink:href="#DejaVuSans-2e" x="63.623047"/>
       <use xlink:href="#DejaVuSans-30" x="95.410156"/>
       <use xlink:href="#DejaVuSans-36" x="159.033203"/>
       <use xlink:href="#DejaVuSans-30" x="222.65625"/>
       <use xlink:href="#DejaVuSans-34" x="286.279297"/>
      </g>
     </g>
    </g>
    <g id="ytick_5">
     <g id="line2d_14">
      <g>
       <use xlink:href="#m28134a7875" x="57.6" y="163.875273" style="stroke: #000000; stroke-width: 0.8"/>
      </g>
     </g>
     <g id="text_15">
      <!-- 0.0605 -->
      <g transform="translate(15.609375 167.674491)scale(0.1 -0.1)">
       <use xlink:href="#DejaVuSans-30"/>
       <use xlink:href="#DejaVuSans-2e" x="63.623047"/>
       <use xlink:href="#DejaVuSans-30" x="95.410156"/>
       <use xlink:href="#DejaVuSans-36" x="159.033203"/>
       <use xlink:href="#DejaVuSans-30" x="222.65625"/>
       <use xlink:href="#DejaVuSans-35" x="286.279297"/>
      </g>
     </g>
    </g>
    <g id="ytick_6">
     <g id="line2d_15">
      <g>
       <use xlink:href="#m28134a7875" x="57.6" y="129.511636" style="stroke: #000000; stroke-width: 0.8"/>
      </g>
     </g>
     <g id="text_16">
      <!-- 0.0606 -->
      <g transform="translate(15.609375 133.310855)scale(0.1 -0.1)">
       <use xlink:href="#DejaVuSans-30"/>
       <use xlink:href="#DejaVuSans-2e" x="63.623047"/>
       <use xlink:href="#DejaVuSans-30" x="95.410156"/>
       <use xlink:href="#DejaVuSans-36" x="159.033203"/>
       <use xlink:href="#DejaVuSans-30" x="222.65625"/>
       <use xlink:href="#DejaVuSans-36" x="286.279297"/>
      </g>
     </g>
    </g>
    <g id="ytick_7">
     <g id="line2d_16">
      <g>
       <use xlink:href="#m28134a7875" x="57.6" y="95.148" style="stroke: #000000; stroke-width: 0.8"/>
      </g>
     </g>
     <g id="text_17">
      <!-- 0.0607 -->
      <g transform="translate(15.609375 98.947219)scale(0.1 -0.1)">
       <defs>
        <path id="DejaVuSans-37" d="M 525 4666 
L 3525 4666 
L 3525 4397 
L 1831 0 
L 1172 0 
L 2766 4134 
L 525 4134 
L 525 4666 
z
" transform="scale(0.015625)"/>
       </defs>
       <use xlink:href="#DejaVuSans-30"/>
       <use xlink:href="#DejaVuSans-2e" x="63.623047"/>
       <use xlink:href="#DejaVuSans-30" x="95.410156"/>
       <use xlink:href="#DejaVuSans-36" x="159.033203"/>
       <use xlink:href="#DejaVuSans-30" x="222.65625"/>
       <use xlink:href="#DejaVuSans-37" x="286.279297"/>
      </g>
     </g>
    </g>
    <g id="ytick_8">
     <g id="line2d_17">
      <g>
       <use xlink:href="#m28134a7875" x="57.6" y="60.784364" style="stroke: #000000; stroke-width: 0.8"/>
      </g>
     </g>
     <g id="text_18">
      <!-- 0.0608 -->
      <g transform="translate(15.609375 64.583582)scale(0.1 -0.1)">
       <defs>
        <path id="DejaVuSans-38" d="M 2034 2216 
Q 1584 2216 1326 1975 
Q 1069 1734 1069 1313 
Q 1069 891 1326 650 
Q 1584 409 2034 409 
Q 2484 409 2743 651 
Q 3003 894 3003 1313 
Q 3003 1734 2745 1975 
Q 2488 2216 2034 2216 
z
M 1403 2484 
Q 997 2584 770 2862 
Q 544 3141 544 3541 
Q 544 4100 942 4425 
Q 1341 4750 2034 4750 
Q 2731 4750 3128 4425 
Q 3525 4100 3525 3541 
Q 3525 3141 3298 2862 
Q 3072 2584 2669 2484 
Q 3125 2378 3379 2068 
Q 3634 1759 3634 1313 
Q 3634 634 3220 271 
Q 2806 -91 2034 -91 
Q 1263 -91 848 271 
Q 434 634 434 1313 
Q 434 1759 690 2068 
Q 947 2378 1403 2484 
z
M 1172 3481 
Q 1172 3119 1398 2916 
Q 1625 2713 2034 2713 
Q 2441 2713 2670 2916 
Q 2900 3119 2900 3481 
Q 2900 3844 2670 4047 
Q 2441 4250 2034 4250 
Q 1625 4250 1398 4047 
Q 1172 3844 1172 3481 
z
" transform="scale(0.015625)"/>
       </defs>
       <use xlink:href="#DejaVuSans-30"/>
       <use xlink:href="#DejaVuSans-2e" x="63.623047"/>
       <use xlink:href="#DejaVuSans-30" x="95.410156"/>
       <use xlink:href="#DejaVuSans-36" x="159.033203"/>
       <use xlink:href="#DejaVuSans-30" x="222.65625"/>
       <use xlink:href="#DejaVuSans-38" x="286.279297"/>
      </g>
     </g>
    </g>
    <g id="text_19">
     <!-- end-to-end delay (s) -->
     <g transform="translate(9.529687 225.435812)rotate(-90)scale(0.1 -0.1)">
      <defs>
       <path id="DejaVuSans-6e" d="M 3513 2113 
L 3513 0 
L 2938 0 
L 2938 2094 
Q 2938 2591 2744 2837 
Q 2550 3084 2163 3084 
Q 1697 3084 1428 2787 
Q 1159 2491 1159 1978 
L 1159 0 
L 581 0 
L 581 3500 
L 1159 3500 
L 1159 2956 
Q 1366 3272 1645 3428 
Q 1925 3584 2291 3584 
Q 2894 3584 3203 3211 
Q 3513 2838 3513 2113 
z
" transform="scale(0.015625)"/>
       <path id="DejaVuSans-2d" d="M 313 2009 
L 1997 2009 
L 1997 1497 
L 313 1497 
L 313 2009 
z
" transform="scale(0.015625)"/>
       <path id="DejaVuSans-6f" d="M 1959 3097 
Q 1497 3097 1228 2736 
Q 959 2375 959 1747 
Q 959 1119 1226 758 
Q 1494 397 1959 397 
Q 2419 397 2687 759 
Q 2956 1122 2956 1747 
Q 2956 2369 2687 2733 
Q 2419 3097 1959 3097 
z
M 1959 3584 
Q 2709 3584 3137 3096 
Q 3566 2609 3566 1747 
Q 3566 888 3137 398 
Q 2709 -91 1959 -91 
Q 1206 -91 779 398 
Q 353 888 353 1747 
Q 353 2609 779 3096 
Q 1206 3584 1959 3584 
z
" transform="scale(0.015625)"/>
       <path id="DejaVuSans-6c" d="M 603 4863 
L 1178 4863 
L 1178 0 
L 603 0 
L 603 4863 
z
" transform="scale(0.015625)"/>
       <path id="DejaVuSans-79" d="M 2059 -325 
Q 1816 -950 1584 -1140 
Q 1353 -1331 966 -1331 
L 506 -1331 
L 506 -850 
L 844 -850 
Q 1081 -850 1212 -737 
Q 1344 -625 1503 -206 
L 1606 56 
L 191 3500 
L 800 3500 
L 1894 763 
L 2988 3500 
L 3597 3500 
L 2059 -325 
z
" transform="scale(0.015625)"/>
      </defs>
      <use xlink:href="#DejaVuSans-65"/>
      <use xlink:href="#DejaVuSans-6e" x="61.523438"/>
      <use xlink:href="#DejaVuSans-64" x="124.902344"/>
      <use xlink:href="#DejaVuSans-2d" x="188.378906"/>
      <use xlink:href="#DejaVuSans-74" x="224.462891"/>
      <use xlink:href="#DejaVuSans-6f" x="263.671875"/>
      <use xlink:href="#DejaVuSans-2d" x="326.728516"/>
      <use xlink:href="#DejaVuSans-65" x="362.8125"/>
      <use xlink:href="#DejaVuSans-6e" x="424.335938"/>
      <use xlink:href="#DejaVuSans-64" x="487.714844"/>
      <use xlink:href="#DejaVuSans-20" x="551.191406"/>
      <use xlink:href="#DejaVuSans-64" x="582.978516"/>
      <use xlink:href="#DejaVuSans-65" x="646.455078"/>
      <use xlink:href="#DejaVuSans-6c" x="707.978516"/>
      <use xlink:href="#DejaVuSans-61" x="735.761719"/>
      <use xlink:href="#DejaVuSans-79" x="797.041016"/>
      <use xlink:href="#DejaVuSans-20" x="856.220703"/>
      <use xlink:href="#DejaVuSans-28" x="888.007812"/>
      <use xlink:href="#DejaVuSans-73" x="927.021484"/>
      <use xlink:href="#DejaVuSans-29" x="979.121094"/>
     </g>
    </g>
   </g>
   <g id="line2d_18">
    <path d="M 73.832727 265.591636 
L 75.472397 78.997091 
L 77.112066 137.071636 
L 78.751736 100.646182 
L 80.391405 74.186182 
L 82.031074 237.069818 
L 83.670744 203.393455 
L 85.310413 110.611636 
L 86.950083 143.944364 
L 88.589752 186.555273 
L 90.229421 205.111636 
L 91.869091 221.606182 
L 93.50876 179.682545 
L 95.14843 184.149818 
L 96.788099 152.535273 
L 98.427769 159.064364 
L 100.067438 155.628 
L 103.346777 165.593455 
L 104.986446 159.064364 
L 106.626116 170.748 
L 108.265785 176.589818 
L 109.905455 163.875273 
L 111.545124 169.029818 
L 113.184793 172.122545 
L 114.824463 160.438909 
L 116.464132 152.878909 
L 119.743471 154.940727 
L 121.38314 153.566182 
L 123.02281 159.408 
L 124.662479 159.408 
L 126.302149 167.311636 
L 129.581488 164.562545 
L 131.221157 166.280727 
L 132.860826 168.686182 
L 134.500496 177.964364 
L 136.140165 167.311636 
L 137.779835 168.686182 
L 139.419504 172.466182 
L 141.059174 180.369818 
L 142.698843 177.277091 
L 144.338512 174.528 
L 145.978182 184.837091 
L 147.617851 250.128 
L 149.257521 196.520727 
L 150.89719 187.586182 
L 152.53686 217.482545 
L 154.176529 206.486182 
L 155.816198 233.977091 
L 157.455868 199.957091 
L 159.095537 217.138909 
L 160.735207 209.235273 
L 162.374876 211.297091 
L 164.014545 216.451636 
L 165.654215 230.884364 
L 167.293884 208.891636 
L 168.933554 225.386182 
L 170.573223 230.197091 
L 172.212893 205.455273 
L 173.852562 222.637091 
L 175.492231 227.104364 
L 177.131901 235.695273 
L 178.77157 220.918909 
L 180.41124 223.324364 
L 182.050909 209.922545 
L 183.690579 215.077091 
L 185.330248 221.949818 
L 186.969917 219.200727 
L 188.609587 234.664364 
L 190.249256 233.633455 
L 191.888926 229.166182 
L 193.528595 226.073455 
L 195.168264 253.564364 
L 196.807934 246.348 
L 198.447603 242.568 
L 200.087273 232.258909 
L 201.726942 241.880727 
L 203.366612 236.382545 
L 205.006281 225.729818 
L 206.64595 227.791636 
L 208.28562 215.420727 
L 209.925289 226.417091 
L 211.564959 253.564364 
L 213.204628 243.255273 
L 214.844298 227.791636 
L 216.483967 242.224364 
L 218.123636 246.004364 
L 219.763306 215.077091 
L 221.402975 238.788 
L 223.042645 224.011636 
L 224.682314 225.729818 
L 226.321983 230.540727 
L 227.961653 228.135273 
L 229.601322 226.760727 
L 231.240992 230.540727 
L 232.880661 233.977091 
L 234.520331 273.151636 
L 236.16 277.275273 
L 237.799669 263.186182 
L 239.439339 259.749818 
L 241.079008 260.437091 
L 242.718678 257.000727 
L 244.358347 262.842545 
L 245.998017 257.688 
L 247.637686 255.626182 
L 249.277355 262.498909 
L 250.917025 257.688 
L 252.556694 255.626182 
L 254.196364 259.062545 
L 255.836033 255.282545 
L 257.475702 259.062545 
L 259.115372 264.560727 
L 260.755041 295.488 
L 262.394711 267.653455 
L 264.03438 268.340727 
L 265.67405 261.811636 
L 267.313719 266.278909 
L 268.953388 262.155273 
L 270.593058 261.468 
L 272.232727 260.437091 
L 273.872397 261.811636 
L 275.512066 260.780727 
L 277.151736 269.371636 
L 278.791405 261.124364 
L 280.431074 262.842545 
L 282.070744 261.124364 
L 283.710413 262.155273 
L 285.350083 264.904364 
L 286.989752 262.155273 
L 288.629421 260.780727 
L 290.269091 261.811636 
L 291.90876 260.780727 
L 293.54843 261.468 
L 295.188099 260.780727 
L 296.827769 266.278909 
L 298.467438 263.529818 
L 300.107107 259.062545 
L 301.746777 260.437091 
L 303.386446 263.186182 
L 305.026116 260.780727 
L 306.665785 260.780727 
L 308.305455 258.718909 
L 309.945124 260.780727 
L 311.584793 260.437091 
L 313.224463 262.842545 
L 314.864132 258.375273 
L 316.503802 258.031636 
L 318.143471 261.468 
L 319.78314 253.908 
L 321.42281 250.128 
L 323.062479 264.904364 
L 326.341818 293.082545 
L 327.981488 263.529818 
L 329.621157 261.811636 
L 331.260826 293.769818 
L 332.900496 261.811636 
L 334.540165 267.653455 
L 336.179835 261.468 
L 337.819504 263.186182 
L 339.459174 259.406182 
L 341.098843 260.093455 
L 342.738512 258.031636 
L 344.378182 258.718909 
L 346.017851 259.749818 
L 347.657521 259.062545 
L 349.29719 262.498909 
L 350.93686 261.468 
L 352.576529 253.564364 
L 354.216198 254.595273 
L 355.855868 258.031636 
L 357.495537 254.595273 
L 359.135207 252.533455 
L 360.774876 248.066182 
L 362.414545 249.097091 
L 364.054215 261.811636 
L 365.693884 257.344364 
L 368.973223 255.969818 
L 370.612893 254.938909 
L 372.252562 254.595273 
L 373.892231 258.031636 
L 377.17157 250.471636 
L 378.81124 251.846182 
L 380.450909 252.877091 
L 382.090579 251.502545 
L 383.730248 259.406182 
L 385.369917 254.938909 
L 387.009587 254.938909 
L 388.649256 254.251636 
L 390.288926 261.468 
L 391.928595 274.526182 
L 393.568264 260.437091 
L 395.207934 252.877091 
L 396.847603 254.595273 
L 398.487273 255.626182 
L 398.487273 255.626182 
" clip-path="url(#p143ffc61aa)" style="fill: none; stroke: #1f77b4; stroke-width: 1.5; stroke-linecap: square"/>
   </g>
   <g id="line2d_19">
    <path d="M 75.472397 53.568 
L 77.112066 130.886182 
L 80.391405 58.035273 
L 82.031074 237.757091 
L 83.670744 193.771636 
L 85.310413 117.484364 
L 86.950083 139.133455 
L 88.589752 181.744364 
L 90.229421 207.173455 
L 91.869091 222.293455 
L 93.50876 187.586182 
L 95.14843 175.902545 
L 96.788099 146.693455 
L 98.427769 153.222545 
L 100.067438 146.006182 
L 101.707107 158.377091 
L 103.346777 167.311636 
L 104.986446 157.346182 
L 108.265785 179.338909 
L 109.905455 162.844364 
L 111.545124 171.778909 
L 113.184793 171.435273 
L 114.824463 163.531636 
L 116.464132 154.597091 
L 118.103802 152.535273 
L 119.743471 152.191636 
L 121.38314 155.971636 
L 123.02281 163.875273 
L 124.662479 162.844364 
L 126.302149 165.937091 
L 127.941818 162.157091 
L 129.581488 160.095273 
L 131.221157 164.562545 
L 132.860826 169.373455 
L 134.500496 169.373455 
L 136.140165 171.778909 
L 137.779835 167.311636 
L 139.419504 166.280727 
L 141.059174 178.308 
L 142.698843 177.620727 
L 144.338512 173.497091 
L 145.978182 185.868 
L 147.617851 250.815273 
L 149.257521 196.177091 
L 150.89719 191.022545 
L 152.53686 216.451636 
L 154.176529 204.424364 
L 155.816198 230.540727 
L 157.455868 196.177091 
L 159.095537 216.795273 
L 160.735207 212.671636 
L 162.374876 210.609818 
L 164.014545 215.420727 
L 165.654215 228.135273 
L 167.293884 206.142545 
L 168.933554 221.949818 
L 170.573223 226.760727 
L 172.212893 202.018909 
L 173.852562 221.262545 
L 175.492231 229.166182 
L 177.131901 235.351636 
L 178.77157 222.637091 
L 180.41124 222.637091 
L 182.050909 212.328 
L 183.690579 212.671636 
L 185.330248 221.949818 
L 186.969917 220.575273 
L 188.609587 232.602545 
L 190.249256 236.726182 
L 191.888926 227.791636 
L 193.528595 226.073455 
L 195.168264 252.877091 
L 196.807934 247.035273 
L 198.447603 243.598909 
L 200.087273 233.977091 
L 201.726942 242.568 
L 203.366612 237.413455 
L 205.006281 224.698909 
L 206.64595 227.104364 
L 208.28562 215.420727 
L 209.925289 225.729818 
L 211.564959 254.938909 
L 213.204628 245.660727 
L 214.844298 225.729818 
L 216.483967 243.598909 
L 218.123636 244.973455 
L 219.763306 215.764364 
L 221.402975 238.100727 
L 223.042645 223.668 
L 224.682314 225.729818 
L 226.321983 230.540727 
L 227.961653 226.760727 
L 229.601322 225.386182 
L 231.240992 229.166182 
L 232.880661 232.258909 
L 234.520331 271.777091 
L 236.16 276.588 
L 237.799669 262.155273 
L 239.439339 259.749818 
L 241.079008 260.780727 
L 242.718678 256.313455 
L 244.358347 263.873455 
L 245.998017 257.000727 
L 247.637686 255.282545 
L 249.277355 263.186182 
L 250.917025 258.031636 
L 252.556694 255.626182 
L 254.196364 259.406182 
L 255.836033 254.251636 
L 259.115372 264.217091 
L 260.755041 295.144364 
L 262.394711 267.653455 
L 264.03438 268.340727 
L 265.67405 261.468 
L 267.313719 266.966182 
L 268.953388 262.155273 
L 270.593058 262.498909 
L 272.232727 260.437091 
L 273.872397 261.124364 
L 275.512066 260.437091 
L 277.151736 267.997091 
L 278.791405 261.124364 
L 280.431074 263.873455 
L 282.070744 261.811636 
L 283.710413 261.811636 
L 285.350083 266.278909 
L 286.989752 262.498909 
L 288.629421 260.780727 
L 290.269091 262.842545 
L 293.54843 260.780727 
L 295.188099 261.811636 
L 296.827769 265.591636 
L 298.467438 264.560727 
L 300.107107 259.749818 
L 301.746777 259.749818 
L 303.386446 264.217091 
L 305.026116 260.437091 
L 306.665785 260.093455 
L 308.305455 259.406182 
L 309.945124 261.811636 
L 311.584793 261.124364 
L 313.224463 262.842545 
L 314.864132 259.062545 
L 316.503802 258.718909 
L 318.143471 260.437091 
L 319.78314 253.220727 
L 321.42281 250.128 
L 323.062479 264.560727 
L 324.702149 277.962545 
L 326.341818 292.738909 
L 327.981488 263.529818 
L 329.621157 262.842545 
L 331.260826 294.113455 
L 332.900496 261.124364 
L 334.540165 266.622545 
L 336.179835 261.124364 
L 337.819504 264.217091 
L 339.459174 258.031636 
L 341.098843 258.718909 
L 342.738512 258.375273 
L 344.378182 259.749818 
L 346.017851 258.718909 
L 347.657521 258.375273 
L 349.29719 261.468 
L 350.93686 262.842545 
L 352.576529 253.564364 
L 355.855868 257.000727 
L 357.495537 253.564364 
L 359.135207 254.251636 
L 360.774876 249.097091 
L 362.414545 250.471636 
L 364.054215 263.529818 
L 365.693884 257.344364 
L 367.333554 255.626182 
L 368.973223 254.251636 
L 370.612893 255.969818 
L 372.252562 254.595273 
L 373.892231 258.375273 
L 375.531901 253.220727 
L 377.17157 251.502545 
L 378.81124 252.189818 
L 380.450909 253.220727 
L 382.090579 250.815273 
L 383.730248 258.375273 
L 385.369917 255.626182 
L 387.009587 255.626182 
L 388.649256 254.251636 
L 390.288926 261.124364 
L 391.928595 276.588 
L 393.568264 259.749818 
L 395.207934 252.189818 
L 396.847603 253.220727 
L 398.487273 255.626182 
L 398.487273 255.626182 
" clip-path="url(#p143ffc61aa)" style="fill: none; stroke: #ff7f0e; stroke-width: 1.5; stroke-linecap: square"/>
   </g>
   <g id="line2d_20">
    <path d="M 73.832727 258.718909 
L 75.472397 92.742545 
L 77.112066 134.322545 
L 78.751736 106.488 
L 80.391405 65.595273 
L 82.031074 237.413455 
L 83.670744 194.458909 
L 85.310413 121.608 
L 86.950083 148.755273 
L 88.589752 173.497091 
L 90.229421 206.829818 
L 91.869091 217.826182 
L 93.50876 180.713455 
L 95.14843 181.744364 
L 96.788099 154.597091 
L 98.427769 154.940727 
L 100.067438 151.504364 
L 101.707107 160.095273 
L 103.346777 163.875273 
L 104.986446 163.531636 
L 106.626116 170.748 
L 108.265785 172.809818 
L 109.905455 156.658909 
L 111.545124 171.778909 
L 113.184793 164.562545 
L 114.824463 166.968 
L 116.464132 154.940727 
L 118.103802 154.597091 
L 119.743471 149.786182 
L 121.38314 155.971636 
L 123.02281 160.438909 
L 124.662479 159.408 
L 126.302149 164.562545 
L 127.941818 163.188 
L 131.221157 163.188 
L 134.500496 174.528 
L 136.140165 165.593455 
L 137.779835 168.686182 
L 139.419504 169.373455 
L 141.059174 178.308 
L 142.698843 179.338909 
L 144.338512 174.184364 
L 145.978182 187.929818 
L 147.617851 255.282545 
L 149.257521 195.146182 
L 150.89719 190.335273 
L 152.53686 217.138909 
L 154.176529 203.393455 
L 155.816198 231.228 
L 157.455868 196.864364 
L 159.095537 218.169818 
L 160.735207 210.953455 
L 162.374876 211.984364 
L 164.014545 215.420727 
L 165.654215 230.540727 
L 167.293884 206.486182 
L 168.933554 219.888 
L 170.573223 228.822545 
L 172.212893 202.706182 
L 173.852562 219.544364 
L 175.492231 225.729818 
L 177.131901 233.633455 
L 178.77157 224.698909 
L 180.41124 221.262545 
L 182.050909 211.297091 
L 183.690579 214.046182 
L 185.330248 222.293455 
L 186.969917 223.324364 
L 188.609587 232.946182 
L 190.249256 234.320727 
L 191.888926 226.417091 
L 193.528595 226.417091 
L 195.168264 251.158909 
L 196.807934 247.035273 
L 198.447603 243.255273 
L 200.087273 231.228 
L 201.726942 241.193455 
L 203.366612 236.038909 
L 205.006281 226.417091 
L 206.64595 227.791636 
L 208.28562 214.733455 
L 209.925289 225.729818 
L 211.564959 255.282545 
L 213.204628 246.004364 
L 214.844298 227.448 
L 216.483967 242.224364 
L 218.123636 245.317091 
L 219.763306 218.857091 
L 221.402975 239.475273 
L 223.042645 224.011636 
L 224.682314 226.417091 
L 226.321983 230.540727 
L 227.961653 226.760727 
L 231.240992 230.197091 
L 232.880661 233.977091 
L 234.520331 271.777091 
L 236.16 274.869818 
L 237.799669 262.842545 
L 239.439339 259.062545 
L 241.079008 260.780727 
L 242.718678 255.969818 
L 244.358347 263.873455 
L 245.998017 257.688 
L 247.637686 257.344364 
L 249.277355 262.842545 
L 250.917025 258.375273 
L 252.556694 256.657091 
L 254.196364 258.718909 
L 255.836033 255.282545 
L 257.475702 259.406182 
L 259.115372 264.904364 
L 260.755041 295.488 
L 262.394711 266.278909 
L 264.03438 267.997091 
L 265.67405 262.155273 
L 267.313719 265.591636 
L 268.953388 263.186182 
L 270.593058 261.468 
L 272.232727 260.780727 
L 273.872397 262.155273 
L 275.512066 259.406182 
L 277.151736 269.715273 
L 278.791405 263.529818 
L 280.431074 262.498909 
L 282.070744 262.155273 
L 283.710413 262.498909 
L 285.350083 265.935273 
L 286.989752 262.842545 
L 288.629421 261.468 
L 290.269091 261.468 
L 291.90876 259.749818 
L 293.54843 260.780727 
L 295.188099 261.468 
L 296.827769 265.935273 
L 298.467438 263.873455 
L 300.107107 259.749818 
L 301.746777 260.437091 
L 303.386446 264.217091 
L 305.026116 261.468 
L 306.665785 260.437091 
L 308.305455 258.718909 
L 309.945124 260.437091 
L 311.584793 260.437091 
L 313.224463 263.529818 
L 314.864132 258.718909 
L 316.503802 258.718909 
L 318.143471 262.498909 
L 319.78314 253.220727 
L 321.42281 250.471636 
L 323.062479 264.904364 
L 324.702149 278.306182 
L 326.341818 293.426182 
L 327.981488 264.560727 
L 329.621157 262.842545 
L 331.260826 293.426182 
L 332.900496 261.124364 
L 334.540165 268.340727 
L 336.179835 261.124364 
L 337.819504 263.529818 
L 339.459174 257.344364 
L 341.098843 259.406182 
L 342.738512 258.375273 
L 344.378182 258.718909 
L 346.017851 257.688 
L 347.657521 258.718909 
L 349.29719 261.468 
L 350.93686 261.811636 
L 352.576529 253.908 
L 354.216198 255.282545 
L 355.855868 255.626182 
L 357.495537 252.877091 
L 359.135207 253.564364 
L 360.774876 248.753455 
L 362.414545 248.753455 
L 364.054215 262.842545 
L 365.693884 257.000727 
L 367.333554 255.626182 
L 368.973223 254.938909 
L 370.612893 255.626182 
L 372.252562 255.282545 
L 373.892231 255.969818 
L 375.531901 253.220727 
L 377.17157 253.220727 
L 378.81124 251.502545 
L 380.450909 252.533455 
L 382.090579 251.158909 
L 383.730248 259.062545 
L 385.369917 255.969818 
L 387.009587 253.564364 
L 388.649256 253.908 
L 390.288926 257.000727 
L 391.928595 276.244364 
L 393.568264 260.093455 
L 395.207934 252.189818 
L 396.847603 254.251636 
L 398.487273 254.595273 
L 398.487273 254.595273 
" clip-path="url(#p143ffc61aa)" style="fill: none; stroke: #2ca02c; stroke-width: 1.5; stroke-linecap: square"/>
   </g>
   <g id="line2d_21">
    <path d="M 75.472397 76.248 
L 77.112066 116.453455 
L 78.751736 114.735273 
L 80.391405 75.904364 
L 82.031074 234.664364 
L 83.670744 200.988 
L 85.310413 118.858909 
L 86.950083 138.446182 
L 88.589752 178.995273 
L 90.229421 208.204364 
L 91.869091 215.077091 
L 93.50876 183.806182 
L 95.14843 183.462545 
L 96.788099 153.566182 
L 98.427769 155.284364 
L 100.067438 150.473455 
L 101.707107 155.971636 
L 103.346777 162.500727 
L 104.986446 167.311636 
L 106.626116 167.998909 
L 108.265785 177.620727 
L 109.905455 155.628 
L 111.545124 169.373455 
L 113.184793 172.466182 
L 114.824463 166.280727 
L 116.464132 156.315273 
L 118.103802 150.129818 
L 119.743471 151.504364 
L 121.38314 152.535273 
L 123.02281 162.844364 
L 124.662479 160.782545 
L 126.302149 166.968 
L 127.941818 165.937091 
L 129.581488 160.782545 
L 131.221157 166.968 
L 132.860826 167.311636 
L 134.500496 172.466182 
L 136.140165 172.809818 
L 137.779835 168.686182 
L 139.419504 163.531636 
L 141.059174 180.026182 
L 142.698843 177.964364 
L 144.338512 177.620727 
L 145.978182 186.211636 
L 147.617851 253.564364 
L 149.257521 195.489818 
L 150.89719 191.022545 
L 152.53686 215.764364 
L 154.176529 205.111636 
L 155.816198 229.853455 
L 157.455868 200.644364 
L 159.095537 219.200727 
L 160.735207 210.953455 
L 162.374876 210.953455 
L 164.014545 217.138909 
L 165.654215 229.166182 
L 167.293884 207.860727 
L 168.933554 223.324364 
L 170.573223 225.042545 
L 172.212893 204.768 
L 173.852562 222.293455 
L 175.492231 223.324364 
L 177.131901 235.695273 
L 178.77157 222.980727 
L 180.41124 223.324364 
L 182.050909 211.984364 
L 183.690579 211.297091 
L 185.330248 224.698909 
L 186.969917 223.324364 
L 188.609587 231.915273 
L 190.249256 237.069818 
L 191.888926 228.478909 
L 193.528595 227.448 
L 195.168264 251.846182 
L 196.807934 247.035273 
L 198.447603 245.317091 
L 200.087273 232.602545 
L 201.726942 241.880727 
L 203.366612 234.320727 
L 205.006281 225.729818 
L 206.64595 225.729818 
L 208.28562 214.046182 
L 209.925289 225.729818 
L 211.564959 255.282545 
L 213.204628 246.691636 
L 214.844298 227.104364 
L 216.483967 243.598909 
L 218.123636 243.942545 
L 219.763306 220.575273 
L 221.402975 238.444364 
L 223.042645 222.980727 
L 224.682314 224.355273 
L 226.321983 230.197091 
L 227.961653 228.478909 
L 229.601322 229.166182 
L 231.240992 230.540727 
L 232.880661 234.320727 
L 234.520331 271.777091 
L 236.16 276.244364 
L 237.799669 264.560727 
L 239.439339 258.031636 
L 241.079008 259.749818 
L 242.718678 256.313455 
L 244.358347 263.529818 
L 245.998017 258.031636 
L 247.637686 256.313455 
L 249.277355 263.186182 
L 250.917025 258.375273 
L 252.556694 255.969818 
L 254.196364 257.344364 
L 255.836033 255.626182 
L 257.475702 260.437091 
L 259.115372 263.873455 
L 260.755041 294.457091 
L 262.394711 267.309818 
L 264.03438 268.684364 
L 265.67405 261.811636 
L 267.313719 265.248 
L 268.953388 263.529818 
L 270.593058 262.155273 
L 272.232727 260.437091 
L 273.872397 261.468 
L 275.512066 260.780727 
L 277.151736 269.028 
L 278.791405 263.529818 
L 280.431074 263.186182 
L 282.070744 262.498909 
L 283.710413 261.124364 
L 285.350083 264.904364 
L 286.989752 262.498909 
L 288.629421 260.437091 
L 290.269091 262.155273 
L 293.54843 260.780727 
L 295.188099 261.811636 
L 296.827769 266.622545 
L 298.467438 264.217091 
L 300.107107 259.406182 
L 301.746777 260.093455 
L 303.386446 263.186182 
L 305.026116 261.124364 
L 306.665785 260.780727 
L 308.305455 259.062545 
L 309.945124 261.468 
L 311.584793 261.811636 
L 313.224463 262.498909 
L 314.864132 259.406182 
L 316.503802 258.375273 
L 318.143471 260.437091 
L 319.78314 252.533455 
L 321.42281 250.815273 
L 323.062479 264.217091 
L 324.702149 278.649818 
L 326.341818 294.113455 
L 327.981488 265.248 
L 329.621157 261.811636 
L 331.260826 293.426182 
L 332.900496 260.437091 
L 334.540165 267.997091 
L 336.179835 260.437091 
L 337.819504 264.217091 
L 339.459174 258.718909 
L 342.738512 258.031636 
L 344.378182 259.749818 
L 346.017851 258.375273 
L 347.657521 259.062545 
L 349.29719 261.811636 
L 350.93686 261.811636 
L 352.576529 252.877091 
L 355.855868 257.000727 
L 357.495537 253.564364 
L 359.135207 253.564364 
L 360.774876 248.066182 
L 362.414545 250.471636 
L 364.054215 260.780727 
L 365.693884 255.969818 
L 367.333554 256.313455 
L 368.973223 254.938909 
L 370.612893 255.969818 
L 372.252562 254.251636 
L 373.892231 257.688 
L 375.531901 252.533455 
L 377.17157 253.220727 
L 378.81124 251.502545 
L 380.450909 252.533455 
L 382.090579 250.815273 
L 383.730248 259.062545 
L 385.369917 256.313455 
L 387.009587 253.908 
L 388.649256 254.251636 
L 390.288926 261.468 
L 391.928595 274.869818 
L 393.568264 261.468 
L 395.207934 255.282545 
L 396.847603 254.595273 
L 398.487273 256.313455 
L 398.487273 256.313455 
" clip-path="url(#p143ffc61aa)" style="fill: none; stroke: #d62728; stroke-width: 1.5; stroke-linecap: square"/>
   </g>
   <g id="line2d_22">
    <path d="M 73.832727 262.498909 
L 75.472397 85.869818 
L 77.112066 135.697091 
L 80.391405 69.718909 
L 82.031074 237.069818 
L 83.670744 198.926182 
L 85.310413 116.109818 
L 86.950083 146.349818 
L 88.589752 180.026182 
L 90.229421 205.798909 
L 91.869091 219.544364 
L 93.50876 180.026182 
L 95.14843 183.118909 
L 96.788099 153.566182 
L 98.427769 157.002545 
L 100.067438 153.566182 
L 101.707107 160.438909 
L 103.346777 164.906182 
L 104.986446 161.126182 
L 106.626116 170.748 
L 108.265785 174.871636 
L 109.905455 160.438909 
L 111.545124 170.404364 
L 113.184793 168.342545 
L 114.824463 163.875273 
L 116.464132 153.909818 
L 118.103802 154.253455 
L 119.743471 152.535273 
L 121.38314 154.597091 
L 123.02281 159.751636 
L 124.662479 159.408 
L 126.302149 165.937091 
L 127.941818 164.562545 
L 129.581488 163.875273 
L 131.221157 164.906182 
L 132.860826 168.686182 
L 134.500496 176.246182 
L 136.140165 166.624364 
L 139.419504 170.748 
L 141.059174 179.338909 
L 142.698843 178.308 
L 144.338512 174.528 
L 145.978182 186.555273 
L 147.617851 252.877091 
L 149.257521 195.833455 
L 150.89719 188.960727 
L 152.53686 217.138909 
L 154.176529 205.111636 
L 155.816198 232.602545 
L 157.455868 198.582545 
L 159.095537 217.482545 
L 160.735207 209.922545 
L 162.374876 211.640727 
L 164.014545 215.764364 
L 165.654215 230.884364 
L 167.293884 207.517091 
L 168.933554 222.637091 
L 170.573223 229.509818 
L 172.212893 204.080727 
L 173.852562 221.262545 
L 175.492231 226.417091 
L 177.131901 234.664364 
L 178.77157 222.980727 
L 180.41124 222.293455 
L 182.050909 210.609818 
L 183.690579 214.733455 
L 185.330248 221.949818 
L 186.969917 221.262545 
L 188.609587 233.977091 
L 190.249256 233.977091 
L 191.888926 227.791636 
L 193.528595 226.417091 
L 195.168264 252.533455 
L 196.807934 246.691636 
L 198.447603 242.911636 
L 200.087273 231.915273 
L 201.726942 241.537091 
L 203.366612 236.038909 
L 205.006281 226.073455 
L 206.64595 227.791636 
L 208.28562 215.077091 
L 209.925289 226.073455 
L 211.564959 254.595273 
L 213.204628 244.629818 
L 214.844298 227.448 
L 216.483967 242.224364 
L 218.123636 245.660727 
L 219.763306 216.795273 
L 221.402975 239.131636 
L 223.042645 224.011636 
L 224.682314 226.073455 
L 226.321983 230.540727 
L 227.961653 227.448 
L 229.601322 227.448 
L 231.240992 230.197091 
L 232.880661 233.977091 
L 234.520331 272.464364 
L 236.16 276.244364 
L 237.799669 262.842545 
L 239.439339 259.406182 
L 241.079008 260.780727 
L 242.718678 256.313455 
L 244.358347 263.529818 
L 245.998017 257.688 
L 247.637686 256.657091 
L 249.277355 262.498909 
L 250.917025 258.031636 
L 252.556694 256.313455 
L 254.196364 258.718909 
L 255.836033 255.282545 
L 257.475702 259.062545 
L 259.115372 264.904364 
L 260.755041 295.488 
L 262.394711 266.966182 
L 264.03438 267.997091 
L 265.67405 262.155273 
L 267.313719 265.935273 
L 268.953388 262.498909 
L 270.593058 261.468 
L 272.232727 260.780727 
L 273.872397 261.811636 
L 275.512066 260.093455 
L 277.151736 269.715273 
L 278.791405 262.155273 
L 280.431074 262.842545 
L 282.070744 261.811636 
L 283.710413 262.155273 
L 285.350083 265.248 
L 286.989752 262.498909 
L 288.629421 261.124364 
L 290.269091 261.811636 
L 291.90876 260.093455 
L 293.54843 261.124364 
L 295.188099 261.124364 
L 296.827769 265.935273 
L 298.467438 263.529818 
L 300.107107 259.406182 
L 301.746777 260.437091 
L 303.386446 263.529818 
L 305.026116 261.124364 
L 306.665785 260.437091 
L 308.305455 258.718909 
L 309.945124 260.437091 
L 311.584793 260.437091 
L 313.224463 263.186182 
L 314.864132 258.375273 
L 316.503802 258.375273 
L 318.143471 261.811636 
L 319.78314 253.564364 
L 321.42281 250.128 
L 323.062479 264.904364 
L 326.341818 293.082545 
L 327.981488 263.873455 
L 329.621157 262.498909 
L 331.260826 293.426182 
L 332.900496 261.468 
L 334.540165 267.997091 
L 336.179835 261.124364 
L 337.819504 263.529818 
L 339.459174 258.375273 
L 341.098843 259.749818 
L 342.738512 258.375273 
L 344.378182 258.718909 
L 346.017851 258.718909 
L 347.657521 259.062545 
L 349.29719 261.811636 
L 350.93686 261.811636 
L 352.576529 253.908 
L 354.216198 254.938909 
L 355.855868 257.000727 
L 357.495537 253.564364 
L 359.135207 253.220727 
L 360.774876 248.409818 
L 362.414545 249.097091 
L 364.054215 262.155273 
L 365.693884 257.000727 
L 367.333554 256.313455 
L 368.973223 255.282545 
L 370.612893 255.282545 
L 372.252562 254.938909 
L 373.892231 257.000727 
L 375.531901 253.908 
L 377.17157 251.846182 
L 378.81124 251.846182 
L 380.450909 252.877091 
L 382.090579 251.502545 
L 383.730248 259.406182 
L 385.369917 255.282545 
L 387.009587 254.251636 
L 388.649256 253.908 
L 390.288926 259.406182 
L 391.928595 275.557091 
L 393.568264 260.437091 
L 395.207934 252.533455 
L 396.847603 254.251636 
L 398.487273 255.282545 
L 398.487273 255.282545 
" clip-path="url(#p143ffc61aa)" style="fill: none; stroke: #9467bd; stroke-width: 1.5; stroke-linecap: square"/>
   </g>
   <g id="line2d_23">
    <path d="M 75.472397 65.251636 
L 77.112066 124.013455 
L 78.751736 103.738909 
L 80.391405 66.969818 
L 82.031074 236.382545 
L 83.670744 197.208 
L 85.310413 118.171636 
L 86.950083 138.789818 
L 88.589752 180.369818 
L 90.229421 207.860727 
L 91.869091 218.513455 
L 93.50876 185.524364 
L 95.14843 179.682545 
L 96.788099 150.129818 
L 98.427769 154.253455 
L 100.067438 148.411636 
L 101.707107 157.346182 
L 103.346777 164.906182 
L 104.986446 162.157091 
L 106.626116 168.342545 
L 108.265785 178.651636 
L 109.905455 159.064364 
L 111.545124 170.404364 
L 113.184793 172.122545 
L 114.824463 164.906182 
L 116.464132 155.284364 
L 118.103802 151.504364 
L 119.743471 151.848 
L 121.38314 154.253455 
L 123.02281 163.188 
L 124.662479 161.813455 
L 126.302149 166.280727 
L 127.941818 163.875273 
L 129.581488 160.438909 
L 131.221157 165.593455 
L 134.500496 171.091636 
L 136.140165 172.122545 
L 137.779835 167.998909 
L 139.419504 164.906182 
L 141.059174 178.995273 
L 142.698843 177.620727 
L 144.338512 175.558909 
L 145.978182 186.211636 
L 147.617851 252.189818 
L 149.257521 195.833455 
L 150.89719 191.022545 
L 152.53686 216.108 
L 154.176529 204.768 
L 155.816198 230.197091 
L 157.455868 198.238909 
L 159.095537 218.169818 
L 160.735207 211.984364 
L 162.374876 210.953455 
L 164.014545 216.451636 
L 165.654215 228.478909 
L 167.293884 206.829818 
L 168.933554 222.637091 
L 170.573223 226.073455 
L 172.212893 203.393455 
L 173.852562 221.949818 
L 175.492231 226.073455 
L 177.131901 235.695273 
L 178.77157 222.980727 
L 180.41124 222.980727 
L 182.050909 211.984364 
L 183.690579 211.984364 
L 185.330248 223.324364 
L 186.969917 221.949818 
L 188.609587 232.258909 
L 190.249256 236.726182 
L 191.888926 228.135273 
L 193.528595 226.760727 
L 195.168264 252.189818 
L 196.807934 247.035273 
L 198.447603 244.629818 
L 200.087273 233.289818 
L 201.726942 242.224364 
L 203.366612 236.038909 
L 205.006281 225.042545 
L 206.64595 226.417091 
L 208.28562 214.733455 
L 209.925289 225.729818 
L 211.564959 255.282545 
L 213.204628 246.004364 
L 214.844298 226.417091 
L 216.483967 243.598909 
L 218.123636 244.286182 
L 219.763306 218.169818 
L 221.402975 238.100727 
L 223.042645 223.324364 
L 224.682314 225.042545 
L 226.321983 230.540727 
L 227.961653 227.791636 
L 229.601322 227.448 
L 231.240992 229.853455 
L 232.880661 233.289818 
L 234.520331 271.777091 
L 236.16 276.244364 
L 237.799669 263.186182 
L 239.439339 259.062545 
L 241.079008 260.437091 
L 242.718678 256.313455 
L 244.358347 263.873455 
L 245.998017 257.344364 
L 247.637686 255.626182 
L 249.277355 263.186182 
L 250.917025 258.375273 
L 252.556694 255.969818 
L 254.196364 258.375273 
L 255.836033 254.938909 
L 257.475702 260.093455 
L 259.115372 263.873455 
L 260.755041 294.800727 
L 262.394711 267.653455 
L 264.03438 268.340727 
L 265.67405 261.811636 
L 267.313719 265.935273 
L 268.953388 262.842545 
L 270.593058 262.155273 
L 272.232727 260.437091 
L 273.872397 261.468 
L 275.512066 260.437091 
L 277.151736 268.340727 
L 278.791405 262.155273 
L 280.431074 263.529818 
L 282.070744 262.155273 
L 283.710413 261.468 
L 285.350083 265.591636 
L 286.989752 262.498909 
L 288.629421 260.437091 
L 290.269091 262.498909 
L 291.90876 261.468 
L 293.54843 260.780727 
L 295.188099 261.811636 
L 296.827769 265.935273 
L 298.467438 264.217091 
L 300.107107 259.749818 
L 301.746777 259.749818 
L 303.386446 263.873455 
L 305.026116 260.780727 
L 306.665785 260.437091 
L 308.305455 259.062545 
L 309.945124 261.468 
L 311.584793 261.468 
L 313.224463 262.498909 
L 314.864132 259.062545 
L 316.503802 258.375273 
L 318.143471 260.437091 
L 319.78314 252.877091 
L 321.42281 250.471636 
L 324.702149 278.306182 
L 326.341818 293.426182 
L 327.981488 264.560727 
L 329.621157 262.498909 
L 331.260826 293.769818 
L 332.900496 260.780727 
L 334.540165 267.309818 
L 336.179835 260.780727 
L 337.819504 264.217091 
L 339.459174 258.375273 
L 341.098843 258.718909 
L 342.738512 258.031636 
L 344.378182 259.749818 
L 346.017851 258.375273 
L 347.657521 258.718909 
L 349.29719 261.468 
L 350.93686 262.498909 
L 352.576529 253.220727 
L 354.216198 255.282545 
L 355.855868 257.000727 
L 357.495537 253.564364 
L 359.135207 253.908 
L 360.774876 248.753455 
L 362.414545 250.471636 
L 364.054215 262.155273 
L 365.693884 256.657091 
L 367.333554 255.969818 
L 368.973223 254.595273 
L 370.612893 255.969818 
L 372.252562 254.595273 
L 373.892231 258.031636 
L 375.531901 252.877091 
L 377.17157 252.189818 
L 378.81124 251.846182 
L 380.450909 252.877091 
L 382.090579 250.815273 
L 383.730248 258.718909 
L 385.369917 255.969818 
L 387.009587 254.595273 
L 388.649256 254.251636 
L 390.288926 261.468 
L 391.928595 275.900727 
L 393.568264 260.437091 
L 395.207934 253.564364 
L 396.847603 253.908 
L 398.487273 255.969818 
L 398.487273 255.969818 
" clip-path="url(#p143ffc61aa)" style="fill: none; stroke: #8c564b; stroke-width: 1.5; stroke-linecap: square"/>
   </g>
   <g id="patch_3">
    <path d="M 57.6 307.584 
L 57.6 41.472 
" style="fill: none; stroke: #000000; stroke-width: 0.8; stroke-linejoin: miter; stroke-linecap: square"/>
   </g>
   <g id="patch_4">
    <path d="M 414.72 307.584 
L 414.72 41.472 
" style="fill: none; stroke: #000000; stroke-width: 0.8; stroke-linejoin: miter; stroke-linecap: square"/>
   </g>
   <g id="patch_5">
    <path d="M 57.6 307.584 
L 414.72 307.584 
" style="fill: none; stroke: #000000; stroke-width: 0.8; stroke-linejoin: miter; stroke-linecap: square"/>
   </g>
   <g id="patch_6">
    <path d="M 57.6 41.472 
L 414.72 41.472 
" style="fill: none; stroke: #000000; stroke-width: 0.8; stroke-linejoin: miter; stroke-linecap: square"/>
   </g>
   <g id="legend_1">
    <g id="patch_7">
     <path d="M 350.32 138.097 
L 407.72 138.097 
Q 409.72 138.097 409.72 136.097 
L 409.72 48.472 
Q 409.72 46.472 407.72 46.472 
L 350.32 46.472 
Q 348.32 46.472 348.32 48.472 
L 348.32 136.097 
Q 348.32 138.097 350.32 138.097 
z
" style="fill: #ffffff; opacity: 0.8; stroke: #cccccc; stroke-linejoin: miter"/>
    </g>
    <g id="line2d_24">
     <path d="M 352.32 54.570438 
L 362.32 54.570438 
L 372.32 54.570438 
" style="fill: none; stroke: #1f77b4; stroke-width: 1.5; stroke-linecap: square"/>
    </g>
    <g id="text_20">
     <!-- h1h3 -->
     <g transform="translate(380.32 58.070438)scale(0.1 -0.1)">
      <defs>
       <path id="DejaVuSans-68" d="M 3513 2113 
L 3513 0 
L 2938 0 
L 2938 2094 
Q 2938 2591 2744 2837 
Q 2550 3084 2163 3084 
Q 1697 3084 1428 2787 
Q 1159 2491 1159 1978 
L 1159 0 
L 581 0 
L 581 4863 
L 1159 4863 
L 1159 2956 
Q 1366 3272 1645 3428 
Q 1925 3584 2291 3584 
Q 2894 3584 3203 3211 
Q 3513 2838 3513 2113 
z
" transform="scale(0.015625)"/>
      </defs>
      <use xlink:href="#DejaVuSans-68"/>
      <use xlink:href="#DejaVuSans-31" x="63.378906"/>
      <use xlink:href="#DejaVuSans-68" x="127.001953"/>
      <use xlink:href="#DejaVuSans-33" x="190.380859"/>
     </g>
    </g>
    <g id="line2d_25">
     <path d="M 352.32 69.248563 
L 362.32 69.248563 
L 372.32 69.248563 
" style="fill: none; stroke: #ff7f0e; stroke-width: 1.5; stroke-linecap: square"/>
    </g>
    <g id="text_21">
     <!-- h1h4 -->
     <g transform="translate(380.32 72.748563)scale(0.1 -0.1)">
      <use xlink:href="#DejaVuSans-68"/>
      <use xlink:href="#DejaVuSans-31" x="63.378906"/>
      <use xlink:href="#DejaVuSans-68" x="127.001953"/>
      <use xlink:href="#DejaVuSans-34" x="190.380859"/>
     </g>
    </g>
    <g id="line2d_26">
     <path d="M 352.32 83.926688 
L 362.32 83.926688 
L 372.32 83.926688 
" style="fill: none; stroke: #2ca02c; stroke-width: 1.5; stroke-linecap: square"/>
    </g>
    <g id="text_22">
     <!-- h2h3 -->
     <g transform="translate(380.32 87.426688)scale(0.1 -0.1)">
      <use xlink:href="#DejaVuSans-68"/>
      <use xlink:href="#DejaVuSans-32" x="63.378906"/>
      <use xlink:href="#DejaVuSans-68" x="127.001953"/>
      <use xlink:href="#DejaVuSans-33" x="190.380859"/>
     </g>
    </g>
    <g id="line2d_27">
     <path d="M 352.32 98.604813 
L 362.32 98.604813 
L 372.32 98.604813 
" style="fill: none; stroke: #d62728; stroke-width: 1.5; stroke-linecap: square"/>
    </g>
    <g id="text_23">
     <!-- h2h4 -->
     <g transform="translate(380.32 102.104813)scale(0.1 -0.1)">
      <use xlink:href="#DejaVuSans-68"/>
      <use xlink:href="#DejaVuSans-32" x="63.378906"/>
      <use xlink:href="#DejaVuSans-68" x="127.001953"/>
      <use xlink:href="#DejaVuSans-34" x="190.380859"/>
     </g>
    </g>
    <g id="line2d_28">
     <path d="M 352.32 113.282938 
L 362.32 113.282938 
L 372.32 113.282938 
" style="fill: none; stroke: #9467bd; stroke-width: 1.5; stroke-linecap: square"/>
    </g>
    <g id="text_24">
     <!-- h_h3 -->
     <g transform="translate(380.32 116.782938)scale(0.1 -0.1)">
      <defs>
       <path id="DejaVuSans-5f" d="M 3263 -1063 
L 3263 -1509 
L -63 -1509 
L -63 -1063 
L 3263 -1063 
z
" transform="scale(0.015625)"/>
      </defs>
      <use xlink:href="#DejaVuSans-68"/>
      <use xlink:href="#DejaVuSans-5f" x="63.378906"/>
      <use xlink:href="#DejaVuSans-68" x="113.378906"/>
      <use xlink:href="#DejaVuSans-33" x="176.757812"/>
     </g>
    </g>
    <g id="line2d_29">
     <path d="M 352.32 128.239188 
L 362.32 128.239188 
L 372.32 128.239188 
" style="fill: none; stroke: #8c564b; stroke-width: 1.5; stroke-linecap: square"/>
    </g>
    <g id="text_25">
     <!-- h_h4 -->
     <g transform="translate(380.32 131.739188)scale(0.1 -0.1)">
      <use xlink:href="#DejaVuSans-68"/>
      <use xlink:href="#DejaVuSans-5f" x="63.378906"/>
      <use xlink:href="#DejaVuSans-68" x="113.378906"/>
      <use xlink:href="#DejaVuSans-34" x="176.757812"/>
     </g>
    </g>
   </g>
  </g>
 </g>
 <defs>
  <clipPath id="p143ffc61aa">
   <rect x="57.6" y="41.472" width="357.12" height="266.112"/>
  </clipPath>
 </defs>
</svg>
