<?xml version="1.0" encoding="utf-8" standalone="no"?>
<!DOCTYPE svg PUBLIC "-//W3C//DTD SVG 1.1//EN"
  "http://www.w3.org/Graphics/SVG/1.1/DTD/svg11.dtd">
<svg xmlns:xlink="http://www.w3.org/1999/xlink" width="460.8pt" height="345.6pt" viewBox="0 0 460.8 345.6" xmlns="http://www.w3.org/2000/svg" version="1.1">
 <metadata>
  <rdf:RDF xmlns:dc="http://purl.org/dc/elements/1.1/" xmlns:cc="http://creativecommons.org/ns#" xmlns:rdf="http://www.w3.org/1999/02/22-rdf-syntax-ns#">
   <cc:Work>
    <dc:type rdf:resource="http://purl.org/dc/dcmitype/StillImage"/>
    <dc:date>2022-09-05T20:34:13.252605</dc:date>
    <dc:format>image/svg+xml</dc:format>
    <dc:creator>
     <cc:Agent>
      <dc:title>Matplotlib v3.5.3, https://matplotlib.org/</dc:title>
     </cc:Agent>
    </dc:creator>
   </cc:Work>
  </rdf:RDF>
 </metadata>
 <defs>
  <style type="text/css">*{stroke-linejoin: round; stroke-linecap: butt}</style>
 </defs>
 <g id="figure_1">
  <g id="patch_1">
   <path d="M 0 345.6 
L 460.8 345.6 
L 460.8 0 
L 0 0 
z
" style="fill: #ffffff"/>
  </g>
  <g id="axes_1">
   <g id="patch_2">
    <path d="M 57.6 307.584 
L 414.72 307.584 
L 414.72 41.472 
L 57.6 41.472 
z
" style="fill: #ffffff"/>
   </g>
   <g id="matplotlib.axis_1">
    <g id="xtick_1">
     <g id="line2d_1">
      <defs>
       <path id="m1810dbab96" d="M 0 0 
L 0 3.5 
" style="stroke: #000000; stroke-width: 0.8"/>
      </defs>
      <g>
       <use xlink:href="#m1810dbab96" x="70.553388" y="307.584" style="stroke: #000000; stroke-width: 0.8"/>
      </g>
     </g>
     <g id="text_1">
      <!-- 0 -->
      <g transform="translate(67.372138 322.182437)scale(0.1 -0.1)">
       <defs>
        <path id="DejaVuSans-30" d="M 2034 4250 
Q 1547 4250 1301 3770 
Q 1056 3291 1056 2328 
Q 1056 1369 1301 889 
Q 1547 409 2034 409 
Q 2525 409 2770 889 
Q 3016 1369 3016 2328 
Q 3016 3291 2770 3770 
Q 2525 4250 2034 4250 
z
M 2034 4750 
Q 2819 4750 3233 4129 
Q 3647 3509 3647 2328 
Q 3647 1150 3233 529 
Q 2819 -91 2034 -91 
Q 1250 -91 836 529 
Q 422 1150 422 2328 
Q 422 3509 836 4129 
Q 1250 4750 2034 4750 
z
" transform="scale(0.015625)"/>
       </defs>
       <use xlink:href="#DejaVuSans-30"/>
      </g>
     </g>
    </g>
    <g id="xtick_2">
     <g id="line2d_2">
      <g>
       <use xlink:href="#m1810dbab96" x="111.545124" y="307.584" style="stroke: #000000; stroke-width: 0.8"/>
      </g>
     </g>
     <g id="text_2">
      <!-- 25 -->
      <g transform="translate(105.182624 322.182437)scale(0.1 -0.1)">
       <defs>
        <path id="DejaVuSans-32" d="M 1228 531 
L 3431 531 
L 3431 0 
L 469 0 
L 469 531 
Q 828 903 1448 1529 
Q 2069 2156 2228 2338 
Q 2531 2678 2651 2914 
Q 2772 3150 2772 3378 
Q 2772 3750 2511 3984 
Q 2250 4219 1831 4219 
Q 1534 4219 1204 4116 
Q 875 4013 500 3803 
L 500 4441 
Q 881 4594 1212 4672 
Q 1544 4750 1819 4750 
Q 2544 4750 2975 4387 
Q 3406 4025 3406 3419 
Q 3406 3131 3298 2873 
Q 3191 2616 2906 2266 
Q 2828 2175 2409 1742 
Q 1991 1309 1228 531 
z
" transform="scale(0.015625)"/>
        <path id="DejaVuSans-35" d="M 691 4666 
L 3169 4666 
L 3169 4134 
L 1269 4134 
L 1269 2991 
Q 1406 3038 1543 3061 
Q 1681 3084 1819 3084 
Q 2600 3084 3056 2656 
Q 3513 2228 3513 1497 
Q 3513 744 3044 326 
Q 2575 -91 1722 -91 
Q 1428 -91 1123 -41 
Q 819 9 494 109 
L 494 744 
Q 775 591 1075 516 
Q 1375 441 1709 441 
Q 2250 441 2565 725 
Q 2881 1009 2881 1497 
Q 2881 1984 2565 2268 
Q 2250 2553 1709 2553 
Q 1456 2553 1204 2497 
Q 953 2441 691 2322 
L 691 4666 
z
" transform="scale(0.015625)"/>
       </defs>
       <use xlink:href="#DejaVuSans-32"/>
       <use xlink:href="#DejaVuSans-35" x="63.623047"/>
      </g>
     </g>
    </g>
    <g id="xtick_3">
     <g id="line2d_3">
      <g>
       <use xlink:href="#m1810dbab96" x="152.53686" y="307.584" style="stroke: #000000; stroke-width: 0.8"/>
      </g>
     </g>
     <g id="text_3">
      <!-- 50 -->
      <g transform="translate(146.17436 322.182437)scale(0.1 -0.1)">
       <use xlink:href="#DejaVuSans-35"/>
       <use xlink:href="#DejaVuSans-30" x="63.623047"/>
      </g>
     </g>
    </g>
    <g id="xtick_4">
     <g id="line2d_4">
      <g>
       <use xlink:href="#m1810dbab96" x="193.528595" y="307.584" style="stroke: #000000; stroke-width: 0.8"/>
      </g>
     </g>
     <g id="text_4">
      <!-- 75 -->
      <g transform="translate(187.166095 322.182437)scale(0.1 -0.1)">
       <defs>
        <path id="DejaVuSans-37" d="M 525 4666 
L 3525 4666 
L 3525 4397 
L 1831 0 
L 1172 0 
L 2766 4134 
L 525 4134 
L 525 4666 
z
" transform="scale(0.015625)"/>
       </defs>
       <use xlink:href="#DejaVuSans-37"/>
       <use xlink:href="#DejaVuSans-35" x="63.623047"/>
      </g>
     </g>
    </g>
    <g id="xtick_5">
     <g id="line2d_5">
      <g>
       <use xlink:href="#m1810dbab96" x="234.520331" y="307.584" style="stroke: #000000; stroke-width: 0.8"/>
      </g>
     </g>
     <g id="text_5">
      <!-- 100 -->
      <g transform="translate(224.976581 322.182437)scale(0.1 -0.1)">
       <defs>
        <path id="DejaVuSans-31" d="M 794 531 
L 1825 531 
L 1825 4091 
L 703 3866 
L 703 4441 
L 1819 4666 
L 2450 4666 
L 2450 531 
L 3481 531 
L 3481 0 
L 794 0 
L 794 531 
z
" transform="scale(0.015625)"/>
       </defs>
       <use xlink:href="#DejaVuSans-31"/>
       <use xlink:href="#DejaVuSans-30" x="63.623047"/>
       <use xlink:href="#DejaVuSans-30" x="127.246094"/>
      </g>
     </g>
    </g>
    <g id="xtick_6">
     <g id="line2d_6">
      <g>
       <use xlink:href="#m1810dbab96" x="275.512066" y="307.584" style="stroke: #000000; stroke-width: 0.8"/>
      </g>
     </g>
     <g id="text_6">
      <!-- 125 -->
      <g transform="translate(265.968316 322.182437)scale(0.1 -0.1)">
       <use xlink:href="#DejaVuSans-31"/>
       <use xlink:href="#DejaVuSans-32" x="63.623047"/>
       <use xlink:href="#DejaVuSans-35" x="127.246094"/>
      </g>
     </g>
    </g>
    <g id="xtick_7">
     <g id="line2d_7">
      <g>
       <use xlink:href="#m1810dbab96" x="316.503802" y="307.584" style="stroke: #000000; stroke-width: 0.8"/>
      </g>
     </g>
     <g id="text_7">
      <!-- 150 -->
      <g transform="translate(306.960052 322.182437)scale(0.1 -0.1)">
       <use xlink:href="#DejaVuSans-31"/>
       <use xlink:href="#DejaVuSans-35" x="63.623047"/>
       <use xlink:href="#DejaVuSans-30" x="127.246094"/>
      </g>
     </g>
    </g>
    <g id="xtick_8">
     <g id="line2d_8">
      <g>
       <use xlink:href="#m1810dbab96" x="357.495537" y="307.584" style="stroke: #000000; stroke-width: 0.8"/>
      </g>
     </g>
     <g id="text_8">
      <!-- 175 -->
      <g transform="translate(347.951787 322.182437)scale(0.1 -0.1)">
       <use xlink:href="#DejaVuSans-31"/>
       <use xlink:href="#DejaVuSans-37" x="63.623047"/>
       <use xlink:href="#DejaVuSans-35" x="127.246094"/>
      </g>
     </g>
    </g>
    <g id="xtick_9">
     <g id="line2d_9">
      <g>
       <use xlink:href="#m1810dbab96" x="398.487273" y="307.584" style="stroke: #000000; stroke-width: 0.8"/>
      </g>
     </g>
     <g id="text_9">
      <!-- 200 -->
      <g transform="translate(388.943523 322.182437)scale(0.1 -0.1)">
       <use xlink:href="#DejaVuSans-32"/>
       <use xlink:href="#DejaVuSans-30" x="63.623047"/>
       <use xlink:href="#DejaVuSans-30" x="127.246094"/>
      </g>
     </g>
    </g>
    <g id="text_10">
     <!-- lambda rate (pkt/s) -->
     <g transform="translate(187.869375 335.860562)scale(0.1 -0.1)">
      <defs>
       <path id="DejaVuSans-6c" d="M 603 4863 
L 1178 4863 
L 1178 0 
L 603 0 
L 603 4863 
z
" transform="scale(0.015625)"/>
       <path id="DejaVuSans-61" d="M 2194 1759 
Q 1497 1759 1228 1600 
Q 959 1441 959 1056 
Q 959 750 1161 570 
Q 1363 391 1709 391 
Q 2188 391 2477 730 
Q 2766 1069 2766 1631 
L 2766 1759 
L 2194 1759 
z
M 3341 1997 
L 3341 0 
L 2766 0 
L 2766 531 
Q 2569 213 2275 61 
Q 1981 -91 1556 -91 
Q 1019 -91 701 211 
Q 384 513 384 1019 
Q 384 1609 779 1909 
Q 1175 2209 1959 2209 
L 2766 2209 
L 2766 2266 
Q 2766 2663 2505 2880 
Q 2244 3097 1772 3097 
Q 1472 3097 1187 3025 
Q 903 2953 641 2809 
L 641 3341 
Q 956 3463 1253 3523 
Q 1550 3584 1831 3584 
Q 2591 3584 2966 3190 
Q 3341 2797 3341 1997 
z
" transform="scale(0.015625)"/>
       <path id="DejaVuSans-6d" d="M 3328 2828 
Q 3544 3216 3844 3400 
Q 4144 3584 4550 3584 
Q 5097 3584 5394 3201 
Q 5691 2819 5691 2113 
L 5691 0 
L 5113 0 
L 5113 2094 
Q 5113 2597 4934 2840 
Q 4756 3084 4391 3084 
Q 3944 3084 3684 2787 
Q 3425 2491 3425 1978 
L 3425 0 
L 2847 0 
L 2847 2094 
Q 2847 2600 2669 2842 
Q 2491 3084 2119 3084 
Q 1678 3084 1418 2786 
Q 1159 2488 1159 1978 
L 1159 0 
L 581 0 
L 581 3500 
L 1159 3500 
L 1159 2956 
Q 1356 3278 1631 3431 
Q 1906 3584 2284 3584 
Q 2666 3584 2933 3390 
Q 3200 3197 3328 2828 
z
" transform="scale(0.015625)"/>
       <path id="DejaVuSans-62" d="M 3116 1747 
Q 3116 2381 2855 2742 
Q 2594 3103 2138 3103 
Q 1681 3103 1420 2742 
Q 1159 2381 1159 1747 
Q 1159 1113 1420 752 
Q 1681 391 2138 391 
Q 2594 391 2855 752 
Q 3116 1113 3116 1747 
z
M 1159 2969 
Q 1341 3281 1617 3432 
Q 1894 3584 2278 3584 
Q 2916 3584 3314 3078 
Q 3713 2572 3713 1747 
Q 3713 922 3314 415 
Q 2916 -91 2278 -91 
Q 1894 -91 1617 61 
Q 1341 213 1159 525 
L 1159 0 
L 581 0 
L 581 4863 
L 1159 4863 
L 1159 2969 
z
" transform="scale(0.015625)"/>
       <path id="DejaVuSans-64" d="M 2906 2969 
L 2906 4863 
L 3481 4863 
L 3481 0 
L 2906 0 
L 2906 525 
Q 2725 213 2448 61 
Q 2172 -91 1784 -91 
Q 1150 -91 751 415 
Q 353 922 353 1747 
Q 353 2572 751 3078 
Q 1150 3584 1784 3584 
Q 2172 3584 2448 3432 
Q 2725 3281 2906 2969 
z
M 947 1747 
Q 947 1113 1208 752 
Q 1469 391 1925 391 
Q 2381 391 2643 752 
Q 2906 1113 2906 1747 
Q 2906 2381 2643 2742 
Q 2381 3103 1925 3103 
Q 1469 3103 1208 2742 
Q 947 2381 947 1747 
z
" transform="scale(0.015625)"/>
       <path id="DejaVuSans-20" transform="scale(0.015625)"/>
       <path id="DejaVuSans-72" d="M 2631 2963 
Q 2534 3019 2420 3045 
Q 2306 3072 2169 3072 
Q 1681 3072 1420 2755 
Q 1159 2438 1159 1844 
L 1159 0 
L 581 0 
L 581 3500 
L 1159 3500 
L 1159 2956 
Q 1341 3275 1631 3429 
Q 1922 3584 2338 3584 
Q 2397 3584 2469 3576 
Q 2541 3569 2628 3553 
L 2631 2963 
z
" transform="scale(0.015625)"/>
       <path id="DejaVuSans-74" d="M 1172 4494 
L 1172 3500 
L 2356 3500 
L 2356 3053 
L 1172 3053 
L 1172 1153 
Q 1172 725 1289 603 
Q 1406 481 1766 481 
L 2356 481 
L 2356 0 
L 1766 0 
Q 1100 0 847 248 
Q 594 497 594 1153 
L 594 3053 
L 172 3053 
L 172 3500 
L 594 3500 
L 594 4494 
L 1172 4494 
z
" transform="scale(0.015625)"/>
       <path id="DejaVuSans-65" d="M 3597 1894 
L 3597 1613 
L 953 1613 
Q 991 1019 1311 708 
Q 1631 397 2203 397 
Q 2534 397 2845 478 
Q 3156 559 3463 722 
L 3463 178 
Q 3153 47 2828 -22 
Q 2503 -91 2169 -91 
Q 1331 -91 842 396 
Q 353 884 353 1716 
Q 353 2575 817 3079 
Q 1281 3584 2069 3584 
Q 2775 3584 3186 3129 
Q 3597 2675 3597 1894 
z
M 3022 2063 
Q 3016 2534 2758 2815 
Q 2500 3097 2075 3097 
Q 1594 3097 1305 2825 
Q 1016 2553 972 2059 
L 3022 2063 
z
" transform="scale(0.015625)"/>
       <path id="DejaVuSans-28" d="M 1984 4856 
Q 1566 4138 1362 3434 
Q 1159 2731 1159 2009 
Q 1159 1288 1364 580 
Q 1569 -128 1984 -844 
L 1484 -844 
Q 1016 -109 783 600 
Q 550 1309 550 2009 
Q 550 2706 781 3412 
Q 1013 4119 1484 4856 
L 1984 4856 
z
" transform="scale(0.015625)"/>
       <path id="DejaVuSans-70" d="M 1159 525 
L 1159 -1331 
L 581 -1331 
L 581 3500 
L 1159 3500 
L 1159 2969 
Q 1341 3281 1617 3432 
Q 1894 3584 2278 3584 
Q 2916 3584 3314 3078 
Q 3713 2572 3713 1747 
Q 3713 922 3314 415 
Q 2916 -91 2278 -91 
Q 1894 -91 1617 61 
Q 1341 213 1159 525 
z
M 3116 1747 
Q 3116 2381 2855 2742 
Q 2594 3103 2138 3103 
Q 1681 3103 1420 2742 
Q 1159 2381 1159 1747 
Q 1159 1113 1420 752 
Q 1681 391 2138 391 
Q 2594 391 2855 752 
Q 3116 1113 3116 1747 
z
" transform="scale(0.015625)"/>
       <path id="DejaVuSans-6b" d="M 581 4863 
L 1159 4863 
L 1159 1991 
L 2875 3500 
L 3609 3500 
L 1753 1863 
L 3688 0 
L 2938 0 
L 1159 1709 
L 1159 0 
L 581 0 
L 581 4863 
z
" transform="scale(0.015625)"/>
       <path id="DejaVuSans-2f" d="M 1625 4666 
L 2156 4666 
L 531 -594 
L 0 -594 
L 1625 4666 
z
" transform="scale(0.015625)"/>
       <path id="DejaVuSans-73" d="M 2834 3397 
L 2834 2853 
Q 2591 2978 2328 3040 
Q 2066 3103 1784 3103 
Q 1356 3103 1142 2972 
Q 928 2841 928 2578 
Q 928 2378 1081 2264 
Q 1234 2150 1697 2047 
L 1894 2003 
Q 2506 1872 2764 1633 
Q 3022 1394 3022 966 
Q 3022 478 2636 193 
Q 2250 -91 1575 -91 
Q 1294 -91 989 -36 
Q 684 19 347 128 
L 347 722 
Q 666 556 975 473 
Q 1284 391 1588 391 
Q 1994 391 2212 530 
Q 2431 669 2431 922 
Q 2431 1156 2273 1281 
Q 2116 1406 1581 1522 
L 1381 1569 
Q 847 1681 609 1914 
Q 372 2147 372 2553 
Q 372 3047 722 3315 
Q 1072 3584 1716 3584 
Q 2034 3584 2315 3537 
Q 2597 3491 2834 3397 
z
" transform="scale(0.015625)"/>
       <path id="DejaVuSans-29" d="M 513 4856 
L 1013 4856 
Q 1481 4119 1714 3412 
Q 1947 2706 1947 2009 
Q 1947 1309 1714 600 
Q 1481 -109 1013 -844 
L 513 -844 
Q 928 -128 1133 580 
Q 1338 1288 1338 2009 
Q 1338 2731 1133 3434 
Q 928 4138 513 4856 
z
" transform="scale(0.015625)"/>
      </defs>
      <use xlink:href="#DejaVuSans-6c"/>
      <use xlink:href="#DejaVuSans-61" x="27.783203"/>
      <use xlink:href="#DejaVuSans-6d" x="89.0625"/>
      <use xlink:href="#DejaVuSans-62" x="186.474609"/>
      <use xlink:href="#DejaVuSans-64" x="249.951172"/>
      <use xlink:href="#DejaVuSans-61" x="313.427734"/>
      <use xlink:href="#DejaVuSans-20" x="374.707031"/>
      <use xlink:href="#DejaVuSans-72" x="406.494141"/>
      <use xlink:href="#DejaVuSans-61" x="447.607422"/>
      <use xlink:href="#DejaVuSans-74" x="508.886719"/>
      <use xlink:href="#DejaVuSans-65" x="548.095703"/>
      <use xlink:href="#DejaVuSans-20" x="609.619141"/>
      <use xlink:href="#DejaVuSans-28" x="641.40625"/>
      <use xlink:href="#DejaVuSans-70" x="680.419922"/>
      <use xlink:href="#DejaVuSans-6b" x="743.896484"/>
      <use xlink:href="#DejaVuSans-74" x="801.806641"/>
      <use xlink:href="#DejaVuSans-2f" x="841.015625"/>
      <use xlink:href="#DejaVuSans-73" x="874.707031"/>
      <use xlink:href="#DejaVuSans-29" x="926.806641"/>
     </g>
    </g>
   </g>
   <g id="matplotlib.axis_2">
    <g id="ytick_1">
     <g id="line2d_10">
      <defs>
       <path id="mb730e97f9b" d="M 0 0 
L -3.5 0 
" style="stroke: #000000; stroke-width: 0.8"/>
      </defs>
      <g>
       <use xlink:href="#mb730e97f9b" x="57.6" y="295.488" style="stroke: #000000; stroke-width: 0.8"/>
      </g>
     </g>
     <g id="text_11">
      <!-- 0 -->
      <g transform="translate(44.2375 299.287219)scale(0.1 -0.1)">
       <use xlink:href="#DejaVuSans-30"/>
      </g>
     </g>
    </g>
    <g id="ytick_2">
     <g id="line2d_11">
      <g>
       <use xlink:href="#mb730e97f9b" x="57.6" y="265.606577" style="stroke: #000000; stroke-width: 0.8"/>
      </g>
     </g>
     <g id="text_12">
      <!-- 5 -->
      <g transform="translate(44.2375 269.405796)scale(0.1 -0.1)">
       <use xlink:href="#DejaVuSans-35"/>
      </g>
     </g>
    </g>
    <g id="ytick_3">
     <g id="line2d_12">
      <g>
       <use xlink:href="#mb730e97f9b" x="57.6" y="235.725154" style="stroke: #000000; stroke-width: 0.8"/>
      </g>
     </g>
     <g id="text_13">
      <!-- 10 -->
      <g transform="translate(37.875 239.524373)scale(0.1 -0.1)">
       <use xlink:href="#DejaVuSans-31"/>
       <use xlink:href="#DejaVuSans-30" x="63.623047"/>
      </g>
     </g>
    </g>
    <g id="ytick_4">
     <g id="line2d_13">
      <g>
       <use xlink:href="#mb730e97f9b" x="57.6" y="205.843731" style="stroke: #000000; stroke-width: 0.8"/>
      </g>
     </g>
     <g id="text_14">
      <!-- 15 -->
      <g transform="translate(37.875 209.64295)scale(0.1 -0.1)">
       <use xlink:href="#DejaVuSans-31"/>
       <use xlink:href="#DejaVuSans-35" x="63.623047"/>
      </g>
     </g>
    </g>
    <g id="ytick_5">
     <g id="line2d_14">
      <g>
       <use xlink:href="#mb730e97f9b" x="57.6" y="175.962308" style="stroke: #000000; stroke-width: 0.8"/>
      </g>
     </g>
     <g id="text_15">
      <!-- 20 -->
      <g transform="translate(37.875 179.761527)scale(0.1 -0.1)">
       <use xlink:href="#DejaVuSans-32"/>
       <use xlink:href="#DejaVuSans-30" x="63.623047"/>
      </g>
     </g>
    </g>
    <g id="ytick_6">
     <g id="line2d_15">
      <g>
       <use xlink:href="#mb730e97f9b" x="57.6" y="146.080885" style="stroke: #000000; stroke-width: 0.8"/>
      </g>
     </g>
     <g id="text_16">
      <!-- 25 -->
      <g transform="translate(37.875 149.880104)scale(0.1 -0.1)">
       <use xlink:href="#DejaVuSans-32"/>
       <use xlink:href="#DejaVuSans-35" x="63.623047"/>
      </g>
     </g>
    </g>
    <g id="ytick_7">
     <g id="line2d_16">
      <g>
       <use xlink:href="#mb730e97f9b" x="57.6" y="116.199462" style="stroke: #000000; stroke-width: 0.8"/>
      </g>
     </g>
     <g id="text_17">
      <!-- 30 -->
      <g transform="translate(37.875 119.998681)scale(0.1 -0.1)">
       <defs>
        <path id="DejaVuSans-33" d="M 2597 2516 
Q 3050 2419 3304 2112 
Q 3559 1806 3559 1356 
Q 3559 666 3084 287 
Q 2609 -91 1734 -91 
Q 1441 -91 1130 -33 
Q 819 25 488 141 
L 488 750 
Q 750 597 1062 519 
Q 1375 441 1716 441 
Q 2309 441 2620 675 
Q 2931 909 2931 1356 
Q 2931 1769 2642 2001 
Q 2353 2234 1838 2234 
L 1294 2234 
L 1294 2753 
L 1863 2753 
Q 2328 2753 2575 2939 
Q 2822 3125 2822 3475 
Q 2822 3834 2567 4026 
Q 2313 4219 1838 4219 
Q 1578 4219 1281 4162 
Q 984 4106 628 3988 
L 628 4550 
Q 988 4650 1302 4700 
Q 1616 4750 1894 4750 
Q 2613 4750 3031 4423 
Q 3450 4097 3450 3541 
Q 3450 3153 3228 2886 
Q 3006 2619 2597 2516 
z
" transform="scale(0.015625)"/>
       </defs>
       <use xlink:href="#DejaVuSans-33"/>
       <use xlink:href="#DejaVuSans-30" x="63.623047"/>
      </g>
     </g>
    </g>
    <g id="ytick_8">
     <g id="line2d_17">
      <g>
       <use xlink:href="#mb730e97f9b" x="57.6" y="86.31804" style="stroke: #000000; stroke-width: 0.8"/>
      </g>
     </g>
     <g id="text_18">
      <!-- 35 -->
      <g transform="translate(37.875 90.117258)scale(0.1 -0.1)">
       <use xlink:href="#DejaVuSans-33"/>
       <use xlink:href="#DejaVuSans-35" x="63.623047"/>
      </g>
     </g>
    </g>
    <g id="ytick_9">
     <g id="line2d_18">
      <g>
       <use xlink:href="#mb730e97f9b" x="57.6" y="56.436617" style="stroke: #000000; stroke-width: 0.8"/>
      </g>
     </g>
     <g id="text_19">
      <!-- 40 -->
      <g transform="translate(37.875 60.235835)scale(0.1 -0.1)">
       <defs>
        <path id="DejaVuSans-34" d="M 2419 4116 
L 825 1625 
L 2419 1625 
L 2419 4116 
z
M 2253 4666 
L 3047 4666 
L 3047 1625 
L 3713 1625 
L 3713 1100 
L 3047 1100 
L 3047 0 
L 2419 0 
L 2419 1100 
L 313 1100 
L 313 1709 
L 2253 4666 
z
" transform="scale(0.015625)"/>
       </defs>
       <use xlink:href="#DejaVuSans-34"/>
       <use xlink:href="#DejaVuSans-30" x="63.623047"/>
      </g>
     </g>
    </g>
    <g id="text_20">
     <!-- packet drop (%) -->
     <g transform="translate(31.795312 214.447531)rotate(-90)scale(0.1 -0.1)">
      <defs>
       <path id="DejaVuSans-63" d="M 3122 3366 
L 3122 2828 
Q 2878 2963 2633 3030 
Q 2388 3097 2138 3097 
Q 1578 3097 1268 2742 
Q 959 2388 959 1747 
Q 959 1106 1268 751 
Q 1578 397 2138 397 
Q 2388 397 2633 464 
Q 2878 531 3122 666 
L 3122 134 
Q 2881 22 2623 -34 
Q 2366 -91 2075 -91 
Q 1284 -91 818 406 
Q 353 903 353 1747 
Q 353 2603 823 3093 
Q 1294 3584 2113 3584 
Q 2378 3584 2631 3529 
Q 2884 3475 3122 3366 
z
" transform="scale(0.015625)"/>
       <path id="DejaVuSans-6f" d="M 1959 3097 
Q 1497 3097 1228 2736 
Q 959 2375 959 1747 
Q 959 1119 1226 758 
Q 1494 397 1959 397 
Q 2419 397 2687 759 
Q 2956 1122 2956 1747 
Q 2956 2369 2687 2733 
Q 2419 3097 1959 3097 
z
M 1959 3584 
Q 2709 3584 3137 3096 
Q 3566 2609 3566 1747 
Q 3566 888 3137 398 
Q 2709 -91 1959 -91 
Q 1206 -91 779 398 
Q 353 888 353 1747 
Q 353 2609 779 3096 
Q 1206 3584 1959 3584 
z
" transform="scale(0.015625)"/>
       <path id="DejaVuSans-25" d="M 4653 2053 
Q 4381 2053 4226 1822 
Q 4072 1591 4072 1178 
Q 4072 772 4226 539 
Q 4381 306 4653 306 
Q 4919 306 5073 539 
Q 5228 772 5228 1178 
Q 5228 1588 5073 1820 
Q 4919 2053 4653 2053 
z
M 4653 2450 
Q 5147 2450 5437 2106 
Q 5728 1763 5728 1178 
Q 5728 594 5436 251 
Q 5144 -91 4653 -91 
Q 4153 -91 3862 251 
Q 3572 594 3572 1178 
Q 3572 1766 3864 2108 
Q 4156 2450 4653 2450 
z
M 1428 4353 
Q 1159 4353 1004 4120 
Q 850 3888 850 3481 
Q 850 3069 1003 2837 
Q 1156 2606 1428 2606 
Q 1700 2606 1854 2837 
Q 2009 3069 2009 3481 
Q 2009 3884 1853 4118 
Q 1697 4353 1428 4353 
z
M 4250 4750 
L 4750 4750 
L 1831 -91 
L 1331 -91 
L 4250 4750 
z
M 1428 4750 
Q 1922 4750 2215 4408 
Q 2509 4066 2509 3481 
Q 2509 2891 2217 2550 
Q 1925 2209 1428 2209 
Q 931 2209 642 2551 
Q 353 2894 353 3481 
Q 353 4063 643 4406 
Q 934 4750 1428 4750 
z
" transform="scale(0.015625)"/>
      </defs>
      <use xlink:href="#DejaVuSans-70"/>
      <use xlink:href="#DejaVuSans-61" x="63.476562"/>
      <use xlink:href="#DejaVuSans-63" x="124.755859"/>
      <use xlink:href="#DejaVuSans-6b" x="179.736328"/>
      <use xlink:href="#DejaVuSans-65" x="234.021484"/>
      <use xlink:href="#DejaVuSans-74" x="295.544922"/>
      <use xlink:href="#DejaVuSans-20" x="334.753906"/>
      <use xlink:href="#DejaVuSans-64" x="366.541016"/>
      <use xlink:href="#DejaVuSans-72" x="430.017578"/>
      <use xlink:href="#DejaVuSans-6f" x="468.880859"/>
      <use xlink:href="#DejaVuSans-70" x="530.0625"/>
      <use xlink:href="#DejaVuSans-20" x="593.539062"/>
      <use xlink:href="#DejaVuSans-28" x="625.326172"/>
      <use xlink:href="#DejaVuSans-25" x="664.339844"/>
      <use xlink:href="#DejaVuSans-29" x="759.359375"/>
     </g>
    </g>
   </g>
   <g id="line2d_19">
    <path d="M 80.391405 295.488 
L 83.670744 277.559146 
L 86.950083 295.488 
L 90.229421 295.488 
L 93.50876 247.498435 
L 96.788099 295.488 
L 100.067438 295.488 
L 103.346777 293.754877 
L 106.626116 295.488 
L 109.905455 295.488 
L 113.184793 295.488 
L 116.464132 295.488 
L 119.743471 295.488 
L 123.02281 281.503494 
L 126.302149 295.488 
L 129.581488 295.488 
L 132.860826 295.488 
L 136.140165 295.488 
L 139.419504 295.488 
L 142.698843 295.488 
L 145.978182 292.679146 
L 149.257521 295.488 
L 152.53686 295.488 
L 155.816198 295.488 
L 159.095537 295.488 
L 162.374876 289.81053 
L 165.654215 295.488 
L 168.933554 292.738909 
L 172.212893 294.950134 
L 175.492231 295.488 
L 178.77157 294.531794 
L 182.050909 286.643099 
L 185.330248 295.488 
L 188.609587 295.488 
L 191.888926 291.185075 
L 195.168264 284.670925 
L 198.447603 295.488 
L 201.726942 295.488 
L 205.006281 294.711083 
L 208.28562 290.946024 
L 211.564959 295.488 
L 214.844298 295.488 
L 218.123636 293.3963 
L 221.402975 294.770846 
L 224.682314 294.830609 
L 227.961653 295.488 
L 231.240992 294.830609 
L 234.520331 294.830609 
L 237.799669 293.635352 
L 241.079008 291.842466 
L 244.358347 286.643099 
L 247.637686 282.220648 
L 250.917025 278.336063 
L 254.196364 275.288158 
L 257.475702 259.032664 
L 260.755041 260.168158 
L 264.03438 250.904917 
L 267.313719 246.362941 
L 270.593058 241.163573 
L 273.872397 226.82049 
L 277.151736 224.609265 
L 280.431074 232.019858 
L 283.710413 209.489265 
L 286.989752 210.206419 
L 290.269091 204.170372 
L 293.54843 202.975115 
L 296.827769 202.915352 
L 300.107107 201.301755 
L 303.386446 205.963257 
L 306.665785 189.169897 
L 309.945124 189.588237 
L 313.224463 180.444522 
L 316.503802 171.599621 
L 319.78314 170.882466 
L 323.062479 167.17717 
L 326.341818 156.419858 
L 329.621157 138.012901 
L 332.900496 143.690372 
L 336.179835 139.626498 
L 339.459174 121.697644 
L 342.738512 117.514245 
L 346.017851 117.155668 
L 349.29719 103.828553 
L 352.576529 113.928474 
L 355.855868 112.852743 
L 359.135207 92.712664 
L 362.414545 112.135589 
L 365.693884 104.665233 
L 368.973223 81.29796 
L 372.252562 83.090846 
L 375.531901 90.800253 
L 378.81124 66.835352 
L 382.090579 82.254166 
L 385.369917 67.134166 
L 388.649256 82.792032 
L 391.928595 54.344917 
L 395.207934 66.417012 
L 398.487273 64.026498 
" clip-path="url(#paf37854a23)" style="fill: none; stroke: #1f77b4; stroke-width: 1.5; stroke-linecap: square"/>
   </g>
   <g id="line2d_20">
    <path d="M 80.391405 295.488 
L 83.670744 295.488 
L 86.950083 295.488 
L 90.229421 295.488 
L 93.50876 295.488 
L 96.788099 295.488 
L 100.067438 295.488 
L 103.346777 295.488 
L 106.626116 295.488 
L 109.905455 295.488 
L 113.184793 295.488 
L 116.464132 295.488 
L 119.743471 295.488 
L 123.02281 285.447842 
L 126.302149 295.488 
L 129.581488 289.989818 
L 132.860826 295.488 
L 136.140165 295.488 
L 139.419504 295.488 
L 142.698843 295.488 
L 145.978182 295.488 
L 149.257521 294.830609 
L 152.53686 283.894008 
L 155.816198 295.488 
L 159.095537 291.304601 
L 162.374876 295.488 
L 165.654215 294.950134 
L 168.933554 295.488 
L 172.212893 295.488 
L 175.492231 294.472032 
L 178.77157 291.663178 
L 182.050909 295.488 
L 185.330248 295.488 
L 188.609587 295.488 
L 191.888926 295.488 
L 195.168264 295.488 
L 198.447603 295.488 
L 201.726942 294.711083 
L 205.006281 295.488 
L 208.28562 295.488 
L 211.564959 295.488 
L 214.844298 295.129423 
L 218.123636 293.754877 
L 221.402975 291.304601 
L 224.682314 294.113455 
L 227.961653 289.930055 
L 231.240992 294.531794 
L 234.520331 293.874403 
L 237.799669 292.320569 
L 241.079008 291.185075 
L 244.358347 287.001676 
L 247.637686 285.208791 
L 250.917025 276.841992 
L 254.196364 268.236142 
L 257.475702 269.969265 
L 260.755041 261.721992 
L 264.03438 248.932743 
L 267.313719 230.645312 
L 270.593058 240.087842 
L 273.872397 228.434087 
L 277.151736 233.693217 
L 280.431074 214.150767 
L 283.710413 218.154877 
L 286.989752 208.652585 
L 290.269091 203.871557 
L 293.54843 192.934957 
L 296.827769 191.620174 
L 300.107107 194.429028 
L 303.386446 173.093692 
L 306.665785 189.707763 
L 309.945124 189.707763 
L 313.224463 183.671715 
L 316.503802 171.061755 
L 319.78314 166.878356 
L 323.062479 162.396142 
L 326.341818 157.3163 
L 329.621157 147.634719 
L 332.900496 144.048949 
L 336.179835 130.662071 
L 339.459174 125.881043 
L 342.738512 133.172111 
L 346.017851 117.753296 
L 349.29719 113.62966 
L 352.576529 106.338593 
L 355.855868 97.912032 
L 359.135207 105.681202 
L 362.414545 94.625075 
L 365.693884 90.501439 
L 368.973223 100.541597 
L 372.252562 88.290213 
L 375.531901 90.860016 
L 378.81124 81.835826 
L 382.090579 88.469502 
L 385.369917 69.046577 
L 388.649256 68.329423 
L 391.928595 66.058435 
L 395.207934 62.771478 
L 398.487273 65.998672 
" clip-path="url(#paf37854a23)" style="fill: none; stroke: #ff7f0e; stroke-width: 1.5; stroke-linecap: square"/>
   </g>
   <g id="line2d_21">
    <path d="M 80.391405 295.488 
L 83.670744 295.488 
L 86.950083 295.488 
L 90.229421 295.488 
L 93.50876 239.131636 
L 96.788099 293.097486 
L 100.067438 295.488 
L 103.346777 295.488 
L 106.626116 295.488 
L 109.905455 295.488 
L 113.184793 294.173217 
L 116.464132 295.488 
L 119.743471 288.017644 
L 123.02281 278.037249 
L 126.302149 295.488 
L 129.581488 295.488 
L 132.860826 295.488 
L 136.140165 293.934166 
L 139.419504 294.711083 
L 142.698843 295.488 
L 145.978182 292.679146 
L 149.257521 295.488 
L 152.53686 295.488 
L 155.816198 295.488 
L 159.095537 295.488 
L 162.374876 294.950134 
L 165.654215 295.488 
L 168.933554 294.950134 
L 172.212893 294.472032 
L 175.492231 295.488 
L 178.77157 294.531794 
L 182.050909 287.659067 
L 185.330248 293.217012 
L 188.609587 295.488 
L 191.888926 287.778593 
L 195.168264 294.23298 
L 198.447603 295.488 
L 201.726942 295.488 
L 205.006281 294.711083 
L 208.28562 291.722941 
L 211.564959 295.488 
L 214.844298 295.488 
L 218.123636 292.679146 
L 221.402975 287.240727 
L 224.682314 295.488 
L 227.961653 295.488 
L 231.240992 295.488 
L 234.520331 292.918198 
L 237.799669 292.380332 
L 241.079008 290.946024 
L 244.358347 287.360253 
L 247.637686 282.997565 
L 250.917025 277.499383 
L 254.196364 271.642625 
L 257.475702 262.977012 
L 260.755041 252.63804 
L 264.03438 247.319146 
L 267.313719 243.733375 
L 270.593058 239.490213 
L 273.872397 232.378435 
L 277.151736 224.669028 
L 280.431074 220.246577 
L 283.710413 211.102862 
L 286.989752 209.489265 
L 290.269091 213.911715 
L 293.54843 196.879304 
L 296.827769 199.927209 
L 300.107107 182.29717 
L 303.386446 204.768 
L 306.665785 191.142071 
L 309.945124 186.898909 
L 313.224463 178.532111 
L 316.503802 177.575905 
L 319.78314 156.061281 
L 323.062479 151.63883 
L 326.341818 143.929423 
L 329.621157 141.77796 
L 332.900496 133.470925 
L 336.179835 128.74966 
L 339.459174 135.861439 
L 342.738512 123.012427 
L 346.017851 115.960411 
L 349.29719 111.836775 
L 352.576529 106.69717 
L 355.855868 100.302545 
L 359.135207 94.684838 
L 362.414545 87.214482 
L 365.693884 82.672506 
L 368.973223 64.624126 
L 372.252562 88.529265 
L 375.531901 63.42887 
L 378.81124 91.696696 
L 382.090579 75.919304 
L 385.369917 91.816221 
L 388.649256 81.955352 
L 391.928595 76.815747 
L 395.207934 69.405154 
L 398.487273 65.640095 
" clip-path="url(#paf37854a23)" style="fill: none; stroke: #2ca02c; stroke-width: 1.5; stroke-linecap: square"/>
   </g>
   <g id="line2d_22">
    <path d="M 80.391405 295.488 
L 83.670744 295.488 
L 86.950083 291.603415 
L 90.229421 295.488 
L 93.50876 295.488 
L 96.788099 295.488 
L 100.067438 295.488 
L 103.346777 292.141281 
L 106.626116 295.488 
L 109.905455 295.488 
L 113.184793 295.488 
L 116.464132 295.488 
L 119.743471 295.488 
L 123.02281 263.455115 
L 126.302149 295.488 
L 129.581488 295.488 
L 132.860826 295.488 
L 136.140165 295.488 
L 139.419504 290.766735 
L 142.698843 295.488 
L 145.978182 295.488 
L 149.257521 295.488 
L 152.53686 289.212901 
L 155.816198 295.488 
L 159.095537 295.488 
L 162.374876 295.488 
L 165.654215 294.950134 
L 168.933554 295.488 
L 172.212893 295.488 
L 175.492231 295.488 
L 178.77157 290.766735 
L 182.050909 295.488 
L 185.330248 295.488 
L 188.609587 295.488 
L 191.888926 295.488 
L 195.168264 295.488 
L 198.447603 294.23298 
L 201.726942 295.488 
L 205.006281 295.488 
L 208.28562 291.722941 
L 211.564959 295.488 
L 214.844298 293.336538 
L 218.123636 289.511715 
L 221.402975 293.754877 
L 224.682314 295.488 
L 227.961653 289.870292 
L 231.240992 295.488 
L 234.520331 294.531794 
L 237.799669 292.081518 
L 241.079008 289.451953 
L 244.358347 284.073296 
L 247.637686 283.774482 
L 250.917025 278.156775 
L 254.196364 268.056854 
L 257.475702 260.168158 
L 260.755041 255.924996 
L 264.03438 254.012585 
L 267.313719 243.255273 
L 270.593058 233.992032 
L 273.872397 233.33464 
L 277.151736 217.019383 
L 280.431074 209.429502 
L 283.710413 220.246577 
L 286.989752 201.062704 
L 290.269091 200.763889 
L 293.54843 199.210055 
L 296.827769 196.102387 
L 300.107107 203.273929 
L 303.386446 188.81132 
L 306.665785 193.592348 
L 309.945124 176.6197 
L 313.224463 182.416696 
L 316.503802 172.794877 
L 319.78314 163.591399 
L 323.062479 145.782071 
L 326.341818 142.913455 
L 329.621157 149.009265 
L 332.900496 128.689897 
L 336.179835 121.39883 
L 339.459174 119.486419 
L 342.738512 101.258751 
L 346.017851 107.11551 
L 349.29719 108.78887 
L 352.576529 99.884206 
L 355.855868 89.545233 
L 359.135207 92.473613 
L 362.414545 76.995036 
L 365.693884 76.87551 
L 368.973223 98.330372 
L 372.252562 62.831241 
L 375.531901 71.616379 
L 378.81124 67.313455 
L 382.090579 62.472664 
L 385.369917 70.839462 
L 388.649256 53.568 
L 391.928595 82.194403 
L 395.207934 69.703968 
L 398.487273 67.731794 
" clip-path="url(#paf37854a23)" style="fill: none; stroke: #d62728; stroke-width: 1.5; stroke-linecap: square"/>
   </g>
   <g id="line2d_23">
    <path d="M 73.832727 295.488 
L 77.112066 295.488 
L 80.391405 295.488 
L 83.670744 286.643099 
L 86.950083 295.488 
L 90.229421 295.488 
L 93.50876 243.374798 
L 96.788099 294.292743 
L 100.067438 295.488 
L 103.346777 294.65132 
L 106.626116 295.488 
L 109.905455 295.488 
L 113.184793 294.830609 
L 116.464132 295.488 
L 119.743471 291.722941 
L 123.02281 279.830134 
L 126.302149 295.488 
L 129.581488 295.488 
L 132.860826 295.488 
L 136.140165 294.711083 
L 139.419504 295.06966 
L 142.698843 295.488 
L 145.978182 292.679146 
L 149.257521 295.488 
L 152.53686 295.488 
L 155.816198 295.488 
L 159.095537 295.488 
L 162.374876 292.380332 
L 165.654215 295.488 
L 168.933554 293.874403 
L 172.212893 294.711083 
L 175.492231 295.488 
L 178.77157 294.531794 
L 182.050909 287.180964 
L 185.330248 294.352506 
L 188.609587 295.488 
L 191.888926 289.451953 
L 195.168264 289.451953 
L 198.447603 295.488 
L 201.726942 295.488 
L 205.006281 294.711083 
L 208.28562 291.364364 
L 211.564959 295.488 
L 214.844298 295.488 
L 218.123636 293.037723 
L 221.402975 291.005787 
L 224.682314 295.129423 
L 227.961653 295.488 
L 231.240992 295.189186 
L 234.520331 293.874403 
L 237.799669 293.037723 
L 241.079008 291.364364 
L 244.358347 287.001676 
L 247.637686 282.638988 
L 250.917025 277.917723 
L 254.196364 273.43551 
L 257.475702 261.004838 
L 260.755041 256.403099 
L 264.03438 249.112032 
L 267.313719 245.048158 
L 270.593058 240.326893 
L 273.872397 229.629344 
L 277.151736 224.609265 
L 280.431074 226.103336 
L 283.710413 210.325945 
L 286.989752 209.847842 
L 290.269091 209.070925 
L 293.54843 199.927209 
L 296.827769 201.421281 
L 300.107107 191.7397 
L 303.386446 205.365628 
L 306.665785 190.185866 
L 309.945124 188.273455 
L 313.224463 179.488316 
L 316.503802 174.587763 
L 319.78314 163.471874 
L 323.062479 159.408 
L 326.341818 150.144759 
L 329.621157 139.925312 
L 332.900496 138.550767 
L 336.179835 134.128316 
L 339.459174 128.809423 
L 342.738512 120.263336 
L 346.017851 116.55804 
L 349.29719 107.832664 
L 352.576529 110.282941 
L 355.855868 106.577644 
L 359.135207 93.728632 
L 362.414545 99.585391 
L 365.693884 93.66887 
L 368.973223 72.931162 
L 372.252562 85.839937 
L 375.531901 77.054798 
L 378.81124 79.325787 
L 382.090579 79.026972 
L 385.369917 79.505075 
L 388.649256 82.373692 
L 391.928595 65.580332 
L 395.207934 67.911083 
L 398.487273 64.863178 
" clip-path="url(#paf37854a23)" style="fill: none; stroke: #9467bd; stroke-width: 1.5; stroke-linecap: square"/>
   </g>
   <g id="line2d_24">
    <path d="M 73.832727 295.488 
L 77.112066 295.488 
L 80.391405 295.488 
L 83.670744 295.488 
L 86.950083 293.515826 
L 90.229421 295.488 
L 93.50876 295.488 
L 96.788099 295.488 
L 100.067438 295.488 
L 103.346777 293.81464 
L 106.626116 295.488 
L 109.905455 295.488 
L 113.184793 295.488 
L 116.464132 295.488 
L 119.743471 295.488 
L 123.02281 274.451478 
L 126.302149 295.488 
L 129.581488 292.738909 
L 132.860826 295.488 
L 136.140165 295.488 
L 139.419504 293.097486 
L 142.698843 295.488 
L 145.978182 295.488 
L 149.257521 295.129423 
L 152.53686 286.583336 
L 155.816198 295.488 
L 159.095537 293.3963 
L 162.374876 295.488 
L 165.654215 294.950134 
L 168.933554 295.488 
L 172.212893 295.488 
L 175.492231 295.009897 
L 178.77157 291.244838 
L 182.050909 295.488 
L 185.330248 295.488 
L 188.609587 295.488 
L 191.888926 295.488 
L 195.168264 295.488 
L 198.447603 294.890372 
L 201.726942 295.06966 
L 205.006281 295.488 
L 208.28562 293.575589 
L 211.564959 295.488 
L 214.844298 294.23298 
L 218.123636 291.663178 
L 221.402975 292.559621 
L 224.682314 294.830609 
L 227.961653 289.870292 
L 231.240992 295.009897 
L 234.520331 294.23298 
L 237.799669 292.201043 
L 241.079008 290.348395 
L 244.358347 285.567368 
L 247.637686 284.491636 
L 250.917025 277.499383 
L 254.196364 268.176379 
L 257.475702 265.068711 
L 260.755041 258.793613 
L 264.03438 251.442783 
L 267.313719 236.980174 
L 270.593058 237.039937 
L 273.872397 230.884364 
L 277.151736 225.326419 
L 280.431074 211.760253 
L 283.710413 219.230609 
L 286.989752 204.827763 
L 290.269091 202.317723 
L 293.54843 196.102387 
L 296.827769 193.891162 
L 300.107107 198.911241 
L 303.386446 180.982387 
L 306.665785 191.679937 
L 309.945124 183.13385 
L 313.224463 183.014324 
L 316.503802 171.898435 
L 319.78314 165.264759 
L 323.062479 154.089107 
L 326.341818 150.084996 
L 329.621157 148.351874 
L 332.900496 136.339542 
L 336.179835 126.000569 
L 339.459174 122.65385 
L 342.738512 117.155668 
L 346.017851 112.434403 
L 349.29719 111.179383 
L 352.576529 103.111399 
L 355.855868 93.728632 
L 359.135207 99.047526 
L 362.414545 85.780174 
L 365.693884 83.628711 
L 368.973223 99.465866 
L 372.252562 75.500964 
L 375.531901 81.238198 
L 378.81124 74.544759 
L 382.090579 75.441202 
L 385.369917 69.94302 
L 388.649256 60.91883 
L 391.928595 74.186182 
L 395.207934 66.297486 
L 398.487273 66.835352 
" clip-path="url(#paf37854a23)" style="fill: none; stroke: #8c564b; stroke-width: 1.5; stroke-linecap: square"/>
   </g>
   <g id="patch_3">
    <path d="M 57.6 307.584 
L 57.6 41.472 
" style="fill: none; stroke: #000000; stroke-width: 0.8; stroke-linejoin: miter; stroke-linecap: square"/>
   </g>
   <g id="patch_4">
    <path d="M 414.72 307.584 
L 414.72 41.472 
" style="fill: none; stroke: #000000; stroke-width: 0.8; stroke-linejoin: miter; stroke-linecap: square"/>
   </g>
   <g id="patch_5">
    <path d="M 57.6 307.584 
L 414.72 307.584 
" style="fill: none; stroke: #000000; stroke-width: 0.8; stroke-linejoin: miter; stroke-linecap: square"/>
   </g>
   <g id="patch_6">
    <path d="M 57.6 41.472 
L 414.72 41.472 
" style="fill: none; stroke: #000000; stroke-width: 0.8; stroke-linejoin: miter; stroke-linecap: square"/>
   </g>
   <g id="legend_1">
    <g id="patch_7">
     <path d="M 64.6 138.097 
L 122 138.097 
Q 124 138.097 124 136.097 
L 124 48.472 
Q 124 46.472 122 46.472 
L 64.6 46.472 
Q 62.6 46.472 62.6 48.472 
L 62.6 136.097 
Q 62.6 138.097 64.6 138.097 
z
" style="fill: #ffffff; opacity: 0.8; stroke: #cccccc; stroke-linejoin: miter"/>
    </g>
    <g id="line2d_25">
     <path d="M 66.6 54.570438 
L 76.6 54.570438 
L 86.6 54.570438 
" style="fill: none; stroke: #1f77b4; stroke-width: 1.5; stroke-linecap: square"/>
    </g>
    <g id="text_21">
     <!-- h1h3 -->
     <g transform="translate(94.6 58.070438)scale(0.1 -0.1)">
      <defs>
       <path id="DejaVuSans-68" d="M 3513 2113 
L 3513 0 
L 2938 0 
L 2938 2094 
Q 2938 2591 2744 2837 
Q 2550 3084 2163 3084 
Q 1697 3084 1428 2787 
Q 1159 2491 1159 1978 
L 1159 0 
L 581 0 
L 581 4863 
L 1159 4863 
L 1159 2956 
Q 1366 3272 1645 3428 
Q 1925 3584 2291 3584 
Q 2894 3584 3203 3211 
Q 3513 2838 3513 2113 
z
" transform="scale(0.015625)"/>
      </defs>
      <use xlink:href="#DejaVuSans-68"/>
      <use xlink:href="#DejaVuSans-31" x="63.378906"/>
      <use xlink:href="#DejaVuSans-68" x="127.001953"/>
      <use xlink:href="#DejaVuSans-33" x="190.380859"/>
     </g>
    </g>
    <g id="line2d_26">
     <path d="M 66.6 69.248563 
L 76.6 69.248563 
L 86.6 69.248563 
" style="fill: none; stroke: #ff7f0e; stroke-width: 1.5; stroke-linecap: square"/>
    </g>
    <g id="text_22">
     <!-- h1h4 -->
     <g transform="translate(94.6 72.748563)scale(0.1 -0.1)">
      <use xlink:href="#DejaVuSans-68"/>
      <use xlink:href="#DejaVuSans-31" x="63.378906"/>
      <use xlink:href="#DejaVuSans-68" x="127.001953"/>
      <use xlink:href="#DejaVuSans-34" x="190.380859"/>
     </g>
    </g>
    <g id="line2d_27">
     <path d="M 66.6 83.926688 
L 76.6 83.926688 
L 86.6 83.926688 
" style="fill: none; stroke: #2ca02c; stroke-width: 1.5; stroke-linecap: square"/>
    </g>
    <g id="text_23">
     <!-- h2h3 -->
     <g transform="translate(94.6 87.426688)scale(0.1 -0.1)">
      <use xlink:href="#DejaVuSans-68"/>
      <use xlink:href="#DejaVuSans-32" x="63.378906"/>
      <use xlink:href="#DejaVuSans-68" x="127.001953"/>
      <use xlink:href="#DejaVuSans-33" x="190.380859"/>
     </g>
    </g>
    <g id="line2d_28">
     <path d="M 66.6 98.604813 
L 76.6 98.604813 
L 86.6 98.604813 
" style="fill: none; stroke: #d62728; stroke-width: 1.5; stroke-linecap: square"/>
    </g>
    <g id="text_24">
     <!-- h2h4 -->
     <g transform="translate(94.6 102.104813)scale(0.1 -0.1)">
      <use xlink:href="#DejaVuSans-68"/>
      <use xlink:href="#DejaVuSans-32" x="63.378906"/>
      <use xlink:href="#DejaVuSans-68" x="127.001953"/>
      <use xlink:href="#DejaVuSans-34" x="190.380859"/>
     </g>
    </g>
    <g id="line2d_29">
     <path d="M 66.6 113.282938 
L 76.6 113.282938 
L 86.6 113.282938 
" style="fill: none; stroke: #9467bd; stroke-width: 1.5; stroke-linecap: square"/>
    </g>
    <g id="text_25">
     <!-- h_h3 -->
     <g transform="translate(94.6 116.782938)scale(0.1 -0.1)">
      <defs>
       <path id="DejaVuSans-5f" d="M 3263 -1063 
L 3263 -1509 
L -63 -1509 
L -63 -1063 
L 3263 -1063 
z
" transform="scale(0.015625)"/>
      </defs>
      <use xlink:href="#DejaVuSans-68"/>
      <use xlink:href="#DejaVuSans-5f" x="63.378906"/>
      <use xlink:href="#DejaVuSans-68" x="113.378906"/>
      <use xlink:href="#DejaVuSans-33" x="176.757812"/>
     </g>
    </g>
    <g id="line2d_30">
     <path d="M 66.6 128.239188 
L 76.6 128.239188 
L 86.6 128.239188 
" style="fill: none; stroke: #8c564b; stroke-width: 1.5; stroke-linecap: square"/>
    </g>
    <g id="text_26">
     <!-- h_h4 -->
     <g transform="translate(94.6 131.739188)scale(0.1 -0.1)">
      <use xlink:href="#DejaVuSans-68"/>
      <use xlink:href="#DejaVuSans-5f" x="63.378906"/>
      <use xlink:href="#DejaVuSans-68" x="113.378906"/>
      <use xlink:href="#DejaVuSans-34" x="176.757812"/>
     </g>
    </g>
   </g>
  </g>
 </g>
 <defs>
  <clipPath id="paf37854a23">
   <rect x="57.6" y="41.472" width="357.12" height="266.112"/>
  </clipPath>
 </defs>
</svg>
