<?xml version="1.0" encoding="utf-8" standalone="no"?>
<!DOCTYPE svg PUBLIC "-//W3C//DTD SVG 1.1//EN"
  "http://www.w3.org/Graphics/SVG/1.1/DTD/svg11.dtd">
<svg xmlns:xlink="http://www.w3.org/1999/xlink" width="460.8pt" height="345.6pt" viewBox="0 0 460.8 345.6" xmlns="http://www.w3.org/2000/svg" version="1.1">
 <metadata>
  <rdf:RDF xmlns:dc="http://purl.org/dc/elements/1.1/" xmlns:cc="http://creativecommons.org/ns#" xmlns:rdf="http://www.w3.org/1999/02/22-rdf-syntax-ns#">
   <cc:Work>
    <dc:type rdf:resource="http://purl.org/dc/dcmitype/StillImage"/>
    <dc:date>2022-09-06T00:24:45.152217</dc:date>
    <dc:format>image/svg+xml</dc:format>
    <dc:creator>
     <cc:Agent>
      <dc:title>Matplotlib v3.5.3, https://matplotlib.org/</dc:title>
     </cc:Agent>
    </dc:creator>
   </cc:Work>
  </rdf:RDF>
 </metadata>
 <defs>
  <style type="text/css">*{stroke-linejoin: round; stroke-linecap: butt}</style>
 </defs>
 <g id="figure_1">
  <g id="patch_1">
   <path d="M 0 345.6 
L 460.8 345.6 
L 460.8 0 
L 0 0 
z
" style="fill: #ffffff"/>
  </g>
  <g id="axes_1">
   <g id="patch_2">
    <path d="M 57.6 307.584 
L 414.72 307.584 
L 414.72 41.472 
L 57.6 41.472 
z
" style="fill: #ffffff"/>
   </g>
   <g id="matplotlib.axis_1">
    <g id="xtick_1">
     <g id="line2d_1">
      <defs>
       <path id="m764988c253" d="M 0 0 
L 0 3.5 
" style="stroke: #000000; stroke-width: 0.8"/>
      </defs>
      <g>
       <use xlink:href="#m764988c253" x="72.201297" y="307.584" style="stroke: #000000; stroke-width: 0.8"/>
      </g>
     </g>
     <g id="text_1">
      <!-- 0 -->
      <g transform="translate(69.020047 322.182437)scale(0.1 -0.1)">
       <defs>
        <path id="DejaVuSans-30" d="M 2034 4250 
Q 1547 4250 1301 3770 
Q 1056 3291 1056 2328 
Q 1056 1369 1301 889 
Q 1547 409 2034 409 
Q 2525 409 2770 889 
Q 3016 1369 3016 2328 
Q 3016 3291 2770 3770 
Q 2525 4250 2034 4250 
z
M 2034 4750 
Q 2819 4750 3233 4129 
Q 3647 3509 3647 2328 
Q 3647 1150 3233 529 
Q 2819 -91 2034 -91 
Q 1250 -91 836 529 
Q 422 1150 422 2328 
Q 422 3509 836 4129 
Q 1250 4750 2034 4750 
z
" transform="scale(0.015625)"/>
       </defs>
       <use xlink:href="#DejaVuSans-30"/>
      </g>
     </g>
    </g>
    <g id="xtick_2">
     <g id="line2d_2">
      <g>
       <use xlink:href="#m764988c253" x="112.987044" y="307.584" style="stroke: #000000; stroke-width: 0.8"/>
      </g>
     </g>
     <g id="text_2">
      <!-- 50 -->
      <g transform="translate(106.624544 322.182437)scale(0.1 -0.1)">
       <defs>
        <path id="DejaVuSans-35" d="M 691 4666 
L 3169 4666 
L 3169 4134 
L 1269 4134 
L 1269 2991 
Q 1406 3038 1543 3061 
Q 1681 3084 1819 3084 
Q 2600 3084 3056 2656 
Q 3513 2228 3513 1497 
Q 3513 744 3044 326 
Q 2575 -91 1722 -91 
Q 1428 -91 1123 -41 
Q 819 9 494 109 
L 494 744 
Q 775 591 1075 516 
Q 1375 441 1709 441 
Q 2250 441 2565 725 
Q 2881 1009 2881 1497 
Q 2881 1984 2565 2268 
Q 2250 2553 1709 2553 
Q 1456 2553 1204 2497 
Q 953 2441 691 2322 
L 691 4666 
z
" transform="scale(0.015625)"/>
       </defs>
       <use xlink:href="#DejaVuSans-35"/>
       <use xlink:href="#DejaVuSans-30" x="63.623047"/>
      </g>
     </g>
    </g>
    <g id="xtick_3">
     <g id="line2d_3">
      <g>
       <use xlink:href="#m764988c253" x="153.772791" y="307.584" style="stroke: #000000; stroke-width: 0.8"/>
      </g>
     </g>
     <g id="text_3">
      <!-- 100 -->
      <g transform="translate(144.229041 322.182437)scale(0.1 -0.1)">
       <defs>
        <path id="DejaVuSans-31" d="M 794 531 
L 1825 531 
L 1825 4091 
L 703 3866 
L 703 4441 
L 1819 4666 
L 2450 4666 
L 2450 531 
L 3481 531 
L 3481 0 
L 794 0 
L 794 531 
z
" transform="scale(0.015625)"/>
       </defs>
       <use xlink:href="#DejaVuSans-31"/>
       <use xlink:href="#DejaVuSans-30" x="63.623047"/>
       <use xlink:href="#DejaVuSans-30" x="127.246094"/>
      </g>
     </g>
    </g>
    <g id="xtick_4">
     <g id="line2d_4">
      <g>
       <use xlink:href="#m764988c253" x="194.558538" y="307.584" style="stroke: #000000; stroke-width: 0.8"/>
      </g>
     </g>
     <g id="text_4">
      <!-- 150 -->
      <g transform="translate(185.014788 322.182437)scale(0.1 -0.1)">
       <use xlink:href="#DejaVuSans-31"/>
       <use xlink:href="#DejaVuSans-35" x="63.623047"/>
       <use xlink:href="#DejaVuSans-30" x="127.246094"/>
      </g>
     </g>
    </g>
    <g id="xtick_5">
     <g id="line2d_5">
      <g>
       <use xlink:href="#m764988c253" x="235.344285" y="307.584" style="stroke: #000000; stroke-width: 0.8"/>
      </g>
     </g>
     <g id="text_5">
      <!-- 200 -->
      <g transform="translate(225.800535 322.182437)scale(0.1 -0.1)">
       <defs>
        <path id="DejaVuSans-32" d="M 1228 531 
L 3431 531 
L 3431 0 
L 469 0 
L 469 531 
Q 828 903 1448 1529 
Q 2069 2156 2228 2338 
Q 2531 2678 2651 2914 
Q 2772 3150 2772 3378 
Q 2772 3750 2511 3984 
Q 2250 4219 1831 4219 
Q 1534 4219 1204 4116 
Q 875 4013 500 3803 
L 500 4441 
Q 881 4594 1212 4672 
Q 1544 4750 1819 4750 
Q 2544 4750 2975 4387 
Q 3406 4025 3406 3419 
Q 3406 3131 3298 2873 
Q 3191 2616 2906 2266 
Q 2828 2175 2409 1742 
Q 1991 1309 1228 531 
z
" transform="scale(0.015625)"/>
       </defs>
       <use xlink:href="#DejaVuSans-32"/>
       <use xlink:href="#DejaVuSans-30" x="63.623047"/>
       <use xlink:href="#DejaVuSans-30" x="127.246094"/>
      </g>
     </g>
    </g>
    <g id="xtick_6">
     <g id="line2d_6">
      <g>
       <use xlink:href="#m764988c253" x="276.130032" y="307.584" style="stroke: #000000; stroke-width: 0.8"/>
      </g>
     </g>
     <g id="text_6">
      <!-- 250 -->
      <g transform="translate(266.586282 322.182437)scale(0.1 -0.1)">
       <use xlink:href="#DejaVuSans-32"/>
       <use xlink:href="#DejaVuSans-35" x="63.623047"/>
       <use xlink:href="#DejaVuSans-30" x="127.246094"/>
      </g>
     </g>
    </g>
    <g id="xtick_7">
     <g id="line2d_7">
      <g>
       <use xlink:href="#m764988c253" x="316.915779" y="307.584" style="stroke: #000000; stroke-width: 0.8"/>
      </g>
     </g>
     <g id="text_7">
      <!-- 300 -->
      <g transform="translate(307.372029 322.182437)scale(0.1 -0.1)">
       <defs>
        <path id="DejaVuSans-33" d="M 2597 2516 
Q 3050 2419 3304 2112 
Q 3559 1806 3559 1356 
Q 3559 666 3084 287 
Q 2609 -91 1734 -91 
Q 1441 -91 1130 -33 
Q 819 25 488 141 
L 488 750 
Q 750 597 1062 519 
Q 1375 441 1716 441 
Q 2309 441 2620 675 
Q 2931 909 2931 1356 
Q 2931 1769 2642 2001 
Q 2353 2234 1838 2234 
L 1294 2234 
L 1294 2753 
L 1863 2753 
Q 2328 2753 2575 2939 
Q 2822 3125 2822 3475 
Q 2822 3834 2567 4026 
Q 2313 4219 1838 4219 
Q 1578 4219 1281 4162 
Q 984 4106 628 3988 
L 628 4550 
Q 988 4650 1302 4700 
Q 1616 4750 1894 4750 
Q 2613 4750 3031 4423 
Q 3450 4097 3450 3541 
Q 3450 3153 3228 2886 
Q 3006 2619 2597 2516 
z
" transform="scale(0.015625)"/>
       </defs>
       <use xlink:href="#DejaVuSans-33"/>
       <use xlink:href="#DejaVuSans-30" x="63.623047"/>
       <use xlink:href="#DejaVuSans-30" x="127.246094"/>
      </g>
     </g>
    </g>
    <g id="xtick_8">
     <g id="line2d_8">
      <g>
       <use xlink:href="#m764988c253" x="357.701526" y="307.584" style="stroke: #000000; stroke-width: 0.8"/>
      </g>
     </g>
     <g id="text_8">
      <!-- 350 -->
      <g transform="translate(348.157776 322.182437)scale(0.1 -0.1)">
       <use xlink:href="#DejaVuSans-33"/>
       <use xlink:href="#DejaVuSans-35" x="63.623047"/>
       <use xlink:href="#DejaVuSans-30" x="127.246094"/>
      </g>
     </g>
    </g>
    <g id="xtick_9">
     <g id="line2d_9">
      <g>
       <use xlink:href="#m764988c253" x="398.487273" y="307.584" style="stroke: #000000; stroke-width: 0.8"/>
      </g>
     </g>
     <g id="text_9">
      <!-- 400 -->
      <g transform="translate(388.943523 322.182437)scale(0.1 -0.1)">
       <defs>
        <path id="DejaVuSans-34" d="M 2419 4116 
L 825 1625 
L 2419 1625 
L 2419 4116 
z
M 2253 4666 
L 3047 4666 
L 3047 1625 
L 3713 1625 
L 3713 1100 
L 3047 1100 
L 3047 0 
L 2419 0 
L 2419 1100 
L 313 1100 
L 313 1709 
L 2253 4666 
z
" transform="scale(0.015625)"/>
       </defs>
       <use xlink:href="#DejaVuSans-34"/>
       <use xlink:href="#DejaVuSans-30" x="63.623047"/>
       <use xlink:href="#DejaVuSans-30" x="127.246094"/>
      </g>
     </g>
    </g>
    <g id="text_10">
     <!-- lambda rate (pkt/s) -->
     <g transform="translate(187.869375 335.860562)scale(0.1 -0.1)">
      <defs>
       <path id="DejaVuSans-6c" d="M 603 4863 
L 1178 4863 
L 1178 0 
L 603 0 
L 603 4863 
z
" transform="scale(0.015625)"/>
       <path id="DejaVuSans-61" d="M 2194 1759 
Q 1497 1759 1228 1600 
Q 959 1441 959 1056 
Q 959 750 1161 570 
Q 1363 391 1709 391 
Q 2188 391 2477 730 
Q 2766 1069 2766 1631 
L 2766 1759 
L 2194 1759 
z
M 3341 1997 
L 3341 0 
L 2766 0 
L 2766 531 
Q 2569 213 2275 61 
Q 1981 -91 1556 -91 
Q 1019 -91 701 211 
Q 384 513 384 1019 
Q 384 1609 779 1909 
Q 1175 2209 1959 2209 
L 2766 2209 
L 2766 2266 
Q 2766 2663 2505 2880 
Q 2244 3097 1772 3097 
Q 1472 3097 1187 3025 
Q 903 2953 641 2809 
L 641 3341 
Q 956 3463 1253 3523 
Q 1550 3584 1831 3584 
Q 2591 3584 2966 3190 
Q 3341 2797 3341 1997 
z
" transform="scale(0.015625)"/>
       <path id="DejaVuSans-6d" d="M 3328 2828 
Q 3544 3216 3844 3400 
Q 4144 3584 4550 3584 
Q 5097 3584 5394 3201 
Q 5691 2819 5691 2113 
L 5691 0 
L 5113 0 
L 5113 2094 
Q 5113 2597 4934 2840 
Q 4756 3084 4391 3084 
Q 3944 3084 3684 2787 
Q 3425 2491 3425 1978 
L 3425 0 
L 2847 0 
L 2847 2094 
Q 2847 2600 2669 2842 
Q 2491 3084 2119 3084 
Q 1678 3084 1418 2786 
Q 1159 2488 1159 1978 
L 1159 0 
L 581 0 
L 581 3500 
L 1159 3500 
L 1159 2956 
Q 1356 3278 1631 3431 
Q 1906 3584 2284 3584 
Q 2666 3584 2933 3390 
Q 3200 3197 3328 2828 
z
" transform="scale(0.015625)"/>
       <path id="DejaVuSans-62" d="M 3116 1747 
Q 3116 2381 2855 2742 
Q 2594 3103 2138 3103 
Q 1681 3103 1420 2742 
Q 1159 2381 1159 1747 
Q 1159 1113 1420 752 
Q 1681 391 2138 391 
Q 2594 391 2855 752 
Q 3116 1113 3116 1747 
z
M 1159 2969 
Q 1341 3281 1617 3432 
Q 1894 3584 2278 3584 
Q 2916 3584 3314 3078 
Q 3713 2572 3713 1747 
Q 3713 922 3314 415 
Q 2916 -91 2278 -91 
Q 1894 -91 1617 61 
Q 1341 213 1159 525 
L 1159 0 
L 581 0 
L 581 4863 
L 1159 4863 
L 1159 2969 
z
" transform="scale(0.015625)"/>
       <path id="DejaVuSans-64" d="M 2906 2969 
L 2906 4863 
L 3481 4863 
L 3481 0 
L 2906 0 
L 2906 525 
Q 2725 213 2448 61 
Q 2172 -91 1784 -91 
Q 1150 -91 751 415 
Q 353 922 353 1747 
Q 353 2572 751 3078 
Q 1150 3584 1784 3584 
Q 2172 3584 2448 3432 
Q 2725 3281 2906 2969 
z
M 947 1747 
Q 947 1113 1208 752 
Q 1469 391 1925 391 
Q 2381 391 2643 752 
Q 2906 1113 2906 1747 
Q 2906 2381 2643 2742 
Q 2381 3103 1925 3103 
Q 1469 3103 1208 2742 
Q 947 2381 947 1747 
z
" transform="scale(0.015625)"/>
       <path id="DejaVuSans-20" transform="scale(0.015625)"/>
       <path id="DejaVuSans-72" d="M 2631 2963 
Q 2534 3019 2420 3045 
Q 2306 3072 2169 3072 
Q 1681 3072 1420 2755 
Q 1159 2438 1159 1844 
L 1159 0 
L 581 0 
L 581 3500 
L 1159 3500 
L 1159 2956 
Q 1341 3275 1631 3429 
Q 1922 3584 2338 3584 
Q 2397 3584 2469 3576 
Q 2541 3569 2628 3553 
L 2631 2963 
z
" transform="scale(0.015625)"/>
       <path id="DejaVuSans-74" d="M 1172 4494 
L 1172 3500 
L 2356 3500 
L 2356 3053 
L 1172 3053 
L 1172 1153 
Q 1172 725 1289 603 
Q 1406 481 1766 481 
L 2356 481 
L 2356 0 
L 1766 0 
Q 1100 0 847 248 
Q 594 497 594 1153 
L 594 3053 
L 172 3053 
L 172 3500 
L 594 3500 
L 594 4494 
L 1172 4494 
z
" transform="scale(0.015625)"/>
       <path id="DejaVuSans-65" d="M 3597 1894 
L 3597 1613 
L 953 1613 
Q 991 1019 1311 708 
Q 1631 397 2203 397 
Q 2534 397 2845 478 
Q 3156 559 3463 722 
L 3463 178 
Q 3153 47 2828 -22 
Q 2503 -91 2169 -91 
Q 1331 -91 842 396 
Q 353 884 353 1716 
Q 353 2575 817 3079 
Q 1281 3584 2069 3584 
Q 2775 3584 3186 3129 
Q 3597 2675 3597 1894 
z
M 3022 2063 
Q 3016 2534 2758 2815 
Q 2500 3097 2075 3097 
Q 1594 3097 1305 2825 
Q 1016 2553 972 2059 
L 3022 2063 
z
" transform="scale(0.015625)"/>
       <path id="DejaVuSans-28" d="M 1984 4856 
Q 1566 4138 1362 3434 
Q 1159 2731 1159 2009 
Q 1159 1288 1364 580 
Q 1569 -128 1984 -844 
L 1484 -844 
Q 1016 -109 783 600 
Q 550 1309 550 2009 
Q 550 2706 781 3412 
Q 1013 4119 1484 4856 
L 1984 4856 
z
" transform="scale(0.015625)"/>
       <path id="DejaVuSans-70" d="M 1159 525 
L 1159 -1331 
L 581 -1331 
L 581 3500 
L 1159 3500 
L 1159 2969 
Q 1341 3281 1617 3432 
Q 1894 3584 2278 3584 
Q 2916 3584 3314 3078 
Q 3713 2572 3713 1747 
Q 3713 922 3314 415 
Q 2916 -91 2278 -91 
Q 1894 -91 1617 61 
Q 1341 213 1159 525 
z
M 3116 1747 
Q 3116 2381 2855 2742 
Q 2594 3103 2138 3103 
Q 1681 3103 1420 2742 
Q 1159 2381 1159 1747 
Q 1159 1113 1420 752 
Q 1681 391 2138 391 
Q 2594 391 2855 752 
Q 3116 1113 3116 1747 
z
" transform="scale(0.015625)"/>
       <path id="DejaVuSans-6b" d="M 581 4863 
L 1159 4863 
L 1159 1991 
L 2875 3500 
L 3609 3500 
L 1753 1863 
L 3688 0 
L 2938 0 
L 1159 1709 
L 1159 0 
L 581 0 
L 581 4863 
z
" transform="scale(0.015625)"/>
       <path id="DejaVuSans-2f" d="M 1625 4666 
L 2156 4666 
L 531 -594 
L 0 -594 
L 1625 4666 
z
" transform="scale(0.015625)"/>
       <path id="DejaVuSans-73" d="M 2834 3397 
L 2834 2853 
Q 2591 2978 2328 3040 
Q 2066 3103 1784 3103 
Q 1356 3103 1142 2972 
Q 928 2841 928 2578 
Q 928 2378 1081 2264 
Q 1234 2150 1697 2047 
L 1894 2003 
Q 2506 1872 2764 1633 
Q 3022 1394 3022 966 
Q 3022 478 2636 193 
Q 2250 -91 1575 -91 
Q 1294 -91 989 -36 
Q 684 19 347 128 
L 347 722 
Q 666 556 975 473 
Q 1284 391 1588 391 
Q 1994 391 2212 530 
Q 2431 669 2431 922 
Q 2431 1156 2273 1281 
Q 2116 1406 1581 1522 
L 1381 1569 
Q 847 1681 609 1914 
Q 372 2147 372 2553 
Q 372 3047 722 3315 
Q 1072 3584 1716 3584 
Q 2034 3584 2315 3537 
Q 2597 3491 2834 3397 
z
" transform="scale(0.015625)"/>
       <path id="DejaVuSans-29" d="M 513 4856 
L 1013 4856 
Q 1481 4119 1714 3412 
Q 1947 2706 1947 2009 
Q 1947 1309 1714 600 
Q 1481 -109 1013 -844 
L 513 -844 
Q 928 -128 1133 580 
Q 1338 1288 1338 2009 
Q 1338 2731 1133 3434 
Q 928 4138 513 4856 
z
" transform="scale(0.015625)"/>
      </defs>
      <use xlink:href="#DejaVuSans-6c"/>
      <use xlink:href="#DejaVuSans-61" x="27.783203"/>
      <use xlink:href="#DejaVuSans-6d" x="89.0625"/>
      <use xlink:href="#DejaVuSans-62" x="186.474609"/>
      <use xlink:href="#DejaVuSans-64" x="249.951172"/>
      <use xlink:href="#DejaVuSans-61" x="313.427734"/>
      <use xlink:href="#DejaVuSans-20" x="374.707031"/>
      <use xlink:href="#DejaVuSans-72" x="406.494141"/>
      <use xlink:href="#DejaVuSans-61" x="447.607422"/>
      <use xlink:href="#DejaVuSans-74" x="508.886719"/>
      <use xlink:href="#DejaVuSans-65" x="548.095703"/>
      <use xlink:href="#DejaVuSans-20" x="609.619141"/>
      <use xlink:href="#DejaVuSans-28" x="641.40625"/>
      <use xlink:href="#DejaVuSans-70" x="680.419922"/>
      <use xlink:href="#DejaVuSans-6b" x="743.896484"/>
      <use xlink:href="#DejaVuSans-74" x="801.806641"/>
      <use xlink:href="#DejaVuSans-2f" x="841.015625"/>
      <use xlink:href="#DejaVuSans-73" x="874.707031"/>
      <use xlink:href="#DejaVuSans-29" x="926.806641"/>
     </g>
    </g>
   </g>
   <g id="matplotlib.axis_2">
    <g id="ytick_1">
     <g id="line2d_10">
      <defs>
       <path id="m3a4c9c4128" d="M 0 0 
L -3.5 0 
" style="stroke: #000000; stroke-width: 0.8"/>
      </defs>
      <g>
       <use xlink:href="#m3a4c9c4128" x="57.6" y="295.488" style="stroke: #000000; stroke-width: 0.8"/>
      </g>
     </g>
     <g id="text_11">
      <!-- 0 -->
      <g transform="translate(44.2375 299.287219)scale(0.1 -0.1)">
       <use xlink:href="#DejaVuSans-30"/>
      </g>
     </g>
    </g>
    <g id="ytick_2">
     <g id="line2d_11">
      <g>
       <use xlink:href="#m3a4c9c4128" x="57.6" y="246.32726" style="stroke: #000000; stroke-width: 0.8"/>
      </g>
     </g>
     <g id="text_12">
      <!-- 10 -->
      <g transform="translate(37.875 250.126479)scale(0.1 -0.1)">
       <use xlink:href="#DejaVuSans-31"/>
       <use xlink:href="#DejaVuSans-30" x="63.623047"/>
      </g>
     </g>
    </g>
    <g id="ytick_3">
     <g id="line2d_12">
      <g>
       <use xlink:href="#m3a4c9c4128" x="57.6" y="197.166521" style="stroke: #000000; stroke-width: 0.8"/>
      </g>
     </g>
     <g id="text_13">
      <!-- 20 -->
      <g transform="translate(37.875 200.965739)scale(0.1 -0.1)">
       <use xlink:href="#DejaVuSans-32"/>
       <use xlink:href="#DejaVuSans-30" x="63.623047"/>
      </g>
     </g>
    </g>
    <g id="ytick_4">
     <g id="line2d_13">
      <g>
       <use xlink:href="#m3a4c9c4128" x="57.6" y="148.005781" style="stroke: #000000; stroke-width: 0.8"/>
      </g>
     </g>
     <g id="text_14">
      <!-- 30 -->
      <g transform="translate(37.875 151.805)scale(0.1 -0.1)">
       <use xlink:href="#DejaVuSans-33"/>
       <use xlink:href="#DejaVuSans-30" x="63.623047"/>
      </g>
     </g>
    </g>
    <g id="ytick_5">
     <g id="line2d_14">
      <g>
       <use xlink:href="#m3a4c9c4128" x="57.6" y="98.845041" style="stroke: #000000; stroke-width: 0.8"/>
      </g>
     </g>
     <g id="text_15">
      <!-- 40 -->
      <g transform="translate(37.875 102.64426)scale(0.1 -0.1)">
       <use xlink:href="#DejaVuSans-34"/>
       <use xlink:href="#DejaVuSans-30" x="63.623047"/>
      </g>
     </g>
    </g>
    <g id="ytick_6">
     <g id="line2d_15">
      <g>
       <use xlink:href="#m3a4c9c4128" x="57.6" y="49.684302" style="stroke: #000000; stroke-width: 0.8"/>
      </g>
     </g>
     <g id="text_16">
      <!-- 50 -->
      <g transform="translate(37.875 53.48352)scale(0.1 -0.1)">
       <use xlink:href="#DejaVuSans-35"/>
       <use xlink:href="#DejaVuSans-30" x="63.623047"/>
      </g>
     </g>
    </g>
    <g id="text_17">
     <!-- packet drop (%) -->
     <g transform="translate(31.795312 214.447531)rotate(-90)scale(0.1 -0.1)">
      <defs>
       <path id="DejaVuSans-63" d="M 3122 3366 
L 3122 2828 
Q 2878 2963 2633 3030 
Q 2388 3097 2138 3097 
Q 1578 3097 1268 2742 
Q 959 2388 959 1747 
Q 959 1106 1268 751 
Q 1578 397 2138 397 
Q 2388 397 2633 464 
Q 2878 531 3122 666 
L 3122 134 
Q 2881 22 2623 -34 
Q 2366 -91 2075 -91 
Q 1284 -91 818 406 
Q 353 903 353 1747 
Q 353 2603 823 3093 
Q 1294 3584 2113 3584 
Q 2378 3584 2631 3529 
Q 2884 3475 3122 3366 
z
" transform="scale(0.015625)"/>
       <path id="DejaVuSans-6f" d="M 1959 3097 
Q 1497 3097 1228 2736 
Q 959 2375 959 1747 
Q 959 1119 1226 758 
Q 1494 397 1959 397 
Q 2419 397 2687 759 
Q 2956 1122 2956 1747 
Q 2956 2369 2687 2733 
Q 2419 3097 1959 3097 
z
M 1959 3584 
Q 2709 3584 3137 3096 
Q 3566 2609 3566 1747 
Q 3566 888 3137 398 
Q 2709 -91 1959 -91 
Q 1206 -91 779 398 
Q 353 888 353 1747 
Q 353 2609 779 3096 
Q 1206 3584 1959 3584 
z
" transform="scale(0.015625)"/>
       <path id="DejaVuSans-25" d="M 4653 2053 
Q 4381 2053 4226 1822 
Q 4072 1591 4072 1178 
Q 4072 772 4226 539 
Q 4381 306 4653 306 
Q 4919 306 5073 539 
Q 5228 772 5228 1178 
Q 5228 1588 5073 1820 
Q 4919 2053 4653 2053 
z
M 4653 2450 
Q 5147 2450 5437 2106 
Q 5728 1763 5728 1178 
Q 5728 594 5436 251 
Q 5144 -91 4653 -91 
Q 4153 -91 3862 251 
Q 3572 594 3572 1178 
Q 3572 1766 3864 2108 
Q 4156 2450 4653 2450 
z
M 1428 4353 
Q 1159 4353 1004 4120 
Q 850 3888 850 3481 
Q 850 3069 1003 2837 
Q 1156 2606 1428 2606 
Q 1700 2606 1854 2837 
Q 2009 3069 2009 3481 
Q 2009 3884 1853 4118 
Q 1697 4353 1428 4353 
z
M 4250 4750 
L 4750 4750 
L 1831 -91 
L 1331 -91 
L 4250 4750 
z
M 1428 4750 
Q 1922 4750 2215 4408 
Q 2509 4066 2509 3481 
Q 2509 2891 2217 2550 
Q 1925 2209 1428 2209 
Q 931 2209 642 2551 
Q 353 2894 353 3481 
Q 353 4063 643 4406 
Q 934 4750 1428 4750 
z
" transform="scale(0.015625)"/>
      </defs>
      <use xlink:href="#DejaVuSans-70"/>
      <use xlink:href="#DejaVuSans-61" x="63.476562"/>
      <use xlink:href="#DejaVuSans-63" x="124.755859"/>
      <use xlink:href="#DejaVuSans-6b" x="179.736328"/>
      <use xlink:href="#DejaVuSans-65" x="234.021484"/>
      <use xlink:href="#DejaVuSans-74" x="295.544922"/>
      <use xlink:href="#DejaVuSans-20" x="334.753906"/>
      <use xlink:href="#DejaVuSans-64" x="366.541016"/>
      <use xlink:href="#DejaVuSans-72" x="430.017578"/>
      <use xlink:href="#DejaVuSans-6f" x="468.880859"/>
      <use xlink:href="#DejaVuSans-70" x="530.0625"/>
      <use xlink:href="#DejaVuSans-20" x="593.539062"/>
      <use xlink:href="#DejaVuSans-28" x="625.326172"/>
      <use xlink:href="#DejaVuSans-25" x="664.339844"/>
      <use xlink:href="#DejaVuSans-29" x="759.359375"/>
     </g>
    </g>
   </g>
   <g id="line2d_16">
    <path d="M 75.464157 295.488 
L 77.095587 295.488 
L 78.727017 290.522765 
L 80.358447 295.488 
L 86.884166 295.488 
L 88.515596 289.834515 
L 90.147026 295.488 
L 93.409886 295.488 
L 95.041316 294.504785 
L 96.672746 295.488 
L 98.304175 271.54672 
L 99.935605 295.488 
L 101.567035 290.276962 
L 103.198465 294.062339 
L 104.829895 294.84891 
L 106.461325 295.488 
L 109.724185 295.488 
L 111.355614 294.947232 
L 112.987044 295.488 
L 116.249904 295.488 
L 117.881334 294.553946 
L 119.512764 286.049138 
L 121.144194 292.931642 
L 122.775624 295.488 
L 124.407053 295.094714 
L 126.038483 295.488 
L 127.669913 295.488 
L 130.932773 293.324927 
L 132.564203 294.062339 
L 134.195633 287.622282 
L 135.827063 290.81773 
L 137.458492 294.504785 
L 139.089922 295.193036 
L 140.721352 295.488 
L 145.615642 295.488 
L 147.247072 294.652267 
L 148.878502 295.488 
L 150.509931 295.242196 
L 152.141361 295.488 
L 155.404221 295.488 
L 157.035651 289.047943 
L 158.667081 293.767374 
L 160.298511 295.488 
L 161.929941 293.128284 
L 163.56137 295.488 
L 165.1928 294.357303 
L 166.82423 295.488 
L 168.45566 295.488 
L 170.08709 287.818925 
L 171.71852 295.488 
L 173.34995 294.652267 
L 174.98138 295.488 
L 176.61281 287.671442 
L 178.244239 295.094714 
L 179.875669 291.211016 
L 181.507099 295.291357 
L 183.138529 293.226606 
L 184.769959 295.291357 
L 186.401389 295.291357 
L 188.032819 294.750589 
L 189.664249 295.488 
L 191.295678 295.291357 
L 192.927108 295.291357 
L 194.558538 293.767374 
L 196.189968 295.488 
L 197.821398 291.309337 
L 199.452828 294.79975 
L 201.084258 295.488 
L 207.609977 295.488 
L 209.241407 293.324927 
L 210.872837 293.669053 
L 212.504267 294.603107 
L 215.767127 295.488 
L 217.398556 293.914856 
L 219.029986 295.488 
L 220.661416 295.488 
L 222.292846 295.340518 
L 223.924276 295.488 
L 225.555706 295.094714 
L 227.187136 290.17864 
L 228.818566 295.488 
L 232.081425 295.488 
L 233.712855 292.341713 
L 235.344285 295.340518 
L 236.975715 295.340518 
L 238.607145 294.996393 
L 240.238575 295.094714 
L 241.870005 294.111499 
L 243.501434 294.258982 
L 245.132864 293.767374 
L 246.764294 294.406464 
L 248.395724 293.718213 
L 250.027154 291.899266 
L 251.658584 292.341713 
L 253.290014 292.587516 
L 254.921444 289.392068 
L 256.552873 292.390873 
L 258.184303 292.538356 
L 259.815733 293.128284 
L 261.447163 292.489195 
L 263.078593 293.177445 
L 264.710023 291.309337 
L 266.341453 291.653462 
L 267.972883 290.080319 
L 269.604312 286.540745 
L 271.235742 283.689422 
L 272.867172 279.805724 
L 274.498602 273.169024 
L 276.130032 267.023932 
L 277.761462 253.553889 
L 279.392892 244.901599 
L 281.024322 241.263704 
L 282.655751 231.972324 
L 284.287181 223.860802 
L 285.918611 218.40396 
L 287.550041 216.830817 
L 289.181471 212.160546 
L 290.812901 211.423135 
L 292.444331 207.441115 
L 294.075761 201.984273 
L 295.70719 197.559807 
L 297.33862 201.345183 
L 300.60148 190.087374 
L 302.23291 191.11975 
L 303.86434 186.056193 
L 305.49577 186.744444 
L 307.1272 187.285212 
L 308.75863 192.791215 
L 310.390059 192.692893 
L 312.021489 190.136535 
L 313.652919 191.11975 
L 315.284349 182.221656 
L 316.915779 189.890731 
L 320.178639 176.764814 
L 321.810069 169.390703 
L 323.441498 158.821144 
L 325.072928 149.185639 
L 328.335788 147.514174 
L 329.967218 141.664046 
L 331.598648 140.140063 
L 333.230078 133.257559 
L 334.861508 135.666435 
L 336.492937 134.535738 
L 338.124367 133.257559 
L 339.755797 128.63645 
L 341.387227 130.65204 
L 343.018657 125.785127 
L 344.650087 134.437417 
L 346.281517 126.915824 
L 347.912947 127.751556 
L 349.544376 119.39423 
L 351.175806 129.570504 
L 352.807236 126.866663 
L 354.438666 118.607659 
L 357.701526 114.920603 
L 359.332956 124.162822 
L 360.964386 123.769536 
L 362.595815 115.854657 
L 364.227245 117.526122 
L 365.858675 112.06928 
L 367.490105 105.825866 
L 369.121535 105.875027 
L 370.752965 96.288683 
L 372.384395 98.451755 
L 374.015825 91.569252 
L 375.647254 92.355824 
L 377.278684 92.74911 
L 378.910114 82.621997 
L 380.541544 86.554856 
L 382.172974 82.621997 
L 383.804404 83.801855 
L 385.435834 79.623192 
L 387.067264 79.229906 
L 388.698693 75.837815 
L 390.330123 80.901371 
L 391.961553 64.727488 
L 393.592983 67.382168 
L 395.224413 67.480489 
L 396.855843 67.333007 
L 398.487273 74.657957 
L 398.487273 74.657957 
" clip-path="url(#p7bf44ff692)" style="fill: none; stroke: #1f77b4; stroke-width: 1.5; stroke-linecap: square"/>
   </g>
   <g id="line2d_17">
    <path d="M 77.095587 295.488 
L 103.198465 295.488 
L 104.829895 291.555141 
L 106.461325 294.16066 
L 108.092755 295.488 
L 109.724185 293.177445 
L 111.355614 295.488 
L 112.987044 280.936421 
L 114.618474 295.488 
L 116.249904 294.996393 
L 117.881334 295.488 
L 121.144194 295.488 
L 122.775624 291.653462 
L 124.407053 295.488 
L 127.669913 295.488 
L 129.301343 289.981997 
L 130.932773 294.750589 
L 132.564203 295.143875 
L 134.195633 292.390873 
L 135.827063 295.488 
L 137.458492 295.488 
L 139.089922 295.193036 
L 140.721352 290.227801 
L 142.352782 294.603107 
L 143.984212 294.603107 
L 145.615642 295.488 
L 155.404221 295.488 
L 157.035651 285.164245 
L 158.667081 295.488 
L 160.298511 294.062339 
L 161.929941 295.488 
L 163.56137 295.488 
L 165.1928 294.79975 
L 166.82423 294.603107 
L 168.45566 293.275767 
L 170.08709 294.652267 
L 171.71852 294.209821 
L 174.98138 295.488 
L 176.61281 293.079124 
L 178.244239 295.488 
L 181.507099 295.488 
L 183.138529 291.702623 
L 184.769959 294.553946 
L 186.401389 295.488 
L 188.032819 295.488 
L 189.664249 295.291357 
L 191.295678 295.291357 
L 192.927108 294.258982 
L 194.558538 293.767374 
L 196.189968 294.308142 
L 197.821398 295.143875 
L 199.452828 295.143875 
L 201.084258 294.652267 
L 202.715688 292.882481 
L 204.347117 295.488 
L 207.609977 295.488 
L 209.241407 294.406464 
L 210.872837 295.488 
L 212.504267 295.488 
L 214.135697 295.193036 
L 215.767127 295.488 
L 217.398556 295.488 
L 219.029986 291.899266 
L 220.661416 295.488 
L 222.292846 295.488 
L 223.924276 294.258982 
L 225.555706 295.488 
L 227.187136 295.488 
L 230.449995 295.242196 
L 232.081425 295.488 
L 233.712855 295.488 
L 235.344285 294.84891 
L 236.975715 295.340518 
L 238.607145 294.603107 
L 240.238575 293.47241 
L 241.870005 294.013178 
L 243.501434 294.013178 
L 246.764294 293.177445 
L 248.395724 293.226606 
L 250.027154 291.800945 
L 251.658584 292.538356 
L 254.921444 293.177445 
L 256.552873 292.390873 
L 258.184303 290.965212 
L 259.815733 292.341713 
L 261.447163 292.931642 
L 263.078593 291.948427 
L 264.710023 293.619892 
L 266.341453 292.341713 
L 267.972883 290.17864 
L 269.604312 288.261371 
L 271.235742 286.589906 
L 274.498602 272.824899 
L 276.130032 264.320091 
L 277.761462 251.292495 
L 279.392892 247.015511 
L 281.024322 237.773292 
L 282.655751 231.03827 
L 284.287181 223.418356 
L 285.918611 221.206122 
L 287.550041 212.357189 
L 289.181471 211.128171 
L 290.812901 206.851186 
L 292.444331 203.75406 
L 294.075761 198.346378 
L 295.70719 200.361969 
L 297.33862 193.184501 
L 298.97005 191.267232 
L 300.60148 188.907516 
L 302.23291 194.757644 
L 303.86434 189.644927 
L 305.49577 197.11736 
L 307.1272 189.79241 
L 308.75863 185.023818 
L 310.390059 185.220461 
L 312.021489 188.170105 
L 313.652919 181.730048 
L 315.284349 192.742054 
L 316.915779 184.728853 
L 318.547209 179.714458 
L 320.178639 179.616137 
L 321.810069 177.84635 
L 323.441498 163.688057 
L 325.072928 158.673661 
L 326.704358 151.840319 
L 328.335788 150.660461 
L 329.967218 145.351101 
L 331.598648 136.846293 
L 333.230078 143.827118 
L 334.861508 134.240774 
L 336.492937 134.781542 
L 338.124367 133.798327 
L 339.755797 130.701201 
L 341.387227 126.67002 
L 343.018657 124.162822 
L 344.650087 127.99736 
L 346.281517 123.769536 
L 347.912947 122.638839 
L 349.544376 120.180802 
L 351.175806 116.149622 
L 352.807236 105.481741 
L 354.438666 121.901428 
L 356.070096 130.111272 
L 357.701526 119.197587 
L 359.332956 118.460176 
L 360.964386 119.000945 
L 362.595815 128.783932 
L 364.227245 112.167602 
L 365.858675 108.922993 
L 367.490105 111.774316 
L 369.121535 101.204757 
L 370.752965 103.318669 
L 372.384395 96.485326 
L 374.015825 92.79827 
L 375.647254 89.406179 
L 377.278684 89.848626 
L 378.910114 89.357018 
L 380.541544 82.277872 
L 382.172974 87.292267 
L 383.804404 81.638782 
L 385.435834 76.476905 
L 387.067264 77.460119 
L 388.698693 76.526065 
L 390.330123 77.656762 
L 391.961553 73.822225 
L 393.592983 73.133974 
L 395.224413 68.758669 
L 396.855843 74.707118 
L 398.487273 74.608797 
L 398.487273 74.608797 
" clip-path="url(#p7bf44ff692)" style="fill: none; stroke: #ff7f0e; stroke-width: 1.5; stroke-linecap: square"/>
   </g>
   <g id="line2d_18">
    <path d="M 75.464157 295.488 
L 77.095587 295.488 
L 78.727017 290.719408 
L 80.358447 295.488 
L 83.621307 295.488 
L 85.252736 293.52157 
L 86.884166 295.488 
L 93.409886 295.488 
L 95.041316 292.538356 
L 96.672746 295.488 
L 98.304175 284.770959 
L 99.935605 295.488 
L 112.987044 295.488 
L 114.618474 291.899266 
L 116.249904 291.063533 
L 117.881334 288.949622 
L 119.512764 291.407659 
L 121.144194 288.949622 
L 122.775624 295.045553 
L 124.407053 293.029963 
L 126.038483 295.488 
L 127.669913 295.488 
L 129.301343 294.750589 
L 130.932773 295.143875 
L 132.564203 294.79975 
L 134.195633 291.063533 
L 135.827063 294.16066 
L 137.458492 295.488 
L 139.089922 294.209821 
L 140.721352 295.488 
L 147.247072 295.488 
L 148.878502 295.193036 
L 150.509931 295.488 
L 152.141361 295.488 
L 153.772791 294.701428 
L 155.404221 294.996393 
L 157.035651 294.258982 
L 158.667081 291.358498 
L 160.298511 295.488 
L 161.929941 294.996393 
L 163.56137 290.424444 
L 165.1928 295.488 
L 166.82423 295.488 
L 168.45566 290.86689 
L 170.08709 293.324927 
L 171.71852 295.488 
L 173.34995 290.522765 
L 174.98138 295.488 
L 176.61281 294.701428 
L 178.244239 294.062339 
L 179.875669 295.094714 
L 181.507099 293.570731 
L 183.138529 293.570731 
L 184.769959 292.83332 
L 186.401389 291.407659 
L 188.032819 295.291357 
L 189.664249 295.488 
L 192.927108 295.488 
L 194.558538 294.79975 
L 196.189968 295.488 
L 197.821398 295.340518 
L 199.452828 295.488 
L 202.715688 295.488 
L 204.347117 294.996393 
L 205.978547 294.84891 
L 207.609977 295.488 
L 209.241407 295.045553 
L 210.872837 295.193036 
L 212.504267 292.341713 
L 214.135697 295.488 
L 215.767127 295.488 
L 217.398556 290.571926 
L 220.661416 295.488 
L 222.292846 294.79975 
L 223.924276 295.488 
L 225.555706 293.718213 
L 227.187136 295.094714 
L 228.818566 295.488 
L 232.081425 295.488 
L 233.712855 294.062339 
L 235.344285 295.340518 
L 236.975715 295.340518 
L 238.607145 294.701428 
L 240.238575 294.84891 
L 241.870005 293.767374 
L 243.501434 293.865696 
L 246.764294 292.931642 
L 248.395724 292.980802 
L 250.027154 292.784159 
L 251.658584 293.718213 
L 253.290014 292.587516 
L 254.921444 291.112694 
L 256.552873 292.390873 
L 258.184303 292.636677 
L 259.815733 292.243391 
L 264.710023 292.980802 
L 266.341453 293.423249 
L 267.972883 290.81773 
L 269.604312 289.588711 
L 271.235742 284.721798 
L 272.867172 278.478384 
L 274.498602 275.725383 
L 276.130032 267.171414 
L 277.761462 254.143818 
L 279.392892 245.344046 
L 282.655751 231.333235 
L 284.287181 225.237303 
L 285.918611 221.74689 
L 287.550041 214.569422 
L 289.181471 208.571812 
L 290.812901 204.737275 
L 292.444331 203.311613 
L 294.075761 200.46029 
L 295.70719 199.182111 
L 297.33862 189.005838 
L 298.97005 191.316393 
L 300.60148 194.46268 
L 302.23291 191.758839 
L 303.86434 191.562196 
L 305.49577 198.051414 
L 307.1272 195.986663 
L 308.75863 189.054999 
L 310.390059 189.595767 
L 312.021489 193.577787 
L 313.652919 182.762424 
L 315.284349 188.661713 
L 316.915779 178.387118 
L 318.547209 174.650902 
L 320.178639 179.222851 
L 321.810069 181.140119 
L 323.441498 165.507004 
L 325.072928 157.198839 
L 326.704358 152.036962 
L 328.335788 148.939835 
L 329.967218 145.25278 
L 331.598648 134.535738 
L 333.230078 140.63167 
L 334.861508 134.535738 
L 336.492937 130.357075 
L 338.124367 132.077701 
L 339.755797 133.060916 
L 341.387227 126.325895 
L 343.018657 129.472182 
L 344.650087 118.70598 
L 346.281517 123.081286 
L 347.912947 121.458982 
L 349.544376 126.424216 
L 351.175806 118.06689 
L 352.807236 120.967374 
L 354.438666 127.800717 
L 356.070096 120.229963 
L 357.701526 123.032125 
L 359.332956 126.571698 
L 360.964386 119.541713 
L 362.595815 125.539323 
L 364.227245 113.150817 
L 365.858675 114.281514 
L 367.490105 112.315084 
L 369.121535 102.237132 
L 370.752965 105.285098 
L 372.384395 96.731129 
L 374.015825 95.45295 
L 375.647254 89.996108 
L 377.278684 85.768284 
L 378.910114 90.487716 
L 380.541544 85.866606 
L 382.172974 89.602822 
L 383.804404 82.474515 
L 385.435834 84.539266 
L 387.067264 82.376193 
L 388.698693 78.541656 
L 390.330123 73.822225 
L 391.961553 64.334202 
L 393.592983 69.250276 
L 395.224413 79.819835 
L 396.855843 77.656762 
L 398.487273 67.185525 
L 398.487273 67.185525 
" clip-path="url(#p7bf44ff692)" style="fill: none; stroke: #2ca02c; stroke-width: 1.5; stroke-linecap: square"/>
   </g>
   <g id="line2d_19">
    <path d="M 77.095587 295.488 
L 103.198465 295.488 
L 104.829895 292.882481 
L 106.461325 295.488 
L 108.092755 295.488 
L 109.724185 294.898071 
L 111.355614 295.488 
L 112.987044 291.800945 
L 114.618474 295.488 
L 116.249904 294.996393 
L 117.881334 295.488 
L 121.144194 295.488 
L 122.775624 295.045553 
L 124.407053 295.488 
L 127.669913 295.488 
L 129.301343 291.456819 
L 130.932773 295.143875 
L 132.564203 295.488 
L 134.195633 288.359693 
L 135.827063 295.488 
L 137.458492 295.143875 
L 139.089922 295.193036 
L 140.721352 294.258982 
L 142.352782 283.787744 
L 143.984212 294.013178 
L 145.615642 295.488 
L 153.772791 295.488 
L 155.404221 295.242196 
L 157.035651 294.750589 
L 158.667081 292.046748 
L 160.298511 290.719408 
L 161.929941 294.996393 
L 163.56137 295.488 
L 165.1928 292.784159 
L 166.82423 294.79975 
L 168.45566 294.84891 
L 170.08709 290.965212 
L 171.71852 295.291357 
L 173.34995 295.291357 
L 174.98138 295.488 
L 179.875669 295.488 
L 181.507099 295.291357 
L 183.138529 293.964017 
L 184.769959 293.423249 
L 186.401389 295.488 
L 188.032819 295.488 
L 189.664249 294.79975 
L 191.295678 295.488 
L 192.927108 295.143875 
L 194.558538 291.014373 
L 196.189968 293.128284 
L 197.821398 294.652267 
L 199.452828 295.340518 
L 201.084258 292.243391 
L 202.715688 295.143875 
L 204.347117 295.488 
L 205.978547 295.488 
L 207.609977 293.177445 
L 209.241407 291.948427 
L 210.872837 295.488 
L 212.504267 295.488 
L 214.135697 292.538356 
L 215.767127 295.488 
L 217.398556 295.488 
L 219.029986 295.045553 
L 220.661416 295.488 
L 222.292846 295.488 
L 223.924276 292.440034 
L 225.555706 294.79975 
L 227.187136 295.488 
L 228.818566 295.488 
L 230.449995 295.340518 
L 232.081425 295.488 
L 233.712855 295.488 
L 235.344285 294.209821 
L 236.975715 295.094714 
L 238.607145 291.063533 
L 240.238575 294.84891 
L 241.870005 294.603107 
L 245.132864 293.52157 
L 246.764294 293.423249 
L 248.395724 292.83332 
L 250.027154 293.128284 
L 251.658584 292.440034 
L 253.290014 293.52157 
L 254.921444 292.931642 
L 258.184303 293.128284 
L 259.815733 292.440034 
L 261.447163 292.734999 
L 263.078593 291.653462 
L 264.710023 291.850105 
L 266.341453 290.916051 
L 269.604312 288.752979 
L 271.235742 287.081514 
L 272.867172 282.607886 
L 274.498602 275.922026 
L 276.130032 261.370447 
L 277.761462 254.438782 
L 279.392892 245.294885 
L 281.024322 238.068256 
L 282.655751 233.053861 
L 284.287181 225.581428 
L 285.918611 219.092211 
L 287.550041 219.04305 
L 289.181471 212.455511 
L 290.812901 209.210902 
L 292.444331 204.294828 
L 294.075761 202.623363 
L 295.70719 194.511841 
L 297.33862 199.968683 
L 298.97005 193.037018 
L 300.60148 195.445895 
L 302.23291 192.594572 
L 303.86434 194.610162 
L 305.49577 182.762424 
L 307.1272 189.005838 
L 308.75863 190.333178 
L 310.390059 195.249252 
L 312.021489 191.955482 
L 313.652919 199.329593 
L 315.284349 185.318782 
L 316.915779 190.48066 
L 318.547209 180.697673 
L 320.178639 174.847545 
L 321.810069 168.210845 
L 323.441498 164.032182 
L 325.072928 150.758782 
L 326.704358 144.761172 
L 328.335788 147.170048 
L 329.967218 143.9746 
L 331.598648 140.041741 
L 333.230078 135.764757 
L 334.861508 137.583704 
L 336.492937 130.553718 
L 338.124367 133.896649 
L 339.755797 127.653235 
L 341.387227 126.964984 
L 343.018657 130.553718 
L 344.650087 125.146037 
L 346.281517 123.32709 
L 347.912947 126.375055 
L 349.544376 119.836677 
L 351.175806 119.934999 
L 352.807236 134.093292 
L 354.438666 113.986549 
L 356.070096 119.984159 
L 357.701526 119.541713 
L 359.332956 116.297104 
L 360.964386 124.998555 
L 362.595815 117.526122 
L 364.227245 116.788711 
L 365.858675 116.346265 
L 367.490105 106.956563 
L 369.121535 108.578868 
L 370.752965 97.41938 
L 372.384395 93.978128 
L 374.015825 89.996108 
L 375.647254 94.12561 
L 377.278684 87.882196 
L 378.910114 82.327033 
L 380.541544 84.047659 
L 382.172974 80.213121 
L 383.804404 83.801855 
L 385.435834 78.885781 
L 387.067264 82.032068 
L 388.698693 76.575226 
L 390.330123 72.789849 
L 391.961553 75.198725 
L 395.224413 69.54524 
L 396.855843 53.568 
L 398.487273 65.710703 
L 398.487273 65.710703 
" clip-path="url(#p7bf44ff692)" style="fill: none; stroke: #d62728; stroke-width: 1.5; stroke-linecap: square"/>
   </g>
   <g id="line2d_20">
    <path d="M 73.832727 295.488 
L 77.095587 295.488 
L 78.727017 290.621087 
L 80.358447 295.488 
L 83.621307 295.488 
L 85.252736 294.504785 
L 86.884166 295.488 
L 88.515596 292.685838 
L 90.147026 295.488 
L 93.409886 295.488 
L 95.041316 293.52157 
L 96.672746 295.488 
L 98.304175 278.18342 
L 99.935605 295.488 
L 101.567035 292.83332 
L 103.198465 294.79975 
L 106.461325 295.488 
L 109.724185 295.488 
L 111.355614 295.193036 
L 112.987044 295.488 
L 114.618474 293.669053 
L 116.249904 293.275767 
L 117.881334 291.751784 
L 119.512764 288.703818 
L 121.144194 290.965212 
L 122.775624 295.291357 
L 124.407053 294.062339 
L 126.038483 295.488 
L 127.669913 295.488 
L 129.301343 294.553946 
L 130.932773 294.209821 
L 132.564203 294.455624 
L 134.195633 289.342908 
L 135.827063 292.489195 
L 137.458492 294.996393 
L 139.089922 294.701428 
L 140.721352 295.488 
L 145.615642 295.488 
L 147.247072 295.045553 
L 148.878502 295.340518 
L 150.509931 295.340518 
L 152.141361 295.488 
L 153.772791 295.094714 
L 155.404221 295.242196 
L 157.035651 291.653462 
L 158.667081 292.538356 
L 160.298511 295.488 
L 161.929941 294.062339 
L 163.56137 292.980802 
L 165.1928 294.898071 
L 166.82423 295.488 
L 168.45566 293.177445 
L 170.08709 290.571926 
L 171.71852 295.488 
L 173.34995 292.587516 
L 174.98138 295.488 
L 176.61281 291.161855 
L 178.244239 294.603107 
L 179.875669 293.128284 
L 181.507099 294.406464 
L 183.138529 293.374088 
L 184.769959 294.062339 
L 186.401389 293.374088 
L 188.032819 295.045553 
L 189.664249 295.488 
L 192.927108 295.389679 
L 194.558538 294.258982 
L 196.189968 295.488 
L 197.821398 293.324927 
L 199.452828 295.143875 
L 201.084258 295.488 
L 202.715688 295.488 
L 204.347117 295.242196 
L 205.978547 295.193036 
L 207.609977 295.488 
L 209.241407 294.16066 
L 210.872837 294.406464 
L 212.504267 293.47241 
L 214.135697 295.242196 
L 215.767127 295.488 
L 217.398556 292.243391 
L 219.029986 294.258982 
L 220.661416 295.488 
L 222.292846 295.045553 
L 223.924276 295.488 
L 225.555706 294.406464 
L 227.187136 292.636677 
L 228.818566 295.488 
L 232.081425 295.488 
L 233.712855 293.226606 
L 235.344285 295.340518 
L 236.975715 295.340518 
L 238.607145 294.84891 
L 240.238575 294.996393 
L 241.870005 293.914856 
L 243.501434 294.062339 
L 245.132864 293.619892 
L 246.764294 293.669053 
L 248.395724 293.324927 
L 250.027154 292.341713 
L 251.658584 293.029963 
L 253.290014 292.587516 
L 254.921444 290.227801 
L 256.552873 292.390873 
L 259.815733 292.685838 
L 261.447163 292.489195 
L 263.078593 292.980802 
L 264.710023 292.14507 
L 266.341453 292.538356 
L 267.972883 290.473605 
L 269.604312 288.064728 
L 271.235742 284.18103 
L 274.498602 274.447203 
L 276.130032 267.073092 
L 277.761462 253.848853 
L 279.392892 245.147403 
L 281.024322 239.838043 
L 282.655751 231.67736 
L 284.287181 224.549053 
L 287.550041 215.700119 
L 289.181471 210.341599 
L 290.812901 208.080205 
L 292.444331 205.376364 
L 294.075761 201.246862 
L 295.70719 198.395539 
L 297.33862 195.15093 
L 298.97005 193.577787 
L 300.60148 192.299607 
L 302.23291 191.463875 
L 303.86434 188.809195 
L 305.49577 192.397929 
L 308.75863 190.923107 
L 310.390059 191.16891 
L 312.021489 191.857161 
L 313.652919 186.941087 
L 316.915779 184.138925 
L 318.547209 178.977047 
L 320.178639 177.993832 
L 321.810069 175.240831 
L 323.441498 162.164074 
L 325.072928 153.216819 
L 326.704358 150.168853 
L 328.335788 148.251585 
L 329.967218 143.482993 
L 331.598648 137.3379 
L 333.230078 136.944615 
L 334.861508 135.125667 
L 336.492937 132.470987 
L 338.124367 132.66763 
L 339.755797 130.848683 
L 341.387227 128.488967 
L 343.018657 127.604074 
L 344.650087 126.571698 
L 346.281517 124.998555 
L 347.912947 124.605269 
L 349.544376 122.884643 
L 351.175806 123.818697 
L 352.807236 123.917018 
L 354.438666 123.228768 
L 356.070096 118.509337 
L 357.701526 118.951784 
L 359.332956 125.34268 
L 360.964386 121.655624 
L 362.595815 120.67241 
L 364.227245 115.36305 
L 365.858675 113.150817 
L 367.490105 109.070475 
L 369.121535 104.05608 
L 372.384395 97.566862 
L 374.015825 93.535681 
L 375.647254 91.175966 
L 377.278684 89.258697 
L 378.910114 86.554856 
L 380.541544 86.210731 
L 382.172974 86.11241 
L 383.804404 83.113605 
L 385.435834 82.081229 
L 387.067264 80.80305 
L 388.698693 77.165155 
L 390.330123 77.361798 
L 391.961553 64.530845 
L 393.592983 68.316222 
L 395.224413 73.625582 
L 396.855843 72.494885 
L 398.487273 70.921741 
L 398.487273 70.921741 
" clip-path="url(#p7bf44ff692)" style="fill: none; stroke: #9467bd; stroke-width: 1.5; stroke-linecap: square"/>
   </g>
   <g id="line2d_21">
    <path d="M 73.832727 295.488 
L 103.198465 295.488 
L 104.829895 292.243391 
L 106.461325 294.84891 
L 108.092755 295.488 
L 109.724185 294.062339 
L 111.355614 295.488 
L 112.987044 286.344102 
L 114.618474 295.488 
L 116.249904 294.996393 
L 117.881334 295.488 
L 121.144194 295.488 
L 122.775624 293.374088 
L 124.407053 295.488 
L 127.669913 295.488 
L 129.301343 290.719408 
L 130.932773 294.947232 
L 132.564203 295.291357 
L 134.195633 290.375283 
L 135.827063 295.488 
L 139.089922 295.193036 
L 142.352782 289.195425 
L 143.984212 294.308142 
L 145.615642 295.488 
L 153.772791 295.488 
L 155.404221 295.340518 
L 157.035651 289.932836 
L 158.667081 293.767374 
L 160.298511 292.390873 
L 161.929941 295.242196 
L 163.56137 295.488 
L 165.1928 293.767374 
L 166.82423 294.701428 
L 168.45566 294.062339 
L 170.08709 292.784159 
L 171.71852 294.750589 
L 173.34995 295.045553 
L 174.98138 295.488 
L 176.61281 294.258982 
L 178.244239 295.488 
L 181.507099 295.389679 
L 183.138529 292.83332 
L 184.769959 294.013178 
L 186.401389 295.488 
L 188.032819 295.488 
L 189.664249 295.045553 
L 191.295678 295.389679 
L 192.927108 294.701428 
L 194.558538 292.390873 
L 196.189968 293.718213 
L 197.821398 294.898071 
L 199.452828 295.242196 
L 201.084258 293.47241 
L 202.715688 294.013178 
L 204.347117 295.488 
L 205.978547 295.488 
L 209.241407 293.177445 
L 210.872837 295.488 
L 212.504267 295.488 
L 214.135697 293.865696 
L 215.767127 295.488 
L 217.398556 295.488 
L 219.029986 293.47241 
L 220.661416 295.488 
L 222.292846 295.488 
L 223.924276 293.324927 
L 225.555706 295.143875 
L 227.187136 295.488 
L 230.449995 295.291357 
L 232.081425 295.488 
L 233.712855 295.488 
L 235.344285 294.504785 
L 236.975715 295.242196 
L 238.607145 292.83332 
L 240.238575 294.16066 
L 241.870005 294.308142 
L 243.501434 294.013178 
L 245.132864 293.52157 
L 248.395724 293.029963 
L 250.027154 292.489195 
L 251.658584 292.489195 
L 253.290014 293.177445 
L 254.921444 293.079124 
L 256.552873 292.734999 
L 258.184303 292.046748 
L 261.447163 292.83332 
L 263.078593 291.800945 
L 264.710023 292.734999 
L 266.341453 291.604302 
L 271.235742 286.83571 
L 272.867172 281.083903 
L 274.498602 274.348882 
L 276.130032 262.845269 
L 277.761462 252.865639 
L 279.392892 246.130617 
L 281.024322 237.920774 
L 282.655751 232.021485 
L 284.287181 224.499892 
L 289.181471 211.816421 
L 294.075761 200.509451 
L 295.70719 197.461485 
L 297.33862 196.576592 
L 298.97005 192.152125 
L 300.60148 192.152125 
L 302.23291 193.676108 
L 303.86434 192.102964 
L 305.49577 189.939892 
L 307.1272 189.399124 
L 308.75863 187.678498 
L 310.390059 190.234856 
L 312.021489 190.087374 
L 313.652919 190.529821 
L 316.915779 187.629337 
L 318.547209 180.206065 
L 320.178639 177.256421 
L 321.810069 173.028597 
L 325.072928 154.740802 
L 326.704358 148.300745 
L 328.335788 148.939835 
L 329.967218 144.662851 
L 331.598648 138.468597 
L 333.230078 139.795937 
L 334.861508 135.912239 
L 336.492937 132.66763 
L 338.124367 133.847488 
L 339.755797 129.177218 
L 341.387227 126.817502 
L 343.018657 127.35827 
L 344.650087 126.571698 
L 346.281517 123.523733 
L 347.912947 124.506947 
L 349.544376 119.984159 
L 351.175806 118.06689 
L 352.807236 119.787516 
L 354.438666 117.968569 
L 356.070096 125.047716 
L 357.701526 119.34507 
L 359.332956 117.37864 
L 360.964386 121.99975 
L 362.595815 123.130447 
L 364.227245 114.478156 
L 365.858675 112.659209 
L 367.490105 109.36544 
L 370.752965 100.369024 
L 372.384395 95.207147 
L 374.015825 91.372609 
L 375.647254 91.765895 
L 380.541544 83.162765 
L 382.172974 83.752694 
L 383.804404 82.720319 
L 385.435834 77.705923 
L 387.067264 79.721514 
L 388.698693 76.575226 
L 390.330123 75.247886 
L 391.961553 74.510475 
L 393.592983 72.789849 
L 395.224413 69.151954 
L 396.855843 64.137559 
L 398.487273 70.18433 
L 398.487273 70.18433 
" clip-path="url(#p7bf44ff692)" style="fill: none; stroke: #8c564b; stroke-width: 1.5; stroke-linecap: square"/>
   </g>
   <g id="patch_3">
    <path d="M 57.6 307.584 
L 57.6 41.472 
" style="fill: none; stroke: #000000; stroke-width: 0.8; stroke-linejoin: miter; stroke-linecap: square"/>
   </g>
   <g id="patch_4">
    <path d="M 414.72 307.584 
L 414.72 41.472 
" style="fill: none; stroke: #000000; stroke-width: 0.8; stroke-linejoin: miter; stroke-linecap: square"/>
   </g>
   <g id="patch_5">
    <path d="M 57.6 307.584 
L 414.72 307.584 
" style="fill: none; stroke: #000000; stroke-width: 0.8; stroke-linejoin: miter; stroke-linecap: square"/>
   </g>
   <g id="patch_6">
    <path d="M 57.6 41.472 
L 414.72 41.472 
" style="fill: none; stroke: #000000; stroke-width: 0.8; stroke-linejoin: miter; stroke-linecap: square"/>
   </g>
   <g id="legend_1">
    <g id="patch_7">
     <path d="M 64.6 138.097 
L 122 138.097 
Q 124 138.097 124 136.097 
L 124 48.472 
Q 124 46.472 122 46.472 
L 64.6 46.472 
Q 62.6 46.472 62.6 48.472 
L 62.6 136.097 
Q 62.6 138.097 64.6 138.097 
z
" style="fill: #ffffff; opacity: 0.8; stroke: #cccccc; stroke-linejoin: miter"/>
    </g>
    <g id="line2d_22">
     <path d="M 66.6 54.570438 
L 76.6 54.570438 
L 86.6 54.570438 
" style="fill: none; stroke: #1f77b4; stroke-width: 1.5; stroke-linecap: square"/>
    </g>
    <g id="text_18">
     <!-- h1h3 -->
     <g transform="translate(94.6 58.070438)scale(0.1 -0.1)">
      <defs>
       <path id="DejaVuSans-68" d="M 3513 2113 
L 3513 0 
L 2938 0 
L 2938 2094 
Q 2938 2591 2744 2837 
Q 2550 3084 2163 3084 
Q 1697 3084 1428 2787 
Q 1159 2491 1159 1978 
L 1159 0 
L 581 0 
L 581 4863 
L 1159 4863 
L 1159 2956 
Q 1366 3272 1645 3428 
Q 1925 3584 2291 3584 
Q 2894 3584 3203 3211 
Q 3513 2838 3513 2113 
z
" transform="scale(0.015625)"/>
      </defs>
      <use xlink:href="#DejaVuSans-68"/>
      <use xlink:href="#DejaVuSans-31" x="63.378906"/>
      <use xlink:href="#DejaVuSans-68" x="127.001953"/>
      <use xlink:href="#DejaVuSans-33" x="190.380859"/>
     </g>
    </g>
    <g id="line2d_23">
     <path d="M 66.6 69.248563 
L 76.6 69.248563 
L 86.6 69.248563 
" style="fill: none; stroke: #ff7f0e; stroke-width: 1.5; stroke-linecap: square"/>
    </g>
    <g id="text_19">
     <!-- h1h4 -->
     <g transform="translate(94.6 72.748563)scale(0.1 -0.1)">
      <use xlink:href="#DejaVuSans-68"/>
      <use xlink:href="#DejaVuSans-31" x="63.378906"/>
      <use xlink:href="#DejaVuSans-68" x="127.001953"/>
      <use xlink:href="#DejaVuSans-34" x="190.380859"/>
     </g>
    </g>
    <g id="line2d_24">
     <path d="M 66.6 83.926688 
L 76.6 83.926688 
L 86.6 83.926688 
" style="fill: none; stroke: #2ca02c; stroke-width: 1.5; stroke-linecap: square"/>
    </g>
    <g id="text_20">
     <!-- h2h3 -->
     <g transform="translate(94.6 87.426688)scale(0.1 -0.1)">
      <use xlink:href="#DejaVuSans-68"/>
      <use xlink:href="#DejaVuSans-32" x="63.378906"/>
      <use xlink:href="#DejaVuSans-68" x="127.001953"/>
      <use xlink:href="#DejaVuSans-33" x="190.380859"/>
     </g>
    </g>
    <g id="line2d_25">
     <path d="M 66.6 98.604813 
L 76.6 98.604813 
L 86.6 98.604813 
" style="fill: none; stroke: #d62728; stroke-width: 1.5; stroke-linecap: square"/>
    </g>
    <g id="text_21">
     <!-- h2h4 -->
     <g transform="translate(94.6 102.104813)scale(0.1 -0.1)">
      <use xlink:href="#DejaVuSans-68"/>
      <use xlink:href="#DejaVuSans-32" x="63.378906"/>
      <use xlink:href="#DejaVuSans-68" x="127.001953"/>
      <use xlink:href="#DejaVuSans-34" x="190.380859"/>
     </g>
    </g>
    <g id="line2d_26">
     <path d="M 66.6 113.282938 
L 76.6 113.282938 
L 86.6 113.282938 
" style="fill: none; stroke: #9467bd; stroke-width: 1.5; stroke-linecap: square"/>
    </g>
    <g id="text_22">
     <!-- h_h3 -->
     <g transform="translate(94.6 116.782938)scale(0.1 -0.1)">
      <defs>
       <path id="DejaVuSans-5f" d="M 3263 -1063 
L 3263 -1509 
L -63 -1509 
L -63 -1063 
L 3263 -1063 
z
" transform="scale(0.015625)"/>
      </defs>
      <use xlink:href="#DejaVuSans-68"/>
      <use xlink:href="#DejaVuSans-5f" x="63.378906"/>
      <use xlink:href="#DejaVuSans-68" x="113.378906"/>
      <use xlink:href="#DejaVuSans-33" x="176.757812"/>
     </g>
    </g>
    <g id="line2d_27">
     <path d="M 66.6 128.239188 
L 76.6 128.239188 
L 86.6 128.239188 
" style="fill: none; stroke: #8c564b; stroke-width: 1.5; stroke-linecap: square"/>
    </g>
    <g id="text_23">
     <!-- h_h4 -->
     <g transform="translate(94.6 131.739188)scale(0.1 -0.1)">
      <use xlink:href="#DejaVuSans-68"/>
      <use xlink:href="#DejaVuSans-5f" x="63.378906"/>
      <use xlink:href="#DejaVuSans-68" x="113.378906"/>
      <use xlink:href="#DejaVuSans-34" x="176.757812"/>
     </g>
    </g>
   </g>
  </g>
 </g>
 <defs>
  <clipPath id="p7bf44ff692">
   <rect x="57.6" y="41.472" width="357.12" height="266.112"/>
  </clipPath>
 </defs>
</svg>
